<?xml version="1.0" encoding="UTF-8"?>
<svg version="1.1" xmlns="http://www.w3.org/2000/svg" width="256" height="256">
<path d="M0,0 L92,0 L100,8 L104,13 L112,20 L120,28 L124,33 L132,40 L140,48 L144,53 L152,60 L153,61 L153,153 L92,214 L0,214 L-7,207 L-11,202 L-19,195 L-27,187 L-31,182 L-39,175 L-47,167 L-51,162 L-59,155 L-61,153 L-61,61 L-14,14 L-7,8 Z M-11,38 L-11,176 L68,176 L85,174 L93,172 L101,168 L106,164 L113,154 L116,143 L116,130 L113,120 L106,111 L98,106 L90,103 L99,97 L106,89 L110,79 L110,66 L106,56 L97,46 L87,41 L71,38 Z " fill="#FDFDFD" transform="translate(82,21)"/>
<path d="M0,0 L109,0 L182,73 L182,183 L109,256 L-1,256 L-74,183 L-74,74 Z M8,21 L-4,34 L-12,41 L-53,82 L-53,174 L-45,182 L-40,186 L-33,194 L-25,202 L-20,206 L-13,214 L-5,222 L0,226 L7,234 L8,235 L100,235 L161,174 L161,82 L154,75 L149,71 L142,63 L134,55 L129,51 L122,43 L114,35 L109,31 L102,23 L100,21 Z " fill="#404040" transform="translate(74,0)"/>
<path d="M0,0 L82,0 L98,3 L108,8 L115,15 L120,25 L121,28 L121,41 L116,53 L108,61 L101,65 L111,69 L120,76 L125,84 L127,92 L127,105 L123,118 L116,127 L107,133 L102,135 L91,137 L79,138 L0,138 Z M43,28 L43,54 L71,54 L77,50 L79,45 L79,36 L75,31 L67,28 Z M43,81 L43,108 L74,108 L80,105 L84,100 L84,88 L79,83 L74,81 Z " fill="#414141" transform="translate(71,59)"/>
<path d="M0,0 L31,0 L37,3 L41,7 L41,19 L36,25 L31,27 L0,27 Z " fill="#FEFEFE" transform="translate(114,140)"/>
<path d="M0,0 L24,0 L33,4 L36,8 L36,17 L33,23 L28,26 L0,26 Z " fill="#FBFBFB" transform="translate(114,87)"/>
<path d="M0,0 Z M-1,1 Z M-2,2 Z M-3,3 Z M-4,4 Z M-5,5 Z M-6,6 Z M-7,7 Z M-8,8 Z M-9,9 Z M-10,10 Z M-11,11 Z M-12,12 Z M-13,13 Z M-14,14 Z M-15,15 Z M-16,16 Z M-17,17 Z M-18,18 Z M-19,19 Z M-20,20 Z M-21,21 Z M-22,22 Z M-23,23 Z M-24,24 Z M-25,25 Z M-26,26 Z M-27,27 Z M-28,28 Z M-29,29 Z M-30,30 Z M-31,31 Z M-32,32 Z M-33,33 Z M-34,34 Z M-35,35 Z M-36,36 Z M-37,37 Z M-38,38 Z M-39,39 Z M-40,40 Z M-41,41 Z M-42,42 Z M-43,43 Z M-44,44 Z M-45,45 Z M-46,46 Z M-47,47 Z M-48,48 Z M-49,49 Z M-50,50 Z M-51,51 Z M-52,52 Z M-53,53 Z M-54,54 Z M-55,55 Z M-56,56 Z M-57,57 Z M-58,58 Z M-59,59 Z M-60,60 Z M-61,61 Z M-62,62 Z M-63,63 Z M-64,64 Z M-65,65 Z M-66,66 Z M-67,67 Z M-68,68 Z M-69,69 Z M-70,70 Z M-71,71 Z M-72,72 Z M-73,73 Z " fill="#404040" transform="translate(73,0)"/>
</svg>
