<svg xmlns="http://www.w3.org/2000/svg" xmlns:v="https://svgstorm.com"
viewBox = "0 0 861 861"
width="861"
height="861">
<g fill="None" fill-opacity="0.0" stroke="#000000" stroke-opacity="0.00" stroke-width="0.3"><path d="
M 0.00 41.00 
C 3.45 21.08 21.16 3.44 41.00 0.00
L 0.00 0.00
L 0.00 41.00 Z"/>
</g>
<g fill="None" fill-opacity="0.0" stroke="#232837" stroke-opacity="1.00" stroke-width="0.3"><path d="
M 0.00 41.00 
L 0.00 822.00
C 4.08 839.83 18.98 856.60 37.00 861.00
L 826.00 861.00
C 842.08 856.07 856.09 842.00 861.00 826.00
L 861.00 37.00
C 856.58 18.90 839.81 4.00 822.00 0.00
L 41.00 0.00
C 21.16 3.44 3.45 21.08 0.00 41.00
M 511.00 221.00 
C 506.78 229.74 503.77 240.64 499.08 249.08 C 494.38 257.51 493.89 272.98 482.00 272.00
C 488.03 254.68 496.75 238.27 503.00 221.00
C 505.67 221.00 508.33 221.00 511.00 221.00
M 522.00 221.00 
C 528.24 238.25 536.96 254.66 543.00 272.00
C 530.88 273.09 530.83 257.34 526.07 248.93 C 521.32 240.51 517.96 229.87 514.00 221.00
C 516.67 221.00 519.33 221.00 522.00 221.00
M 477.00 267.00 
C 479.35 275.00 472.86 274.27 467.00 274.00 C 461.14 273.73 454.89 274.20 449.00 274.00
C 446.65 266.00 453.15 266.73 459.00 267.00 C 464.85 267.27 471.11 266.80 477.00 267.00
M 609.00 267.00 
C 609.55 279.43 591.90 272.69 582.00 274.00 C 572.10 275.31 558.26 273.02 548.00 274.00
C 547.45 261.57 565.10 268.31 575.00 267.00 C 584.90 265.69 598.74 267.98 609.00 267.00
M 446.00 291.00 
C 441.78 299.74 438.77 310.64 434.08 319.08 C 429.38 327.51 428.89 342.98 417.00 342.00
C 417.73 337.03 421.26 333.00 422.00 328.00
C 398.00 328.00 374.00 328.00 350.00 328.00
C 348.32 316.79 361.62 321.67 370.00 321.00 C 378.38 320.33 389.16 321.35 398.00 321.00 C 406.84 320.65 417.04 321.26 426.00 321.00
C 426.52 318.20 427.64 315.55 429.00 313.00
C 402.67 313.00 376.33 313.00 350.00 313.00
C 348.33 302.01 361.61 306.38 370.00 306.00 C 378.39 305.62 389.15 305.81 398.00 306.00 C 406.85 306.19 415.86 305.05 425.00 306.00 C 434.14 306.95 435.40 298.27 438.00 291.00
C 440.67 291.00 443.33 291.00 446.00 291.00
M 591.00 291.00 
C 597.24 308.25 605.96 324.66 612.00 342.00
C 599.88 343.09 599.83 327.34 595.07 318.93 C 590.32 310.51 586.96 299.87 583.00 291.00
C 585.67 291.00 588.33 291.00 591.00 291.00
M 616.00 291.00 
C 622.24 308.25 630.96 324.66 637.00 342.00
C 624.87 343.09 624.83 327.34 620.07 318.93 C 615.32 310.51 611.96 299.87 608.00 291.00
C 610.67 291.00 613.33 291.00 616.00 291.00
M 279.00 313.00 
C 281.50 325.46 264.31 317.99 257.00 320.00
C 254.50 307.54 271.69 315.01 279.00 313.00
M 311.00 313.00 
C 313.35 325.67 295.53 317.85 288.00 320.00
C 285.65 307.33 303.47 315.15 311.00 313.00
M 343.00 313.00 
C 345.35 325.67 327.53 317.85 320.00 320.00
C 317.65 307.33 335.47 315.15 343.00 313.00
M 435.00 358.00 
C 435.00 377.33 435.00 396.67 435.00 416.00
C 421.62 417.97 428.15 400.68 427.00 391.00 C 425.85 381.32 427.86 368.01 427.00 358.00
C 429.67 358.00 432.33 358.00 435.00 358.00
M 665.00 358.00 
C 665.00 377.33 665.00 396.67 665.00 416.00
C 651.62 417.97 658.15 400.68 657.00 391.00 C 655.85 381.32 657.86 368.01 657.00 358.00
C 659.67 358.00 662.33 358.00 665.00 358.00
M 621.00 361.00 
C 627.24 378.25 635.96 394.65 642.00 412.00
C 629.88 413.09 629.83 397.34 625.07 388.93 C 620.32 380.51 616.96 369.87 613.00 361.00
C 615.67 361.00 618.33 361.00 621.00 361.00
M 687.00 361.00 
C 693.24 378.25 701.96 394.65 708.00 412.00
C 695.88 413.09 695.83 397.34 691.07 388.93 C 686.32 380.51 682.96 369.87 679.00 361.00
C 681.67 361.00 684.33 361.00 687.00 361.00
M 465.00 397.00 
C 470.37 398.66 468.07 409.38 461.77 407.21 C 455.47 405.04 458.40 394.96 465.00 397.00
M 148.00 407.00 
C 148.43 419.12 132.10 413.00 122.00 414.00 C 111.90 415.00 98.69 413.48 88.00 414.00 C 77.31 414.52 64.85 413.61 54.00 414.00
C 53.57 401.88 69.90 408.00 80.00 407.00 C 90.10 406.00 103.31 407.52 114.00 407.00 C 124.69 406.48 137.15 407.39 148.00 407.00
M 313.00 407.00 
C 313.43 419.12 297.10 413.00 287.00 414.00 C 276.90 415.00 263.69 413.48 253.00 414.00 C 242.31 414.52 229.85 413.61 219.00 414.00
C 218.57 401.88 234.90 408.00 245.00 407.00 C 255.10 406.00 268.31 407.52 279.00 407.00 C 289.69 406.48 302.15 407.39 313.00 407.00
M 39.00 428.00 
C 39.00 447.33 39.00 466.67 39.00 486.00
C 25.62 487.97 32.15 470.68 31.00 461.00 C 29.85 451.32 31.86 438.01 31.00 428.00
C 33.67 428.00 36.33 428.00 39.00 428.00
M 175.00 428.00 
C 175.00 447.33 175.00 466.67 175.00 486.00
C 161.62 487.97 168.15 470.68 167.00 461.00 C 165.85 451.32 167.86 438.01 167.00 428.00
C 169.67 428.00 172.33 428.00 175.00 428.00
M 201.00 428.00 
C 201.00 447.33 201.00 466.67 201.00 486.00
C 187.62 487.97 194.15 470.68 193.00 461.00 C 191.85 451.32 193.86 438.01 193.00 428.00
C 195.67 428.00 198.33 428.00 201.00 428.00
M 336.00 428.00 
C 336.00 447.33 336.00 466.67 336.00 486.00
C 322.62 487.97 329.15 470.68 328.00 461.00 C 326.85 451.32 328.86 438.01 328.00 428.00
C 330.67 428.00 333.33 428.00 336.00 428.00
M 435.00 428.00 
C 435.00 447.33 435.00 466.67 435.00 486.00
C 421.62 487.97 428.15 470.68 427.00 461.00 C 425.86 451.32 427.86 438.01 427.00 428.00
C 429.67 428.00 432.33 428.00 435.00 428.00
M 517.00 483.00 
C 514.46 473.35 525.89 476.53 528.77 468.77 C 531.65 461.01 531.57 453.74 529.22 445.78 C 526.87 437.81 514.63 440.54 517.00 431.00
C 546.73 429.16 546.74 484.63 517.00 483.00
M 654.00 431.00 
C 660.24 448.25 668.96 464.65 675.00 482.00
C 662.88 483.09 662.83 467.34 658.07 458.93 C 653.32 450.51 649.96 439.87 646.00 431.00
C 648.67 431.00 651.33 431.00 654.00 431.00
M 687.00 431.00 
C 693.24 448.25 701.96 464.66 708.00 482.00
C 695.88 483.09 695.83 467.34 691.07 458.93 C 686.32 450.51 682.96 439.87 679.00 431.00
C 681.67 431.00 684.33 431.00 687.00 431.00
M 720.00 431.00 
C 726.24 448.25 734.96 464.66 741.00 482.00
C 728.88 483.09 728.83 467.34 724.07 458.93 C 719.32 450.51 715.95 439.87 712.00 431.00
C 714.67 431.00 717.33 431.00 720.00 431.00
M 148.00 477.00 
C 148.55 489.43 130.90 482.69 121.00 484.00 C 111.10 485.31 97.26 483.02 87.00 484.00
C 86.45 471.57 104.10 478.31 114.00 477.00 C 123.90 475.69 137.74 477.98 148.00 477.00
M 313.00 477.00 
C 313.55 489.43 295.90 482.69 286.00 484.00 C 276.10 485.31 262.26 483.02 252.00 484.00
C 251.45 471.57 269.10 478.31 279.00 477.00 C 288.90 475.69 302.74 477.98 313.00 477.00
M 39.00 498.00 
C 39.00 517.33 39.00 536.67 39.00 556.00
C 25.62 557.97 32.15 540.68 31.00 531.00 C 29.85 521.32 31.86 508.01 31.00 498.00
C 33.67 498.00 36.33 498.00 39.00 498.00
M 138.00 498.00 
C 138.00 517.33 138.00 536.67 138.00 556.00
C 124.62 557.97 131.15 540.68 130.00 531.00 C 128.85 521.32 130.86 508.01 130.00 498.00
C 132.67 498.00 135.33 498.00 138.00 498.00
M 204.00 498.00 
C 204.00 517.33 204.00 536.67 204.00 556.00
C 190.62 557.97 197.15 540.68 196.00 531.00 C 194.85 521.32 196.86 508.01 196.00 498.00
C 198.67 498.00 201.33 498.00 204.00 498.00
M 303.00 498.00 
C 303.00 517.33 303.00 536.67 303.00 556.00
C 289.62 557.97 296.15 540.68 295.00 531.00 C 293.85 521.32 295.86 508.01 295.00 498.00
C 297.67 498.00 300.33 498.00 303.00 498.00
M 566.00 498.00 
C 566.00 517.33 566.00 536.67 566.00 556.00
C 552.62 557.97 559.15 540.68 558.00 531.00 C 556.85 521.32 558.86 508.01 558.00 498.00
C 560.67 498.00 563.33 498.00 566.00 498.00
M 731.00 498.00 
C 731.00 517.33 731.00 536.67 731.00 556.00
C 717.62 557.97 724.15 540.68 723.00 531.00 C 721.85 521.32 723.86 508.01 723.00 498.00
C 725.67 498.00 728.33 498.00 731.00 498.00
M 424.00 501.00 
C 430.24 518.25 438.96 534.66 445.00 552.00
C 432.87 553.09 432.83 537.34 428.07 528.93 C 423.32 520.51 419.96 509.87 416.00 501.00
C 418.67 501.00 421.33 501.00 424.00 501.00
M 511.00 501.00 
C 506.78 509.74 503.77 520.64 499.08 529.08 C 494.38 537.51 493.89 552.98 482.00 552.00
C 488.03 534.68 496.75 518.27 503.00 501.00
C 505.67 501.00 508.33 501.00 511.00 501.00
M 682.00 501.00 
C 677.78 509.74 674.77 520.64 670.08 529.08 C 665.38 537.51 664.89 552.98 653.00 552.00
C 659.03 534.68 667.75 518.27 674.00 501.00
C 676.67 501.00 679.33 501.00 682.00 501.00
M 707.00 501.00 
C 702.78 509.74 699.77 520.64 695.08 529.08 C 690.38 537.51 689.89 552.98 678.00 552.00
C 684.03 534.68 692.75 518.27 699.00 501.00
C 701.67 501.00 704.33 501.00 707.00 501.00
M 756.00 501.00 
C 762.24 518.25 770.96 534.65 777.00 552.00
C 764.88 553.09 764.83 537.34 760.07 528.93 C 755.32 520.51 751.96 509.87 748.00 501.00
C 750.67 501.00 753.33 501.00 756.00 501.00
M 781.00 501.00 
C 787.24 518.25 795.96 534.65 802.00 552.00
C 789.87 553.09 789.83 537.34 785.07 528.93 C 780.32 520.51 776.96 509.87 773.00 501.00
C 775.67 501.00 778.33 501.00 781.00 501.00
M 115.00 547.00 
C 117.35 555.00 110.85 554.27 105.00 554.00 C 99.15 553.73 92.89 554.20 87.00 554.00
C 84.65 546.00 91.15 546.73 97.00 547.00 C 102.85 547.27 109.11 546.80 115.00 547.00
M 280.00 547.00 
C 282.35 555.00 275.85 554.27 270.00 554.00 C 264.15 553.73 257.89 554.20 252.00 554.00
C 249.65 546.00 256.15 546.73 262.00 547.00 C 267.85 547.27 274.11 546.80 280.00 547.00
M 477.00 547.00 
C 479.35 555.00 472.86 554.27 467.00 554.00 C 461.14 553.73 454.89 554.20 449.00 554.00
C 446.65 546.00 453.15 546.73 459.00 547.00 C 464.85 547.27 471.11 546.80 477.00 547.00
M 39.00 568.00 
C 39.00 587.33 39.00 606.67 39.00 626.00
C 25.62 627.97 32.15 610.68 31.00 601.00 C 29.85 591.32 31.86 578.01 31.00 568.00
C 33.67 568.00 36.33 568.00 39.00 568.00
M 175.00 568.00 
C 175.00 587.33 175.00 606.67 175.00 626.00
C 161.62 627.97 168.15 610.68 167.00 601.00 C 165.85 591.32 167.86 578.01 167.00 568.00
C 169.67 568.00 172.33 568.00 175.00 568.00
M 201.00 568.00 
C 201.00 587.33 201.00 606.67 201.00 626.00
C 187.62 627.97 194.15 610.68 193.00 601.00 C 191.85 591.32 193.86 578.01 193.00 568.00
C 195.67 568.00 198.33 568.00 201.00 568.00
M 270.00 568.00 
C 270.00 587.33 270.00 606.67 270.00 626.00
C 256.62 627.97 263.15 610.68 262.00 601.00 C 260.85 591.32 262.86 578.01 262.00 568.00
C 264.67 568.00 267.33 568.00 270.00 568.00
M 544.00 571.00 
C 539.78 579.74 536.77 590.64 532.08 599.08 C 527.38 607.51 526.89 622.98 515.00 622.00
C 521.03 604.68 529.75 588.27 536.00 571.00
C 538.67 571.00 541.33 571.00 544.00 571.00
M 654.00 571.00 
C 660.24 588.25 668.96 604.66 675.00 622.00
C 662.88 623.09 662.83 607.34 658.07 598.93 C 653.32 590.51 649.96 579.87 646.00 571.00
C 648.67 571.00 651.33 571.00 654.00 571.00
M 687.00 571.00 
C 693.24 588.25 701.96 604.65 708.00 622.00
C 695.88 623.09 695.83 607.34 691.07 598.93 C 686.32 590.51 682.96 579.87 679.00 571.00
C 681.67 571.00 684.33 571.00 687.00 571.00
M 720.00 571.00 
C 726.24 588.25 734.96 604.66 741.00 622.00
C 728.88 623.09 728.83 607.34 724.07 598.93 C 719.32 590.51 715.96 579.87 712.00 571.00
C 714.67 571.00 717.33 571.00 720.00 571.00
M 775.00 571.00 
C 770.78 579.74 767.77 590.64 763.08 599.08 C 758.38 607.51 757.89 622.98 746.00 622.00
C 752.03 604.68 760.75 588.27 767.00 571.00
C 769.67 571.00 772.33 571.00 775.00 571.00
M 789.00 571.00 
C 795.24 588.25 803.96 604.66 810.00 622.00
C 797.88 623.09 797.83 607.34 793.07 598.93 C 788.32 590.51 784.96 579.87 781.00 571.00
C 783.67 571.00 786.33 571.00 789.00 571.00
M 814.00 571.00 
C 820.24 588.25 828.96 604.66 835.00 622.00
C 822.88 623.09 822.83 607.34 818.07 598.93 C 813.32 590.51 809.96 579.87 806.00 571.00
C 808.67 571.00 811.33 571.00 814.00 571.00
M 148.00 617.00 
C 148.43 629.12 132.10 623.00 122.00 624.00 C 111.90 625.00 98.69 623.48 88.00 624.00 C 77.31 624.52 64.85 623.61 54.00 624.00
C 53.57 611.88 69.90 618.00 80.00 617.00 C 90.10 616.00 103.31 617.52 114.00 617.00 C 124.69 616.48 137.15 617.39 148.00 617.00
M 247.00 617.00 
C 249.35 625.00 242.85 624.27 237.00 624.00 C 231.15 623.73 224.89 624.20 219.00 624.00
C 216.65 616.00 223.15 616.73 229.00 617.00 C 234.85 617.27 241.11 616.80 247.00 617.00 Z"/>
</g>
<g fill="None" fill-opacity="0.0" stroke="#000000" stroke-opacity="0.00" stroke-width="0.3"><path d="
M 861.00 37.00 
L 861.00 0.00
L 822.00 0.00
C 839.81 4.00 856.58 18.90 861.00 37.00 Z"/>
</g>
<g fill="None" fill-opacity="0.0" stroke="#FFFFFF" stroke-opacity="1.00" stroke-width="0.3"><path d="
M 511.00 221.00 
C 508.33 221.00 505.67 221.00 503.00 221.00
C 496.75 238.27 488.03 254.68 482.00 272.00
C 493.89 272.98 494.38 257.51 499.08 249.08 C 503.77 240.64 506.78 229.74 511.00 221.00 Z"/>
</g>
<g fill="None" fill-opacity="0.0" stroke="#FFFFFF" stroke-opacity="1.00" stroke-width="0.3"><path d="
M 522.00 221.00 
C 519.33 221.00 516.67 221.00 514.00 221.00
C 517.96 229.87 521.32 240.51 526.07 248.93 C 530.83 257.34 530.88 273.09 543.00 272.00
C 536.96 254.66 528.24 238.25 522.00 221.00 Z"/>
</g>
<g fill="None" fill-opacity="0.0" stroke="#FFFFFF" stroke-opacity="1.00" stroke-width="0.3"><path d="
M 477.00 267.00 
C 471.11 266.80 464.85 267.27 459.00 267.00 C 453.15 266.73 446.65 266.00 449.00 274.00
C 454.89 274.20 461.14 273.73 467.00 274.00 C 472.86 274.27 479.35 275.00 477.00 267.00 Z"/>
</g>
<g fill="None" fill-opacity="0.0" stroke="#FFFFFF" stroke-opacity="1.00" stroke-width="0.3"><path d="
M 609.00 267.00 
C 598.74 267.98 584.90 265.69 575.00 267.00 C 565.10 268.31 547.45 261.57 548.00 274.00
C 558.26 273.02 572.10 275.31 582.00 274.00 C 591.90 272.69 609.55 279.43 609.00 267.00 Z"/>
</g>
<g fill="None" fill-opacity="0.0" stroke="#FFFFFF" stroke-opacity="1.00" stroke-width="0.3"><path d="
M 446.00 291.00 
C 443.33 291.00 440.67 291.00 438.00 291.00
C 435.40 298.27 434.14 306.95 425.00 306.00 C 415.86 305.05 406.85 306.19 398.00 306.00 C 389.15 305.81 378.39 305.62 370.00 306.00 C 361.61 306.38 348.33 302.01 350.00 313.00
C 376.33 313.00 402.67 313.00 429.00 313.00
C 427.64 315.55 426.52 318.20 426.00 321.00
C 417.04 321.26 406.84 320.65 398.00 321.00 C 389.16 321.35 378.38 320.33 370.00 321.00 C 361.62 321.67 348.32 316.79 350.00 328.00
C 374.00 328.00 398.00 328.00 422.00 328.00
C 421.26 333.00 417.73 337.03 417.00 342.00
C 428.89 342.98 429.38 327.51 434.08 319.08 C 438.77 310.64 441.78 299.74 446.00 291.00 Z"/>
</g>
<g fill="None" fill-opacity="0.0" stroke="#FFFFFF" stroke-opacity="1.00" stroke-width="0.3"><path d="
M 591.00 291.00 
C 588.33 291.00 585.67 291.00 583.00 291.00
C 586.96 299.87 590.32 310.51 595.07 318.93 C 599.83 327.34 599.88 343.09 612.00 342.00
C 605.96 324.66 597.24 308.25 591.00 291.00 Z"/>
</g>
<g fill="None" fill-opacity="0.0" stroke="#FFFFFF" stroke-opacity="1.00" stroke-width="0.3"><path d="
M 616.00 291.00 
C 613.33 291.00 610.67 291.00 608.00 291.00
C 611.96 299.87 615.32 310.51 620.07 318.93 C 624.83 327.34 624.87 343.09 637.00 342.00
C 630.96 324.66 622.24 308.25 616.00 291.00 Z"/>
</g>
<g fill="None" fill-opacity="0.0" stroke="#FFFFFF" stroke-opacity="1.00" stroke-width="0.3"><path d="
M 279.00 313.00 
C 271.69 315.01 254.50 307.54 257.00 320.00
C 264.31 317.99 281.50 325.46 279.00 313.00 Z"/>
</g>
<g fill="None" fill-opacity="0.0" stroke="#FFFFFF" stroke-opacity="1.00" stroke-width="0.3"><path d="
M 311.00 313.00 
C 303.47 315.15 285.65 307.33 288.00 320.00
C 295.53 317.85 313.35 325.67 311.00 313.00 Z"/>
</g>
<g fill="None" fill-opacity="0.0" stroke="#FFFFFF" stroke-opacity="1.00" stroke-width="0.3"><path d="
M 343.00 313.00 
C 335.47 315.15 317.65 307.33 320.00 320.00
C 327.53 317.85 345.35 325.67 343.00 313.00 Z"/>
</g>
<g fill="None" fill-opacity="0.0" stroke="#FFFFFF" stroke-opacity="1.00" stroke-width="0.3"><path d="
M 435.00 358.00 
C 432.33 358.00 429.67 358.00 427.00 358.00
C 427.86 368.01 425.85 381.32 427.00 391.00 C 428.15 400.68 421.62 417.97 435.00 416.00
C 435.00 396.67 435.00 377.33 435.00 358.00 Z"/>
</g>
<g fill="None" fill-opacity="0.0" stroke="#FFFFFF" stroke-opacity="1.00" stroke-width="0.3"><path d="
M 665.00 358.00 
C 662.33 358.00 659.67 358.00 657.00 358.00
C 657.86 368.01 655.85 381.32 657.00 391.00 C 658.15 400.68 651.62 417.97 665.00 416.00
C 665.00 396.67 665.00 377.33 665.00 358.00 Z"/>
</g>
<g fill="None" fill-opacity="0.0" stroke="#FFFFFF" stroke-opacity="1.00" stroke-width="0.3"><path d="
M 621.00 361.00 
C 618.33 361.00 615.67 361.00 613.00 361.00
C 616.96 369.87 620.32 380.51 625.07 388.93 C 629.83 397.34 629.88 413.09 642.00 412.00
C 635.96 394.65 627.24 378.25 621.00 361.00 Z"/>
</g>
<g fill="None" fill-opacity="0.0" stroke="#FFFFFF" stroke-opacity="1.00" stroke-width="0.3"><path d="
M 687.00 361.00 
C 684.33 361.00 681.67 361.00 679.00 361.00
C 682.96 369.87 686.32 380.51 691.07 388.93 C 695.83 397.34 695.88 413.09 708.00 412.00
C 701.96 394.65 693.24 378.25 687.00 361.00 Z"/>
</g>
<g fill="None" fill-opacity="0.0" stroke="#FFFFFF" stroke-opacity="1.00" stroke-width="0.3"><path d="
M 465.00 397.00 
C 458.40 394.96 455.47 405.04 461.77 407.21 C 468.07 409.38 470.37 398.66 465.00 397.00 Z"/>
</g>
<g fill="None" fill-opacity="0.0" stroke="#A15BE3" stroke-opacity="1.00" stroke-width="0.3"><path d="
M 148.00 407.00 
C 137.15 407.39 124.69 406.48 114.00 407.00 C 103.31 407.52 90.10 406.00 80.00 407.00 C 69.90 408.00 53.57 401.88 54.00 414.00
C 64.85 413.61 77.31 414.52 88.00 414.00 C 98.69 413.48 111.90 415.00 122.00 414.00 C 132.10 413.00 148.43 419.12 148.00 407.00 Z"/>
</g>
<g fill="None" fill-opacity="0.0" stroke="#A15BE3" stroke-opacity="1.00" stroke-width="0.3"><path d="
M 313.00 407.00 
C 302.15 407.39 289.69 406.48 279.00 407.00 C 268.31 407.52 255.10 406.00 245.00 407.00 C 234.90 408.00 218.57 401.88 219.00 414.00
C 229.85 413.61 242.31 414.52 253.00 414.00 C 263.69 413.48 276.90 415.00 287.00 414.00 C 297.10 413.00 313.43 419.12 313.00 407.00 Z"/>
</g>
<g fill="None" fill-opacity="0.0" stroke="#A15BE3" stroke-opacity="1.00" stroke-width="0.3"><path d="
M 39.00 428.00 
C 36.33 428.00 33.67 428.00 31.00 428.00
C 31.86 438.01 29.85 451.32 31.00 461.00 C 32.15 470.68 25.62 487.97 39.00 486.00
C 39.00 466.67 39.00 447.33 39.00 428.00 Z"/>
</g>
<g fill="None" fill-opacity="0.0" stroke="#A15BE3" stroke-opacity="1.00" stroke-width="0.3"><path d="
M 175.00 428.00 
C 172.33 428.00 169.67 428.00 167.00 428.00
C 167.86 438.01 165.85 451.32 167.00 461.00 C 168.15 470.68 161.62 487.97 175.00 486.00
C 175.00 466.67 175.00 447.33 175.00 428.00 Z"/>
</g>
<g fill="None" fill-opacity="0.0" stroke="#A15BE3" stroke-opacity="1.00" stroke-width="0.3"><path d="
M 201.00 428.00 
C 198.33 428.00 195.67 428.00 193.00 428.00
C 193.86 438.01 191.85 451.32 193.00 461.00 C 194.15 470.68 187.62 487.97 201.00 486.00
C 201.00 466.67 201.00 447.33 201.00 428.00 Z"/>
</g>
<g fill="None" fill-opacity="0.0" stroke="#A15BE3" stroke-opacity="1.00" stroke-width="0.3"><path d="
M 336.00 428.00 
C 333.33 428.00 330.67 428.00 328.00 428.00
C 328.86 438.01 326.85 451.32 328.00 461.00 C 329.15 470.68 322.62 487.97 336.00 486.00
C 336.00 466.67 336.00 447.33 336.00 428.00 Z"/>
</g>
<g fill="None" fill-opacity="0.0" stroke="#FFFFFF" stroke-opacity="1.00" stroke-width="0.3"><path d="
M 435.00 428.00 
C 432.33 428.00 429.67 428.00 427.00 428.00
C 427.86 438.01 425.86 451.32 427.00 461.00 C 428.15 470.68 421.62 487.97 435.00 486.00
C 435.00 466.67 435.00 447.33 435.00 428.00 Z"/>
</g>
<g fill="None" fill-opacity="0.0" stroke="#FFFFFF" stroke-opacity="1.00" stroke-width="0.3"><path d="
M 517.00 483.00 
C 546.74 484.63 546.73 429.16 517.00 431.00
C 514.63 440.54 526.87 437.81 529.22 445.78 C 531.57 453.74 531.65 461.01 528.77 468.77 C 525.89 476.53 514.46 473.35 517.00 483.00 Z"/>
</g>
<g fill="None" fill-opacity="0.0" stroke="#FFFFFF" stroke-opacity="1.00" stroke-width="0.3"><path d="
M 654.00 431.00 
C 651.33 431.00 648.67 431.00 646.00 431.00
C 649.96 439.87 653.32 450.51 658.07 458.93 C 662.83 467.34 662.88 483.09 675.00 482.00
C 668.96 464.65 660.24 448.25 654.00 431.00 Z"/>
</g>
<g fill="None" fill-opacity="0.0" stroke="#FFFFFF" stroke-opacity="1.00" stroke-width="0.3"><path d="
M 687.00 431.00 
C 684.33 431.00 681.67 431.00 679.00 431.00
C 682.96 439.87 686.32 450.51 691.07 458.93 C 695.83 467.34 695.88 483.09 708.00 482.00
C 701.96 464.66 693.24 448.25 687.00 431.00 Z"/>
</g>
<g fill="None" fill-opacity="0.0" stroke="#FFFFFF" stroke-opacity="1.00" stroke-width="0.3"><path d="
M 720.00 431.00 
C 717.33 431.00 714.67 431.00 712.00 431.00
C 715.95 439.87 719.32 450.51 724.07 458.93 C 728.83 467.34 728.88 483.09 741.00 482.00
C 734.96 464.66 726.24 448.25 720.00 431.00 Z"/>
</g>
<g fill="None" fill-opacity="0.0" stroke="#A15BE3" stroke-opacity="1.00" stroke-width="0.3"><path d="
M 148.00 477.00 
C 137.74 477.98 123.90 475.69 114.00 477.00 C 104.10 478.31 86.45 471.57 87.00 484.00
C 97.26 483.02 111.10 485.31 121.00 484.00 C 130.90 482.69 148.55 489.43 148.00 477.00 Z"/>
</g>
<g fill="None" fill-opacity="0.0" stroke="#A15BE3" stroke-opacity="1.00" stroke-width="0.3"><path d="
M 313.00 477.00 
C 302.74 477.98 288.90 475.69 279.00 477.00 C 269.10 478.31 251.45 471.57 252.00 484.00
C 262.26 483.02 276.10 485.31 286.00 484.00 C 295.90 482.69 313.55 489.43 313.00 477.00 Z"/>
</g>
<g fill="None" fill-opacity="0.0" stroke="#A15BE3" stroke-opacity="1.00" stroke-width="0.3"><path d="
M 39.00 498.00 
C 36.33 498.00 33.67 498.00 31.00 498.00
C 31.86 508.01 29.85 521.32 31.00 531.00 C 32.15 540.68 25.62 557.97 39.00 556.00
C 39.00 536.67 39.00 517.33 39.00 498.00 Z"/>
</g>
<g fill="None" fill-opacity="0.0" stroke="#A15BE3" stroke-opacity="1.00" stroke-width="0.3"><path d="
M 138.00 498.00 
C 135.33 498.00 132.67 498.00 130.00 498.00
C 130.86 508.01 128.85 521.32 130.00 531.00 C 131.15 540.68 124.62 557.97 138.00 556.00
C 138.00 536.67 138.00 517.33 138.00 498.00 Z"/>
</g>
<g fill="None" fill-opacity="0.0" stroke="#A15BE3" stroke-opacity="1.00" stroke-width="0.3"><path d="
M 204.00 498.00 
C 201.33 498.00 198.67 498.00 196.00 498.00
C 196.86 508.01 194.85 521.32 196.00 531.00 C 197.15 540.68 190.62 557.97 204.00 556.00
C 204.00 536.67 204.00 517.33 204.00 498.00 Z"/>
</g>
<g fill="None" fill-opacity="0.0" stroke="#A15BE3" stroke-opacity="1.00" stroke-width="0.3"><path d="
M 303.00 498.00 
C 300.33 498.00 297.67 498.00 295.00 498.00
C 295.86 508.01 293.85 521.32 295.00 531.00 C 296.15 540.68 289.62 557.97 303.00 556.00
C 303.00 536.67 303.00 517.33 303.00 498.00 Z"/>
</g>
<g fill="None" fill-opacity="0.0" stroke="#FFFFFF" stroke-opacity="1.00" stroke-width="0.3"><path d="
M 566.00 498.00 
C 563.33 498.00 560.67 498.00 558.00 498.00
C 558.86 508.01 556.85 521.32 558.00 531.00 C 559.15 540.68 552.62 557.97 566.00 556.00
C 566.00 536.67 566.00 517.33 566.00 498.00 Z"/>
</g>
<g fill="None" fill-opacity="0.0" stroke="#FFFFFF" stroke-opacity="1.00" stroke-width="0.3"><path d="
M 731.00 498.00 
C 728.33 498.00 725.67 498.00 723.00 498.00
C 723.86 508.01 721.85 521.32 723.00 531.00 C 724.15 540.68 717.62 557.97 731.00 556.00
C 731.00 536.67 731.00 517.33 731.00 498.00 Z"/>
</g>
<g fill="None" fill-opacity="0.0" stroke="#FFFFFF" stroke-opacity="1.00" stroke-width="0.3"><path d="
M 424.00 501.00 
C 421.33 501.00 418.67 501.00 416.00 501.00
C 419.96 509.87 423.32 520.51 428.07 528.93 C 432.83 537.34 432.87 553.09 445.00 552.00
C 438.96 534.66 430.24 518.25 424.00 501.00 Z"/>
</g>
<g fill="None" fill-opacity="0.0" stroke="#FFFFFF" stroke-opacity="1.00" stroke-width="0.3"><path d="
M 511.00 501.00 
C 508.33 501.00 505.67 501.00 503.00 501.00
C 496.75 518.27 488.03 534.68 482.00 552.00
C 493.89 552.98 494.38 537.51 499.08 529.08 C 503.77 520.64 506.78 509.74 511.00 501.00 Z"/>
</g>
<g fill="None" fill-opacity="0.0" stroke="#FFFFFF" stroke-opacity="1.00" stroke-width="0.3"><path d="
M 682.00 501.00 
C 679.33 501.00 676.67 501.00 674.00 501.00
C 667.75 518.27 659.03 534.68 653.00 552.00
C 664.89 552.98 665.38 537.51 670.08 529.08 C 674.77 520.64 677.78 509.74 682.00 501.00 Z"/>
</g>
<g fill="None" fill-opacity="0.0" stroke="#FFFFFF" stroke-opacity="1.00" stroke-width="0.3"><path d="
M 707.00 501.00 
C 704.33 501.00 701.67 501.00 699.00 501.00
C 692.75 518.27 684.03 534.68 678.00 552.00
C 689.89 552.98 690.38 537.51 695.08 529.08 C 699.77 520.64 702.78 509.74 707.00 501.00 Z"/>
</g>
<g fill="None" fill-opacity="0.0" stroke="#FFFFFF" stroke-opacity="1.00" stroke-width="0.3"><path d="
M 756.00 501.00 
C 753.33 501.00 750.67 501.00 748.00 501.00
C 751.96 509.87 755.32 520.51 760.07 528.93 C 764.83 537.34 764.88 553.09 777.00 552.00
C 770.96 534.65 762.24 518.25 756.00 501.00 Z"/>
</g>
<g fill="None" fill-opacity="0.0" stroke="#FFFFFF" stroke-opacity="1.00" stroke-width="0.3"><path d="
M 781.00 501.00 
C 778.33 501.00 775.67 501.00 773.00 501.00
C 776.96 509.87 780.32 520.51 785.07 528.93 C 789.83 537.34 789.87 553.09 802.00 552.00
C 795.96 534.65 787.24 518.25 781.00 501.00 Z"/>
</g>
<g fill="None" fill-opacity="0.0" stroke="#A15BE4" stroke-opacity="1.00" stroke-width="0.3"><path d="
M 115.00 547.00 
C 109.11 546.80 102.85 547.27 97.00 547.00 C 91.15 546.73 84.65 546.00 87.00 554.00
C 92.89 554.20 99.15 553.73 105.00 554.00 C 110.85 554.27 117.35 555.00 115.00 547.00 Z"/>
</g>
<g fill="None" fill-opacity="0.0" stroke="#A15BE4" stroke-opacity="1.00" stroke-width="0.3"><path d="
M 280.00 547.00 
C 274.11 546.80 267.85 547.27 262.00 547.00 C 256.15 546.73 249.65 546.00 252.00 554.00
C 257.89 554.20 264.15 553.73 270.00 554.00 C 275.85 554.27 282.35 555.00 280.00 547.00 Z"/>
</g>
<g fill="None" fill-opacity="0.0" stroke="#FFFFFF" stroke-opacity="1.00" stroke-width="0.3"><path d="
M 477.00 547.00 
C 471.11 546.80 464.85 547.27 459.00 547.00 C 453.15 546.73 446.65 546.00 449.00 554.00
C 454.89 554.20 461.14 553.73 467.00 554.00 C 472.86 554.27 479.35 555.00 477.00 547.00 Z"/>
</g>
<g fill="None" fill-opacity="0.0" stroke="#A15BE3" stroke-opacity="1.00" stroke-width="0.3"><path d="
M 39.00 568.00 
C 36.33 568.00 33.67 568.00 31.00 568.00
C 31.86 578.01 29.85 591.32 31.00 601.00 C 32.15 610.68 25.62 627.97 39.00 626.00
C 39.00 606.67 39.00 587.33 39.00 568.00 Z"/>
</g>
<g fill="None" fill-opacity="0.0" stroke="#A15BE3" stroke-opacity="1.00" stroke-width="0.3"><path d="
M 175.00 568.00 
C 172.33 568.00 169.67 568.00 167.00 568.00
C 167.86 578.01 165.85 591.32 167.00 601.00 C 168.15 610.68 161.62 627.97 175.00 626.00
C 175.00 606.67 175.00 587.33 175.00 568.00 Z"/>
</g>
<g fill="None" fill-opacity="0.0" stroke="#A15BE3" stroke-opacity="1.00" stroke-width="0.3"><path d="
M 201.00 568.00 
C 198.33 568.00 195.67 568.00 193.00 568.00
C 193.86 578.01 191.85 591.32 193.00 601.00 C 194.15 610.68 187.62 627.97 201.00 626.00
C 201.00 606.67 201.00 587.33 201.00 568.00 Z"/>
</g>
<g fill="None" fill-opacity="0.0" stroke="#A15BE3" stroke-opacity="1.00" stroke-width="0.3"><path d="
M 270.00 568.00 
C 267.33 568.00 264.67 568.00 262.00 568.00
C 262.86 578.01 260.85 591.32 262.00 601.00 C 263.15 610.68 256.62 627.97 270.00 626.00
C 270.00 606.67 270.00 587.33 270.00 568.00 Z"/>
</g>
<g fill="None" fill-opacity="0.0" stroke="#FFFFFF" stroke-opacity="1.00" stroke-width="0.3"><path d="
M 544.00 571.00 
C 541.33 571.00 538.67 571.00 536.00 571.00
C 529.75 588.27 521.03 604.68 515.00 622.00
C 526.89 622.98 527.38 607.51 532.08 599.08 C 536.77 590.64 539.78 579.74 544.00 571.00 Z"/>
</g>
<g fill="None" fill-opacity="0.0" stroke="#FFFFFF" stroke-opacity="1.00" stroke-width="0.3"><path d="
M 654.00 571.00 
C 651.33 571.00 648.67 571.00 646.00 571.00
C 649.96 579.87 653.32 590.51 658.07 598.93 C 662.83 607.34 662.88 623.09 675.00 622.00
C 668.96 604.66 660.24 588.25 654.00 571.00 Z"/>
</g>
<g fill="None" fill-opacity="0.0" stroke="#FFFFFF" stroke-opacity="1.00" stroke-width="0.3"><path d="
M 687.00 571.00 
C 684.33 571.00 681.67 571.00 679.00 571.00
C 682.96 579.87 686.32 590.51 691.07 598.93 C 695.83 607.34 695.88 623.09 708.00 622.00
C 701.96 604.65 693.24 588.25 687.00 571.00 Z"/>
</g>
<g fill="None" fill-opacity="0.0" stroke="#FFFFFF" stroke-opacity="1.00" stroke-width="0.3"><path d="
M 720.00 571.00 
C 717.33 571.00 714.67 571.00 712.00 571.00
C 715.96 579.87 719.32 590.51 724.07 598.93 C 728.83 607.34 728.88 623.09 741.00 622.00
C 734.96 604.66 726.24 588.25 720.00 571.00 Z"/>
</g>
<g fill="None" fill-opacity="0.0" stroke="#FFFFFF" stroke-opacity="1.00" stroke-width="0.3"><path d="
M 775.00 571.00 
C 772.33 571.00 769.67 571.00 767.00 571.00
C 760.75 588.27 752.03 604.68 746.00 622.00
C 757.89 622.98 758.38 607.51 763.08 599.08 C 767.77 590.64 770.78 579.74 775.00 571.00 Z"/>
</g>
<g fill="None" fill-opacity="0.0" stroke="#FFFFFF" stroke-opacity="1.00" stroke-width="0.3"><path d="
M 789.00 571.00 
C 786.33 571.00 783.67 571.00 781.00 571.00
C 784.96 579.87 788.32 590.51 793.07 598.93 C 797.83 607.34 797.88 623.09 810.00 622.00
C 803.96 604.66 795.24 588.25 789.00 571.00 Z"/>
</g>
<g fill="None" fill-opacity="0.0" stroke="#FFFFFF" stroke-opacity="1.00" stroke-width="0.3"><path d="
M 814.00 571.00 
C 811.33 571.00 808.67 571.00 806.00 571.00
C 809.96 579.87 813.32 590.51 818.07 598.93 C 822.83 607.34 822.88 623.09 835.00 622.00
C 828.96 604.66 820.24 588.25 814.00 571.00 Z"/>
</g>
<g fill="None" fill-opacity="0.0" stroke="#A15BE3" stroke-opacity="1.00" stroke-width="0.3"><path d="
M 148.00 617.00 
C 137.15 617.39 124.69 616.48 114.00 617.00 C 103.31 617.52 90.10 616.00 80.00 617.00 C 69.90 618.00 53.57 611.88 54.00 624.00
C 64.85 623.61 77.31 624.52 88.00 624.00 C 98.69 623.48 111.90 625.00 122.00 624.00 C 132.10 623.00 148.43 629.12 148.00 617.00 Z"/>
</g>
<g fill="None" fill-opacity="0.0" stroke="#A15BE4" stroke-opacity="1.00" stroke-width="0.3"><path d="
M 247.00 617.00 
C 241.11 616.80 234.85 617.27 229.00 617.00 C 223.15 616.73 216.65 616.00 219.00 624.00
C 224.89 624.20 231.15 623.73 237.00 624.00 C 242.85 624.27 249.35 625.00 247.00 617.00 Z"/>
</g>
<g fill="None" fill-opacity="0.0" stroke="#000000" stroke-opacity="0.00" stroke-width="0.3"><path d="
M 0.00 861.00 
L 37.00 861.00
C 18.98 856.60 4.08 839.83 0.00 822.00
L 0.00 861.00 Z"/>
</g>
<g fill="None" fill-opacity="0.0" stroke="#000000" stroke-opacity="0.00" stroke-width="0.3"><path d="
M 826.00 861.00 
L 861.00 861.00
L 861.00 826.00
C 856.09 842.00 842.08 856.07 826.00 861.00 Z"/>
</g>
<g fill="#000000" fill-opacity="0.00" stroke="None">
<path d="
M 0.00 41.00 
C 3.45 21.08 21.16 3.44 41.00 0.00
L 0.00 0.00
L 0.00 41.00 Z"/>
</g>
<g fill="#232837" fill-opacity="1.00" stroke="None">
<path d="
M 0.00 41.00 
L 0.00 822.00
C 4.08 839.83 18.98 856.60 37.00 861.00
L 826.00 861.00
C 842.08 856.07 856.09 842.00 861.00 826.00
L 861.00 37.00
C 856.58 18.90 839.81 4.00 822.00 0.00
L 41.00 0.00
C 21.16 3.44 3.45 21.08 0.00 41.00
M 511.00 221.00 
C 506.78 229.74 503.77 240.64 499.08 249.08 C 494.38 257.51 493.89 272.98 482.00 272.00
C 488.03 254.68 496.75 238.27 503.00 221.00
C 505.67 221.00 508.33 221.00 511.00 221.00
M 522.00 221.00 
C 528.24 238.25 536.96 254.66 543.00 272.00
C 530.88 273.09 530.83 257.34 526.07 248.93 C 521.32 240.51 517.96 229.87 514.00 221.00
C 516.67 221.00 519.33 221.00 522.00 221.00
M 477.00 267.00 
C 479.35 275.00 472.86 274.27 467.00 274.00 C 461.14 273.73 454.89 274.20 449.00 274.00
C 446.65 266.00 453.15 266.73 459.00 267.00 C 464.85 267.27 471.11 266.80 477.00 267.00
M 609.00 267.00 
C 609.55 279.43 591.90 272.69 582.00 274.00 C 572.10 275.31 558.26 273.02 548.00 274.00
C 547.45 261.57 565.10 268.31 575.00 267.00 C 584.90 265.69 598.74 267.98 609.00 267.00
M 446.00 291.00 
C 441.78 299.74 438.77 310.64 434.08 319.08 C 429.38 327.51 428.89 342.98 417.00 342.00
C 417.73 337.03 421.26 333.00 422.00 328.00
C 398.00 328.00 374.00 328.00 350.00 328.00
C 348.32 316.79 361.62 321.67 370.00 321.00 C 378.38 320.33 389.16 321.35 398.00 321.00 C 406.84 320.65 417.04 321.26 426.00 321.00
C 426.52 318.20 427.64 315.55 429.00 313.00
C 402.67 313.00 376.33 313.00 350.00 313.00
C 348.33 302.01 361.61 306.38 370.00 306.00 C 378.39 305.62 389.15 305.81 398.00 306.00 C 406.85 306.19 415.86 305.05 425.00 306.00 C 434.14 306.95 435.40 298.27 438.00 291.00
C 440.67 291.00 443.33 291.00 446.00 291.00
M 591.00 291.00 
C 597.24 308.25 605.96 324.66 612.00 342.00
C 599.88 343.09 599.83 327.34 595.07 318.93 C 590.32 310.51 586.96 299.87 583.00 291.00
C 585.67 291.00 588.33 291.00 591.00 291.00
M 616.00 291.00 
C 622.24 308.25 630.96 324.66 637.00 342.00
C 624.87 343.09 624.83 327.34 620.07 318.93 C 615.32 310.51 611.96 299.87 608.00 291.00
C 610.67 291.00 613.33 291.00 616.00 291.00
M 279.00 313.00 
C 281.50 325.46 264.31 317.99 257.00 320.00
C 254.50 307.54 271.69 315.01 279.00 313.00
M 311.00 313.00 
C 313.35 325.67 295.53 317.85 288.00 320.00
C 285.65 307.33 303.47 315.15 311.00 313.00
M 343.00 313.00 
C 345.35 325.67 327.53 317.85 320.00 320.00
C 317.65 307.33 335.47 315.15 343.00 313.00
M 435.00 358.00 
C 435.00 377.33 435.00 396.67 435.00 416.00
C 421.62 417.97 428.15 400.68 427.00 391.00 C 425.85 381.32 427.86 368.01 427.00 358.00
C 429.67 358.00 432.33 358.00 435.00 358.00
M 665.00 358.00 
C 665.00 377.33 665.00 396.67 665.00 416.00
C 651.62 417.97 658.15 400.68 657.00 391.00 C 655.85 381.32 657.86 368.01 657.00 358.00
C 659.67 358.00 662.33 358.00 665.00 358.00
M 621.00 361.00 
C 627.24 378.25 635.96 394.65 642.00 412.00
C 629.88 413.09 629.83 397.34 625.07 388.93 C 620.32 380.51 616.96 369.87 613.00 361.00
C 615.67 361.00 618.33 361.00 621.00 361.00
M 687.00 361.00 
C 693.24 378.25 701.96 394.65 708.00 412.00
C 695.88 413.09 695.83 397.34 691.07 388.93 C 686.32 380.51 682.96 369.87 679.00 361.00
C 681.67 361.00 684.33 361.00 687.00 361.00
M 465.00 397.00 
C 470.37 398.66 468.07 409.38 461.77 407.21 C 455.47 405.04 458.40 394.96 465.00 397.00
M 148.00 407.00 
C 148.43 419.12 132.10 413.00 122.00 414.00 C 111.90 415.00 98.69 413.48 88.00 414.00 C 77.31 414.52 64.85 413.61 54.00 414.00
C 53.57 401.88 69.90 408.00 80.00 407.00 C 90.10 406.00 103.31 407.52 114.00 407.00 C 124.69 406.48 137.15 407.39 148.00 407.00
M 313.00 407.00 
C 313.43 419.12 297.10 413.00 287.00 414.00 C 276.90 415.00 263.69 413.48 253.00 414.00 C 242.31 414.52 229.85 413.61 219.00 414.00
C 218.57 401.88 234.90 408.00 245.00 407.00 C 255.10 406.00 268.31 407.52 279.00 407.00 C 289.69 406.48 302.15 407.39 313.00 407.00
M 39.00 428.00 
C 39.00 447.33 39.00 466.67 39.00 486.00
C 25.62 487.97 32.15 470.68 31.00 461.00 C 29.85 451.32 31.86 438.01 31.00 428.00
C 33.67 428.00 36.33 428.00 39.00 428.00
M 175.00 428.00 
C 175.00 447.33 175.00 466.67 175.00 486.00
C 161.62 487.97 168.15 470.68 167.00 461.00 C 165.85 451.32 167.86 438.01 167.00 428.00
C 169.67 428.00 172.33 428.00 175.00 428.00
M 201.00 428.00 
C 201.00 447.33 201.00 466.67 201.00 486.00
C 187.62 487.97 194.15 470.68 193.00 461.00 C 191.85 451.32 193.86 438.01 193.00 428.00
C 195.67 428.00 198.33 428.00 201.00 428.00
M 336.00 428.00 
C 336.00 447.33 336.00 466.67 336.00 486.00
C 322.62 487.97 329.15 470.68 328.00 461.00 C 326.85 451.32 328.86 438.01 328.00 428.00
C 330.67 428.00 333.33 428.00 336.00 428.00
M 435.00 428.00 
C 435.00 447.33 435.00 466.67 435.00 486.00
C 421.62 487.97 428.15 470.68 427.00 461.00 C 425.86 451.32 427.86 438.01 427.00 428.00
C 429.67 428.00 432.33 428.00 435.00 428.00
M 517.00 483.00 
C 514.46 473.35 525.89 476.53 528.77 468.77 C 531.65 461.01 531.57 453.74 529.22 445.78 C 526.87 437.81 514.63 440.54 517.00 431.00
C 546.73 429.16 546.74 484.63 517.00 483.00
M 654.00 431.00 
C 660.24 448.25 668.96 464.65 675.00 482.00
C 662.88 483.09 662.83 467.34 658.07 458.93 C 653.32 450.51 649.96 439.87 646.00 431.00
C 648.67 431.00 651.33 431.00 654.00 431.00
M 687.00 431.00 
C 693.24 448.25 701.96 464.66 708.00 482.00
C 695.88 483.09 695.83 467.34 691.07 458.93 C 686.32 450.51 682.96 439.87 679.00 431.00
C 681.67 431.00 684.33 431.00 687.00 431.00
M 720.00 431.00 
C 726.24 448.25 734.96 464.66 741.00 482.00
C 728.88 483.09 728.83 467.34 724.07 458.93 C 719.32 450.51 715.95 439.87 712.00 431.00
C 714.67 431.00 717.33 431.00 720.00 431.00
M 148.00 477.00 
C 148.55 489.43 130.90 482.69 121.00 484.00 C 111.10 485.31 97.26 483.02 87.00 484.00
C 86.45 471.57 104.10 478.31 114.00 477.00 C 123.90 475.69 137.74 477.98 148.00 477.00
M 313.00 477.00 
C 313.55 489.43 295.90 482.69 286.00 484.00 C 276.10 485.31 262.26 483.02 252.00 484.00
C 251.45 471.57 269.10 478.31 279.00 477.00 C 288.90 475.69 302.74 477.98 313.00 477.00
M 39.00 498.00 
C 39.00 517.33 39.00 536.67 39.00 556.00
C 25.62 557.97 32.15 540.68 31.00 531.00 C 29.85 521.32 31.86 508.01 31.00 498.00
C 33.67 498.00 36.33 498.00 39.00 498.00
M 138.00 498.00 
C 138.00 517.33 138.00 536.67 138.00 556.00
C 124.62 557.97 131.15 540.68 130.00 531.00 C 128.85 521.32 130.86 508.01 130.00 498.00
C 132.67 498.00 135.33 498.00 138.00 498.00
M 204.00 498.00 
C 204.00 517.33 204.00 536.67 204.00 556.00
C 190.62 557.97 197.15 540.68 196.00 531.00 C 194.85 521.32 196.86 508.01 196.00 498.00
C 198.67 498.00 201.33 498.00 204.00 498.00
M 303.00 498.00 
C 303.00 517.33 303.00 536.67 303.00 556.00
C 289.62 557.97 296.15 540.68 295.00 531.00 C 293.85 521.32 295.86 508.01 295.00 498.00
C 297.67 498.00 300.33 498.00 303.00 498.00
M 566.00 498.00 
C 566.00 517.33 566.00 536.67 566.00 556.00
C 552.62 557.97 559.15 540.68 558.00 531.00 C 556.85 521.32 558.86 508.01 558.00 498.00
C 560.67 498.00 563.33 498.00 566.00 498.00
M 731.00 498.00 
C 731.00 517.33 731.00 536.67 731.00 556.00
C 717.62 557.97 724.15 540.68 723.00 531.00 C 721.85 521.32 723.86 508.01 723.00 498.00
C 725.67 498.00 728.33 498.00 731.00 498.00
M 424.00 501.00 
C 430.24 518.25 438.96 534.66 445.00 552.00
C 432.87 553.09 432.83 537.34 428.07 528.93 C 423.32 520.51 419.96 509.87 416.00 501.00
C 418.67 501.00 421.33 501.00 424.00 501.00
M 511.00 501.00 
C 506.78 509.74 503.77 520.64 499.08 529.08 C 494.38 537.51 493.89 552.98 482.00 552.00
C 488.03 534.68 496.75 518.27 503.00 501.00
C 505.67 501.00 508.33 501.00 511.00 501.00
M 682.00 501.00 
C 677.78 509.74 674.77 520.64 670.08 529.08 C 665.38 537.51 664.89 552.98 653.00 552.00
C 659.03 534.68 667.75 518.27 674.00 501.00
C 676.67 501.00 679.33 501.00 682.00 501.00
M 707.00 501.00 
C 702.78 509.74 699.77 520.64 695.08 529.08 C 690.38 537.51 689.89 552.98 678.00 552.00
C 684.03 534.68 692.75 518.27 699.00 501.00
C 701.67 501.00 704.33 501.00 707.00 501.00
M 756.00 501.00 
C 762.24 518.25 770.96 534.65 777.00 552.00
C 764.88 553.09 764.83 537.34 760.07 528.93 C 755.32 520.51 751.96 509.87 748.00 501.00
C 750.67 501.00 753.33 501.00 756.00 501.00
M 781.00 501.00 
C 787.24 518.25 795.96 534.65 802.00 552.00
C 789.87 553.09 789.83 537.34 785.07 528.93 C 780.32 520.51 776.96 509.87 773.00 501.00
C 775.67 501.00 778.33 501.00 781.00 501.00
M 115.00 547.00 
C 117.35 555.00 110.85 554.27 105.00 554.00 C 99.15 553.73 92.89 554.20 87.00 554.00
C 84.65 546.00 91.15 546.73 97.00 547.00 C 102.85 547.27 109.11 546.80 115.00 547.00
M 280.00 547.00 
C 282.35 555.00 275.85 554.27 270.00 554.00 C 264.15 553.73 257.89 554.20 252.00 554.00
C 249.65 546.00 256.15 546.73 262.00 547.00 C 267.85 547.27 274.11 546.80 280.00 547.00
M 477.00 547.00 
C 479.35 555.00 472.86 554.27 467.00 554.00 C 461.14 553.73 454.89 554.20 449.00 554.00
C 446.65 546.00 453.15 546.73 459.00 547.00 C 464.85 547.27 471.11 546.80 477.00 547.00
M 39.00 568.00 
C 39.00 587.33 39.00 606.67 39.00 626.00
C 25.62 627.97 32.15 610.68 31.00 601.00 C 29.85 591.32 31.86 578.01 31.00 568.00
C 33.67 568.00 36.33 568.00 39.00 568.00
M 175.00 568.00 
C 175.00 587.33 175.00 606.67 175.00 626.00
C 161.62 627.97 168.15 610.68 167.00 601.00 C 165.85 591.32 167.86 578.01 167.00 568.00
C 169.67 568.00 172.33 568.00 175.00 568.00
M 201.00 568.00 
C 201.00 587.33 201.00 606.67 201.00 626.00
C 187.62 627.97 194.15 610.68 193.00 601.00 C 191.85 591.32 193.86 578.01 193.00 568.00
C 195.67 568.00 198.33 568.00 201.00 568.00
M 270.00 568.00 
C 270.00 587.33 270.00 606.67 270.00 626.00
C 256.62 627.97 263.15 610.68 262.00 601.00 C 260.85 591.32 262.86 578.01 262.00 568.00
C 264.67 568.00 267.33 568.00 270.00 568.00
M 544.00 571.00 
C 539.78 579.74 536.77 590.64 532.08 599.08 C 527.38 607.51 526.89 622.98 515.00 622.00
C 521.03 604.68 529.75 588.27 536.00 571.00
C 538.67 571.00 541.33 571.00 544.00 571.00
M 654.00 571.00 
C 660.24 588.25 668.96 604.66 675.00 622.00
C 662.88 623.09 662.83 607.34 658.07 598.93 C 653.32 590.51 649.96 579.87 646.00 571.00
C 648.67 571.00 651.33 571.00 654.00 571.00
M 687.00 571.00 
C 693.24 588.25 701.96 604.65 708.00 622.00
C 695.88 623.09 695.83 607.34 691.07 598.93 C 686.32 590.51 682.96 579.87 679.00 571.00
C 681.67 571.00 684.33 571.00 687.00 571.00
M 720.00 571.00 
C 726.24 588.25 734.96 604.66 741.00 622.00
C 728.88 623.09 728.83 607.34 724.07 598.93 C 719.32 590.51 715.96 579.87 712.00 571.00
C 714.67 571.00 717.33 571.00 720.00 571.00
M 775.00 571.00 
C 770.78 579.74 767.77 590.64 763.08 599.08 C 758.38 607.51 757.89 622.98 746.00 622.00
C 752.03 604.68 760.75 588.27 767.00 571.00
C 769.67 571.00 772.33 571.00 775.00 571.00
M 789.00 571.00 
C 795.24 588.25 803.96 604.66 810.00 622.00
C 797.88 623.09 797.83 607.34 793.07 598.93 C 788.32 590.51 784.96 579.87 781.00 571.00
C 783.67 571.00 786.33 571.00 789.00 571.00
M 814.00 571.00 
C 820.24 588.25 828.96 604.66 835.00 622.00
C 822.88 623.09 822.83 607.34 818.07 598.93 C 813.32 590.51 809.96 579.87 806.00 571.00
C 808.67 571.00 811.33 571.00 814.00 571.00
M 148.00 617.00 
C 148.43 629.12 132.10 623.00 122.00 624.00 C 111.90 625.00 98.69 623.48 88.00 624.00 C 77.31 624.52 64.85 623.61 54.00 624.00
C 53.57 611.88 69.90 618.00 80.00 617.00 C 90.10 616.00 103.31 617.52 114.00 617.00 C 124.69 616.48 137.15 617.39 148.00 617.00
M 247.00 617.00 
C 249.35 625.00 242.85 624.27 237.00 624.00 C 231.15 623.73 224.89 624.20 219.00 624.00
C 216.65 616.00 223.15 616.73 229.00 617.00 C 234.85 617.27 241.11 616.80 247.00 617.00 Z"/>
</g>
<g fill="#000000" fill-opacity="0.00" stroke="None">
<path d="
M 861.00 37.00 
L 861.00 0.00
L 822.00 0.00
C 839.81 4.00 856.58 18.90 861.00 37.00 Z"/>
</g>
<g fill="#FFFFFF" fill-opacity="1.00" stroke="None">
<path d="
M 511.00 221.00 
C 508.33 221.00 505.67 221.00 503.00 221.00
C 496.75 238.27 488.03 254.68 482.00 272.00
C 493.89 272.98 494.38 257.51 499.08 249.08 C 503.77 240.64 506.78 229.74 511.00 221.00 Z"/>
</g>
<g fill="#FFFFFF" fill-opacity="1.00" stroke="None">
<path d="
M 522.00 221.00 
C 519.33 221.00 516.67 221.00 514.00 221.00
C 517.96 229.87 521.32 240.51 526.07 248.93 C 530.83 257.34 530.88 273.09 543.00 272.00
C 536.96 254.66 528.24 238.25 522.00 221.00 Z"/>
</g>
<g fill="#FFFFFF" fill-opacity="1.00" stroke="None">
<path d="
M 477.00 267.00 
C 471.11 266.80 464.85 267.27 459.00 267.00 C 453.15 266.73 446.65 266.00 449.00 274.00
C 454.89 274.20 461.14 273.73 467.00 274.00 C 472.86 274.27 479.35 275.00 477.00 267.00 Z"/>
</g>
<g fill="#FFFFFF" fill-opacity="1.00" stroke="None">
<path d="
M 609.00 267.00 
C 598.74 267.98 584.90 265.69 575.00 267.00 C 565.10 268.31 547.45 261.57 548.00 274.00
C 558.26 273.02 572.10 275.31 582.00 274.00 C 591.90 272.69 609.55 279.43 609.00 267.00 Z"/>
</g>
<g fill="#FFFFFF" fill-opacity="1.00" stroke="None">
<path d="
M 446.00 291.00 
C 443.33 291.00 440.67 291.00 438.00 291.00
C 435.40 298.27 434.14 306.95 425.00 306.00 C 415.86 305.05 406.85 306.19 398.00 306.00 C 389.15 305.81 378.39 305.62 370.00 306.00 C 361.61 306.38 348.33 302.01 350.00 313.00
C 376.33 313.00 402.67 313.00 429.00 313.00
C 427.64 315.55 426.52 318.20 426.00 321.00
C 417.04 321.26 406.84 320.65 398.00 321.00 C 389.16 321.35 378.38 320.33 370.00 321.00 C 361.62 321.67 348.32 316.79 350.00 328.00
C 374.00 328.00 398.00 328.00 422.00 328.00
C 421.26 333.00 417.73 337.03 417.00 342.00
C 428.89 342.98 429.38 327.51 434.08 319.08 C 438.77 310.64 441.78 299.74 446.00 291.00 Z"/>
</g>
<g fill="#FFFFFF" fill-opacity="1.00" stroke="None">
<path d="
M 591.00 291.00 
C 588.33 291.00 585.67 291.00 583.00 291.00
C 586.96 299.87 590.32 310.51 595.07 318.93 C 599.83 327.34 599.88 343.09 612.00 342.00
C 605.96 324.66 597.24 308.25 591.00 291.00 Z"/>
</g>
<g fill="#FFFFFF" fill-opacity="1.00" stroke="None">
<path d="
M 616.00 291.00 
C 613.33 291.00 610.67 291.00 608.00 291.00
C 611.96 299.87 615.32 310.51 620.07 318.93 C 624.83 327.34 624.87 343.09 637.00 342.00
C 630.96 324.66 622.24 308.25 616.00 291.00 Z"/>
</g>
<g fill="#FFFFFF" fill-opacity="1.00" stroke="None">
<path d="
M 279.00 313.00 
C 271.69 315.01 254.50 307.54 257.00 320.00
C 264.31 317.99 281.50 325.46 279.00 313.00 Z"/>
</g>
<g fill="#FFFFFF" fill-opacity="1.00" stroke="None">
<path d="
M 311.00 313.00 
C 303.47 315.15 285.65 307.33 288.00 320.00
C 295.53 317.85 313.35 325.67 311.00 313.00 Z"/>
</g>
<g fill="#FFFFFF" fill-opacity="1.00" stroke="None">
<path d="
M 343.00 313.00 
C 335.47 315.15 317.65 307.33 320.00 320.00
C 327.53 317.85 345.35 325.67 343.00 313.00 Z"/>
</g>
<g fill="#FFFFFF" fill-opacity="1.00" stroke="None">
<path d="
M 435.00 358.00 
C 432.33 358.00 429.67 358.00 427.00 358.00
C 427.86 368.01 425.85 381.32 427.00 391.00 C 428.15 400.68 421.62 417.97 435.00 416.00
C 435.00 396.67 435.00 377.33 435.00 358.00 Z"/>
</g>
<g fill="#FFFFFF" fill-opacity="1.00" stroke="None">
<path d="
M 665.00 358.00 
C 662.33 358.00 659.67 358.00 657.00 358.00
C 657.86 368.01 655.85 381.32 657.00 391.00 C 658.15 400.68 651.62 417.97 665.00 416.00
C 665.00 396.67 665.00 377.33 665.00 358.00 Z"/>
</g>
<g fill="#FFFFFF" fill-opacity="1.00" stroke="None">
<path d="
M 621.00 361.00 
C 618.33 361.00 615.67 361.00 613.00 361.00
C 616.96 369.87 620.32 380.51 625.07 388.93 C 629.83 397.34 629.88 413.09 642.00 412.00
C 635.96 394.65 627.24 378.25 621.00 361.00 Z"/>
</g>
<g fill="#FFFFFF" fill-opacity="1.00" stroke="None">
<path d="
M 687.00 361.00 
C 684.33 361.00 681.67 361.00 679.00 361.00
C 682.96 369.87 686.32 380.51 691.07 388.93 C 695.83 397.34 695.88 413.09 708.00 412.00
C 701.96 394.65 693.24 378.25 687.00 361.00 Z"/>
</g>
<g fill="#FFFFFF" fill-opacity="1.00" stroke="None">
<path d="
M 465.00 397.00 
C 458.40 394.96 455.47 405.04 461.77 407.21 C 468.07 409.38 470.37 398.66 465.00 397.00 Z"/>
</g>
<g fill="#A15BE3" fill-opacity="1.00" stroke="None">
<path d="
M 148.00 407.00 
C 137.15 407.39 124.69 406.48 114.00 407.00 C 103.31 407.52 90.10 406.00 80.00 407.00 C 69.90 408.00 53.57 401.88 54.00 414.00
C 64.85 413.61 77.31 414.52 88.00 414.00 C 98.69 413.48 111.90 415.00 122.00 414.00 C 132.10 413.00 148.43 419.12 148.00 407.00 Z"/>
</g>
<g fill="#A15BE3" fill-opacity="1.00" stroke="None">
<path d="
M 313.00 407.00 
C 302.15 407.39 289.69 406.48 279.00 407.00 C 268.31 407.52 255.10 406.00 245.00 407.00 C 234.90 408.00 218.57 401.88 219.00 414.00
C 229.85 413.61 242.31 414.52 253.00 414.00 C 263.69 413.48 276.90 415.00 287.00 414.00 C 297.10 413.00 313.43 419.12 313.00 407.00 Z"/>
</g>
<g fill="#A15BE3" fill-opacity="1.00" stroke="None">
<path d="
M 39.00 428.00 
C 36.33 428.00 33.67 428.00 31.00 428.00
C 31.86 438.01 29.85 451.32 31.00 461.00 C 32.15 470.68 25.62 487.97 39.00 486.00
C 39.00 466.67 39.00 447.33 39.00 428.00 Z"/>
</g>
<g fill="#A15BE3" fill-opacity="1.00" stroke="None">
<path d="
M 175.00 428.00 
C 172.33 428.00 169.67 428.00 167.00 428.00
C 167.86 438.01 165.85 451.32 167.00 461.00 C 168.15 470.68 161.62 487.97 175.00 486.00
C 175.00 466.67 175.00 447.33 175.00 428.00 Z"/>
</g>
<g fill="#A15BE3" fill-opacity="1.00" stroke="None">
<path d="
M 201.00 428.00 
C 198.33 428.00 195.67 428.00 193.00 428.00
C 193.86 438.01 191.85 451.32 193.00 461.00 C 194.15 470.68 187.62 487.97 201.00 486.00
C 201.00 466.67 201.00 447.33 201.00 428.00 Z"/>
</g>
<g fill="#A15BE3" fill-opacity="1.00" stroke="None">
<path d="
M 336.00 428.00 
C 333.33 428.00 330.67 428.00 328.00 428.00
C 328.86 438.01 326.85 451.32 328.00 461.00 C 329.15 470.68 322.62 487.97 336.00 486.00
C 336.00 466.67 336.00 447.33 336.00 428.00 Z"/>
</g>
<g fill="#FFFFFF" fill-opacity="1.00" stroke="None">
<path d="
M 435.00 428.00 
C 432.33 428.00 429.67 428.00 427.00 428.00
C 427.86 438.01 425.86 451.32 427.00 461.00 C 428.15 470.68 421.62 487.97 435.00 486.00
C 435.00 466.67 435.00 447.33 435.00 428.00 Z"/>
</g>
<g fill="#FFFFFF" fill-opacity="1.00" stroke="None">
<path d="
M 517.00 483.00 
C 546.74 484.63 546.73 429.16 517.00 431.00
C 514.63 440.54 526.87 437.81 529.22 445.78 C 531.57 453.74 531.65 461.01 528.77 468.77 C 525.89 476.53 514.46 473.35 517.00 483.00 Z"/>
</g>
<g fill="#FFFFFF" fill-opacity="1.00" stroke="None">
<path d="
M 654.00 431.00 
C 651.33 431.00 648.67 431.00 646.00 431.00
C 649.96 439.87 653.32 450.51 658.07 458.93 C 662.83 467.34 662.88 483.09 675.00 482.00
C 668.96 464.65 660.24 448.25 654.00 431.00 Z"/>
</g>
<g fill="#FFFFFF" fill-opacity="1.00" stroke="None">
<path d="
M 687.00 431.00 
C 684.33 431.00 681.67 431.00 679.00 431.00
C 682.96 439.87 686.32 450.51 691.07 458.93 C 695.83 467.34 695.88 483.09 708.00 482.00
C 701.96 464.66 693.24 448.25 687.00 431.00 Z"/>
</g>
<g fill="#FFFFFF" fill-opacity="1.00" stroke="None">
<path d="
M 720.00 431.00 
C 717.33 431.00 714.67 431.00 712.00 431.00
C 715.95 439.87 719.32 450.51 724.07 458.93 C 728.83 467.34 728.88 483.09 741.00 482.00
C 734.96 464.66 726.24 448.25 720.00 431.00 Z"/>
</g>
<g fill="#A15BE3" fill-opacity="1.00" stroke="None">
<path d="
M 148.00 477.00 
C 137.74 477.98 123.90 475.69 114.00 477.00 C 104.10 478.31 86.45 471.57 87.00 484.00
C 97.26 483.02 111.10 485.31 121.00 484.00 C 130.90 482.69 148.55 489.43 148.00 477.00 Z"/>
</g>
<g fill="#A15BE3" fill-opacity="1.00" stroke="None">
<path d="
M 313.00 477.00 
C 302.74 477.98 288.90 475.69 279.00 477.00 C 269.10 478.31 251.45 471.57 252.00 484.00
C 262.26 483.02 276.10 485.31 286.00 484.00 C 295.90 482.69 313.55 489.43 313.00 477.00 Z"/>
</g>
<g fill="#A15BE3" fill-opacity="1.00" stroke="None">
<path d="
M 39.00 498.00 
C 36.33 498.00 33.67 498.00 31.00 498.00
C 31.86 508.01 29.85 521.32 31.00 531.00 C 32.15 540.68 25.62 557.97 39.00 556.00
C 39.00 536.67 39.00 517.33 39.00 498.00 Z"/>
</g>
<g fill="#A15BE3" fill-opacity="1.00" stroke="None">
<path d="
M 138.00 498.00 
C 135.33 498.00 132.67 498.00 130.00 498.00
C 130.86 508.01 128.85 521.32 130.00 531.00 C 131.15 540.68 124.62 557.97 138.00 556.00
C 138.00 536.67 138.00 517.33 138.00 498.00 Z"/>
</g>
<g fill="#A15BE3" fill-opacity="1.00" stroke="None">
<path d="
M 204.00 498.00 
C 201.33 498.00 198.67 498.00 196.00 498.00
C 196.86 508.01 194.85 521.32 196.00 531.00 C 197.15 540.68 190.62 557.97 204.00 556.00
C 204.00 536.67 204.00 517.33 204.00 498.00 Z"/>
</g>
<g fill="#A15BE3" fill-opacity="1.00" stroke="None">
<path d="
M 303.00 498.00 
C 300.33 498.00 297.67 498.00 295.00 498.00
C 295.86 508.01 293.85 521.32 295.00 531.00 C 296.15 540.68 289.62 557.97 303.00 556.00
C 303.00 536.67 303.00 517.33 303.00 498.00 Z"/>
</g>
<g fill="#FFFFFF" fill-opacity="1.00" stroke="None">
<path d="
M 566.00 498.00 
C 563.33 498.00 560.67 498.00 558.00 498.00
C 558.86 508.01 556.85 521.32 558.00 531.00 C 559.15 540.68 552.62 557.97 566.00 556.00
C 566.00 536.67 566.00 517.33 566.00 498.00 Z"/>
</g>
<g fill="#FFFFFF" fill-opacity="1.00" stroke="None">
<path d="
M 731.00 498.00 
C 728.33 498.00 725.67 498.00 723.00 498.00
C 723.86 508.01 721.85 521.32 723.00 531.00 C 724.15 540.68 717.62 557.97 731.00 556.00
C 731.00 536.67 731.00 517.33 731.00 498.00 Z"/>
</g>
<g fill="#FFFFFF" fill-opacity="1.00" stroke="None">
<path d="
M 424.00 501.00 
C 421.33 501.00 418.67 501.00 416.00 501.00
C 419.96 509.87 423.32 520.51 428.07 528.93 C 432.83 537.34 432.87 553.09 445.00 552.00
C 438.96 534.66 430.24 518.25 424.00 501.00 Z"/>
</g>
<g fill="#FFFFFF" fill-opacity="1.00" stroke="None">
<path d="
M 511.00 501.00 
C 508.33 501.00 505.67 501.00 503.00 501.00
C 496.75 518.27 488.03 534.68 482.00 552.00
C 493.89 552.98 494.38 537.51 499.08 529.08 C 503.77 520.64 506.78 509.74 511.00 501.00 Z"/>
</g>
<g fill="#FFFFFF" fill-opacity="1.00" stroke="None">
<path d="
M 682.00 501.00 
C 679.33 501.00 676.67 501.00 674.00 501.00
C 667.75 518.27 659.03 534.68 653.00 552.00
C 664.89 552.98 665.38 537.51 670.08 529.08 C 674.77 520.64 677.78 509.74 682.00 501.00 Z"/>
</g>
<g fill="#FFFFFF" fill-opacity="1.00" stroke="None">
<path d="
M 707.00 501.00 
C 704.33 501.00 701.67 501.00 699.00 501.00
C 692.75 518.27 684.03 534.68 678.00 552.00
C 689.89 552.98 690.38 537.51 695.08 529.08 C 699.77 520.64 702.78 509.74 707.00 501.00 Z"/>
</g>
<g fill="#FFFFFF" fill-opacity="1.00" stroke="None">
<path d="
M 756.00 501.00 
C 753.33 501.00 750.67 501.00 748.00 501.00
C 751.96 509.87 755.32 520.51 760.07 528.93 C 764.83 537.34 764.88 553.09 777.00 552.00
C 770.96 534.65 762.24 518.25 756.00 501.00 Z"/>
</g>
<g fill="#FFFFFF" fill-opacity="1.00" stroke="None">
<path d="
M 781.00 501.00 
C 778.33 501.00 775.67 501.00 773.00 501.00
C 776.96 509.87 780.32 520.51 785.07 528.93 C 789.83 537.34 789.87 553.09 802.00 552.00
C 795.96 534.65 787.24 518.25 781.00 501.00 Z"/>
</g>
<g fill="#A15BE4" fill-opacity="1.00" stroke="None">
<path d="
M 115.00 547.00 
C 109.11 546.80 102.85 547.27 97.00 547.00 C 91.15 546.73 84.65 546.00 87.00 554.00
C 92.89 554.20 99.15 553.73 105.00 554.00 C 110.85 554.27 117.35 555.00 115.00 547.00 Z"/>
</g>
<g fill="#A15BE4" fill-opacity="1.00" stroke="None">
<path d="
M 280.00 547.00 
C 274.11 546.80 267.85 547.27 262.00 547.00 C 256.15 546.73 249.65 546.00 252.00 554.00
C 257.89 554.20 264.15 553.73 270.00 554.00 C 275.85 554.27 282.35 555.00 280.00 547.00 Z"/>
</g>
<g fill="#FFFFFF" fill-opacity="1.00" stroke="None">
<path d="
M 477.00 547.00 
C 471.11 546.80 464.85 547.27 459.00 547.00 C 453.15 546.73 446.65 546.00 449.00 554.00
C 454.89 554.20 461.14 553.73 467.00 554.00 C 472.86 554.27 479.35 555.00 477.00 547.00 Z"/>
</g>
<g fill="#A15BE3" fill-opacity="1.00" stroke="None">
<path d="
M 39.00 568.00 
C 36.33 568.00 33.67 568.00 31.00 568.00
C 31.86 578.01 29.85 591.32 31.00 601.00 C 32.15 610.68 25.62 627.97 39.00 626.00
C 39.00 606.67 39.00 587.33 39.00 568.00 Z"/>
</g>
<g fill="#A15BE3" fill-opacity="1.00" stroke="None">
<path d="
M 175.00 568.00 
C 172.33 568.00 169.67 568.00 167.00 568.00
C 167.86 578.01 165.85 591.32 167.00 601.00 C 168.15 610.68 161.62 627.97 175.00 626.00
C 175.00 606.67 175.00 587.33 175.00 568.00 Z"/>
</g>
<g fill="#A15BE3" fill-opacity="1.00" stroke="None">
<path d="
M 201.00 568.00 
C 198.33 568.00 195.67 568.00 193.00 568.00
C 193.86 578.01 191.85 591.32 193.00 601.00 C 194.15 610.68 187.62 627.97 201.00 626.00
C 201.00 606.67 201.00 587.33 201.00 568.00 Z"/>
</g>
<g fill="#A15BE3" fill-opacity="1.00" stroke="None">
<path d="
M 270.00 568.00 
C 267.33 568.00 264.67 568.00 262.00 568.00
C 262.86 578.01 260.85 591.32 262.00 601.00 C 263.15 610.68 256.62 627.97 270.00 626.00
C 270.00 606.67 270.00 587.33 270.00 568.00 Z"/>
</g>
<g fill="#FFFFFF" fill-opacity="1.00" stroke="None">
<path d="
M 544.00 571.00 
C 541.33 571.00 538.67 571.00 536.00 571.00
C 529.75 588.27 521.03 604.68 515.00 622.00
C 526.89 622.98 527.38 607.51 532.08 599.08 C 536.77 590.64 539.78 579.74 544.00 571.00 Z"/>
</g>
<g fill="#FFFFFF" fill-opacity="1.00" stroke="None">
<path d="
M 654.00 571.00 
C 651.33 571.00 648.67 571.00 646.00 571.00
C 649.96 579.87 653.32 590.51 658.07 598.93 C 662.83 607.34 662.88 623.09 675.00 622.00
C 668.96 604.66 660.24 588.25 654.00 571.00 Z"/>
</g>
<g fill="#FFFFFF" fill-opacity="1.00" stroke="None">
<path d="
M 687.00 571.00 
C 684.33 571.00 681.67 571.00 679.00 571.00
C 682.96 579.87 686.32 590.51 691.07 598.93 C 695.83 607.34 695.88 623.09 708.00 622.00
C 701.96 604.65 693.24 588.25 687.00 571.00 Z"/>
</g>
<g fill="#FFFFFF" fill-opacity="1.00" stroke="None">
<path d="
M 720.00 571.00 
C 717.33 571.00 714.67 571.00 712.00 571.00
C 715.96 579.87 719.32 590.51 724.07 598.93 C 728.83 607.34 728.88 623.09 741.00 622.00
C 734.96 604.66 726.24 588.25 720.00 571.00 Z"/>
</g>
<g fill="#FFFFFF" fill-opacity="1.00" stroke="None">
<path d="
M 775.00 571.00 
C 772.33 571.00 769.67 571.00 767.00 571.00
C 760.75 588.27 752.03 604.68 746.00 622.00
C 757.89 622.98 758.38 607.51 763.08 599.08 C 767.77 590.64 770.78 579.74 775.00 571.00 Z"/>
</g>
<g fill="#FFFFFF" fill-opacity="1.00" stroke="None">
<path d="
M 789.00 571.00 
C 786.33 571.00 783.67 571.00 781.00 571.00
C 784.96 579.87 788.32 590.51 793.07 598.93 C 797.83 607.34 797.88 623.09 810.00 622.00
C 803.96 604.66 795.24 588.25 789.00 571.00 Z"/>
</g>
<g fill="#FFFFFF" fill-opacity="1.00" stroke="None">
<path d="
M 814.00 571.00 
C 811.33 571.00 808.67 571.00 806.00 571.00
C 809.96 579.87 813.32 590.51 818.07 598.93 C 822.83 607.34 822.88 623.09 835.00 622.00
C 828.96 604.66 820.24 588.25 814.00 571.00 Z"/>
</g>
<g fill="#A15BE3" fill-opacity="1.00" stroke="None">
<path d="
M 148.00 617.00 
C 137.15 617.39 124.69 616.48 114.00 617.00 C 103.31 617.52 90.10 616.00 80.00 617.00 C 69.90 618.00 53.57 611.88 54.00 624.00
C 64.85 623.61 77.31 624.52 88.00 624.00 C 98.69 623.48 111.90 625.00 122.00 624.00 C 132.10 623.00 148.43 629.12 148.00 617.00 Z"/>
</g>
<g fill="#A15BE4" fill-opacity="1.00" stroke="None">
<path d="
M 247.00 617.00 
C 241.11 616.80 234.85 617.27 229.00 617.00 C 223.15 616.73 216.65 616.00 219.00 624.00
C 224.89 624.20 231.15 623.73 237.00 624.00 C 242.85 624.27 249.35 625.00 247.00 617.00 Z"/>
</g>
<g fill="#000000" fill-opacity="0.00" stroke="None">
<path d="
M 0.00 861.00 
L 37.00 861.00
C 18.98 856.60 4.08 839.83 0.00 822.00
L 0.00 861.00 Z"/>
</g>
<g fill="#000000" fill-opacity="0.00" stroke="None">
<path d="
M 826.00 861.00 
L 861.00 861.00
L 861.00 826.00
C 856.09 842.00 842.08 856.07 826.00 861.00 Z"/>
</g>
</svg>