<svg width="720" height="720" viewBox="0 0 720 720" fill="none" xmlns="http://www.w3.org/2000/svg">
<rect width="720" height="720" rx="130" fill="#02238F"/>
<path d="M272.828 327.768C265.181 319.373 255.722 315.146 244.48 315.146C237.551 315.146 231.169 316.469 225.303 319.143C219.438 321.817 214.378 325.439 210.094 330.068C205.839 334.726 202.475 340.131 200.003 346.398C197.53 352.637 196.294 359.394 196.294 366.696C196.294 373.855 197.444 380.382 199.715 386.276C202.015 392.141 205.207 397.172 209.347 401.37C213.487 405.567 218.403 408.845 224.096 411.203C229.788 413.56 236.027 414.739 242.813 414.739C245.889 414.739 248.735 414.509 251.323 414.078C253.91 413.646 256.383 412.928 258.74 411.95C261.098 410.944 263.398 409.679 265.698 408.155C267.969 406.602 270.356 404.647 272.828 402.319V427.245H272.8V429.66H241.404L217.799 456.226V460.797H306.38V450.016V317.763H272.828V327.768ZM272.742 373.453C271.563 376.098 270.011 378.427 268.113 380.411C266.187 382.394 263.916 383.918 261.27 385.039C258.625 386.161 255.808 386.707 252.847 386.707C249.741 386.707 246.866 386.161 244.221 385.039C241.576 383.918 239.276 382.394 237.35 380.411C235.424 378.427 233.929 376.098 232.807 373.453C231.686 370.808 231.14 367.904 231.14 364.828C231.14 361.866 231.715 359.078 232.894 356.49C234.072 353.902 235.625 351.66 237.637 349.734C239.621 347.807 241.893 346.283 244.48 345.105C247.068 343.926 249.856 343.351 252.818 343.351C255.664 343.351 258.395 343.897 261.069 345.018C263.714 346.111 266.043 347.664 268.027 349.647C270.011 351.631 271.563 353.902 272.771 356.49C273.95 359.078 274.525 361.924 274.525 365.029C274.496 367.99 273.921 370.808 272.742 373.453Z" fill="white"/>
<path d="M179.216 329.325C177.433 327.226 175.421 325.415 173.265 323.805C171.338 322.396 169.297 321.16 167.083 320.154C166.019 319.665 164.898 319.262 163.719 318.889C162.023 318.342 160.183 317.969 158.285 317.652H134.365L118.552 335.679V333.58V318.026H85V413.133H118.552V372.336V348.962H123.21H132.554H149.66H150.063L152.679 348.904V413.105H186.231V353.619C186.231 348.559 185.742 344.045 184.765 340.078C183.787 336.139 181.947 332.574 179.216 329.325Z" fill="white"/>
<path d="M405.053 317.764H380.184C380.184 317.764 371.3 317.764 368.453 317.764L353.906 334.152V317.764H320.325V412.871H353.963L353.992 349.217H365.032H378.401L405.053 319.086V317.764Z" fill="white"/>
<path d="M586.354 361.697L632.24 319.376V317.766H588.022L552.831 352.066V259H519.279V412.845H552.831V374.118L589.718 412.845H635V411.034L586.354 361.697Z" fill="white"/>
<path d="M493.059 328.606C487.941 324.092 481.875 320.585 474.888 318.055C467.902 315.525 460.34 314.26 452.175 314.26C443.895 314.26 436.247 315.554 429.289 318.141C422.303 320.729 416.294 324.294 411.205 328.779C406.145 333.293 402.178 338.612 399.331 344.735C396.485 350.859 395.076 357.443 395.076 364.487C395.076 372.279 396.485 379.351 399.331 385.705C402.178 392.059 406.088 397.522 411.119 402.093C416.122 406.664 422.073 410.201 429.002 412.673C435.931 415.146 443.464 416.382 451.629 416.382C459.909 416.382 467.585 415.146 474.716 412.673C481.817 410.201 487.912 406.722 492.972 402.179C498.032 397.666 502.029 392.289 504.933 386.05C507.836 379.811 509.303 372.94 509.303 365.378C509.303 357.846 507.865 350.946 505.048 344.707C502.172 338.497 498.176 333.12 493.059 328.606ZM472.099 373.63C470.92 376.275 469.368 378.604 467.47 380.588C465.544 382.571 463.273 384.095 460.628 385.216C457.954 386.338 455.165 386.884 452.204 386.884C449.242 386.884 446.425 386.338 443.751 385.216C441.106 384.095 438.806 382.571 436.908 380.588C434.982 378.604 433.458 376.275 432.28 373.63C431.101 370.985 430.526 368.052 430.526 364.832C430.526 361.871 431.101 359.082 432.28 356.495C433.458 353.907 434.982 351.636 436.908 349.652C438.835 347.668 441.106 346.116 443.751 345.023C446.425 343.902 449.214 343.355 452.204 343.355C455.165 343.355 457.983 343.902 460.628 345.023C463.273 346.116 465.573 347.668 467.47 349.652C469.397 351.636 470.92 353.964 472.099 356.61C473.278 359.255 473.853 362.072 473.853 365.033C473.853 368.11 473.278 370.985 472.099 373.63Z" fill="white"/>
<path d="M272.828 327.768C265.181 319.373 255.722 315.146 244.48 315.146C237.551 315.146 231.169 316.469 225.303 319.143C219.438 321.817 214.378 325.439 210.094 330.068C205.839 334.726 202.475 340.131 200.003 346.398C197.53 352.637 196.294 359.394 196.294 366.696C196.294 373.855 197.444 380.382 199.715 386.276C202.015 392.141 205.207 397.172 209.347 401.37C213.487 405.567 218.403 408.845 224.096 411.203C229.788 413.56 236.027 414.739 242.813 414.739C245.889 414.739 248.735 414.509 251.323 414.078C253.91 413.646 256.383 412.928 258.74 411.95C261.098 410.944 263.398 409.679 265.698 408.155C267.969 406.602 270.356 404.647 272.828 402.319V427.245H272.8V429.66H241.404L217.799 456.226V460.797H306.38V450.016V317.763H272.828V327.768ZM272.742 373.453C271.563 376.098 270.011 378.427 268.113 380.411C266.187 382.394 263.916 383.918 261.27 385.039C258.625 386.161 255.808 386.707 252.847 386.707C249.741 386.707 246.866 386.161 244.221 385.039C241.576 383.918 239.276 382.394 237.35 380.411C235.424 378.427 233.929 376.098 232.807 373.453C231.686 370.808 231.14 367.904 231.14 364.828C231.14 361.866 231.715 359.078 232.894 356.49C234.072 353.902 235.625 351.66 237.637 349.734C239.621 347.807 241.893 346.283 244.48 345.105C247.068 343.926 249.856 343.351 252.818 343.351C255.664 343.351 258.395 343.897 261.069 345.018C263.714 346.111 266.043 347.664 268.027 349.647C270.011 351.631 271.563 353.902 272.771 356.49C273.95 359.078 274.525 361.924 274.525 365.029C274.496 367.99 273.921 370.808 272.742 373.453Z" fill="white"/>
<path d="M179.216 329.325C177.433 327.226 175.421 325.415 173.265 323.805C171.338 322.396 169.297 321.16 167.083 320.154C166.019 319.665 164.898 319.262 163.719 318.889C162.023 318.342 160.183 317.969 158.285 317.652H134.365L118.552 335.679V333.58V318.026H85V413.133H118.552V372.336V348.962H123.21H132.554H149.66H150.063L152.679 348.904V413.105H186.231V353.619C186.231 348.559 185.742 344.045 184.765 340.078C183.787 336.139 181.947 332.574 179.216 329.325Z" fill="white"/>
<path d="M405.053 317.764H380.184C380.184 317.764 371.3 317.764 368.453 317.764L353.906 334.152V317.764H320.325V412.871H353.963L353.992 349.217H365.032H378.401L405.053 319.086V317.764Z" fill="white"/>
<path d="M586.354 361.697L632.24 319.376V317.766H588.022L552.831 352.066V259H519.279V412.845H552.831V374.118L589.718 412.845H635V411.034L586.354 361.697Z" fill="white"/>
<path d="M493.059 328.606C487.941 324.092 481.875 320.585 474.888 318.055C467.902 315.525 460.34 314.26 452.175 314.26C443.895 314.26 436.247 315.554 429.289 318.141C422.303 320.729 416.294 324.294 411.205 328.779C406.145 333.293 402.178 338.612 399.331 344.735C396.485 350.859 395.076 357.443 395.076 364.487C395.076 372.279 396.485 379.351 399.331 385.705C402.178 392.059 406.088 397.522 411.119 402.093C416.122 406.664 422.073 410.201 429.002 412.673C435.931 415.146 443.464 416.382 451.629 416.382C459.909 416.382 467.585 415.146 474.716 412.673C481.817 410.201 487.912 406.722 492.972 402.179C498.032 397.666 502.029 392.289 504.933 386.05C507.836 379.811 509.303 372.94 509.303 365.378C509.303 357.846 507.865 350.946 505.048 344.707C502.172 338.497 498.176 333.12 493.059 328.606ZM472.099 373.63C470.92 376.275 469.368 378.604 467.47 380.588C465.544 382.571 463.273 384.095 460.628 385.216C457.954 386.338 455.165 386.884 452.204 386.884C449.242 386.884 446.425 386.338 443.751 385.216C441.106 384.095 438.806 382.571 436.908 380.588C434.982 378.604 433.458 376.275 432.28 373.63C431.101 370.985 430.526 368.052 430.526 364.832C430.526 361.871 431.101 359.082 432.28 356.495C433.458 353.907 434.982 351.636 436.908 349.652C438.835 347.668 441.106 346.116 443.751 345.023C446.425 343.902 449.214 343.355 452.204 343.355C455.165 343.355 457.983 343.902 460.628 345.023C463.273 346.116 465.573 347.668 467.47 349.652C469.397 351.636 470.92 353.964 472.099 356.61C473.278 359.255 473.853 362.072 473.853 365.033C473.853 368.11 473.278 370.985 472.099 373.63Z" fill="white"/>
</svg>
