<svg xmlns="http://www.w3.org/2000/svg" xmlns:v="https://svgstorm.com"
viewBox = "0 0 1000 1000"
width="1000"
height="1000">
<g fill="None" fill-opacity="0.0" stroke="#000000" stroke-opacity="0.02" stroke-width="0.3"><path d="
M 0.00 67.00 
C 13.06 32.15 40.78 8.42 67.00 0.00
L 0.00 0.00
L 0.00 67.00 Z"/>
</g>
<g fill="None" fill-opacity="0.0" stroke="#000000" stroke-opacity="1.00" stroke-width="0.3"><path d="
M 0.00 67.00 
L 0.00 932.00
C 9.91 962.77 36.85 989.08 67.00 1000.00
L 932.00 1000.00
C 962.90 989.96 989.98 962.83 1000.00 932.00
L 1000.00 67.00
C 986.56 31.79 958.73 7.42 932.00 0.00
L 67.00 0.00
C 40.78 8.42 13.06 32.15 0.00 67.00
M 909.00 5.00 
C 930.52 7.08 952.66 16.44 968.25 33.75 C 983.84 51.06 994.35 69.25 995.00 95.00 C 995.65 120.75 994.71 155.29 995.00 183.00 C 995.29 210.71 994.87 242.41 995.00 271.00 C 995.14 299.59 994.93 330.02 995.00 359.00 C 995.07 387.98 994.96 417.86 995.00 447.00 C 995.04 476.14 994.96 505.83 995.00 535.00 C 995.04 564.17 994.92 593.92 995.00 623.00 C 995.08 652.08 994.84 682.17 995.00 711.00 C 995.16 739.83 994.65 770.76 995.00 799.00 C 995.35 827.24 994.22 860.08 995.00 887.00 C 995.78 913.92 992.01 936.57 976.25 956.25 C 960.48 975.92 948.77 985.60 923.98 991.98 C 899.18 998.35 866.67 994.08 839.00 995.00 C 811.33 995.92 779.58 994.58 751.00 995.00 C 722.42 995.42 691.98 994.81 663.00 995.00 C 634.02 995.19 604.15 994.91 575.00 995.00 C 545.85 995.09 516.19 994.95 487.00 995.00 C 457.81 995.05 428.14 994.96 399.00 995.00 C 369.86 995.04 339.95 994.94 311.00 995.00 C 282.05 995.06 251.51 994.89 223.00 995.00 C 194.49 995.11 162.52 994.76 135.00 995.00 C 107.48 995.24 79.84 997.15 57.31 984.69 C 34.77 972.24 25.76 962.81 14.08 939.92 C 2.39 917.04 4.94 888.57 5.00 861.00 C 5.06 833.43 4.97 801.53 5.00 773.00 C 5.03 744.47 4.98 713.96 5.00 685.00 C 5.02 656.04 4.98 626.14 5.00 597.00 C 5.02 567.86 4.96 538.19 5.00 509.00 C 5.04 479.81 4.92 450.15 5.00 421.00 C 5.08 391.85 4.83 361.98 5.00 333.00 C 5.17 304.02 4.63 273.57 5.00 245.00 C 5.37 216.43 4.19 184.65 5.00 157.00 C 5.81 129.35 1.54 97.45 8.98 72.98 C 16.41 48.50 25.79 37.26 46.08 22.08 C 66.37 6.91 89.90 4.14 117.00 5.00 C 144.10 5.86 176.67 4.61 205.00 5.00 C 233.33 5.39 264.12 4.81 293.00 5.00 C 321.88 5.19 351.87 4.90 381.00 5.00 C 410.13 5.10 439.76 4.91 469.00 5.00 C 498.24 5.09 527.72 4.87 557.00 5.00 C 586.28 5.13 615.71 4.73 645.00 5.00 C 674.29 5.27 703.73 4.42 733.00 5.00 C 762.27 5.58 791.80 3.73 821.00 5.00 C 850.20 6.27 879.94 2.19 909.00 5.00 Z"/>
</g>
<g fill="None" fill-opacity="0.0" stroke="#000000" stroke-opacity="0.02" stroke-width="0.3"><path d="
M 1000.00 67.00 
L 1000.00 0.00
L 932.00 0.00
C 958.73 7.42 986.56 31.79 1000.00 67.00 Z"/>
</g>
<g fill="None" fill-opacity="0.0" stroke="#FEFEFE" stroke-opacity="1.00" stroke-width="0.3"><path d="
M 909.00 5.00 
C 879.94 2.19 850.20 6.27 821.00 5.00 C 791.80 3.73 762.27 5.58 733.00 5.00 C 703.73 4.42 674.29 5.27 645.00 5.00 C 615.71 4.73 586.28 5.13 557.00 5.00 C 527.72 4.87 498.24 5.09 469.00 5.00 C 439.76 4.91 410.13 5.10 381.00 5.00 C 351.87 4.90 321.88 5.19 293.00 5.00 C 264.12 4.81 233.33 5.39 205.00 5.00 C 176.67 4.61 144.10 5.86 117.00 5.00 C 89.90 4.14 66.37 6.91 46.08 22.08 C 25.79 37.26 16.41 48.50 8.98 72.98 C 1.54 97.45 5.81 129.35 5.00 157.00 C 4.19 184.65 5.37 216.43 5.00 245.00 C 4.63 273.57 5.17 304.02 5.00 333.00 C 4.83 361.98 5.08 391.85 5.00 421.00 C 4.92 450.15 5.04 479.81 5.00 509.00 C 4.96 538.19 5.02 567.86 5.00 597.00 C 4.98 626.14 5.02 656.04 5.00 685.00 C 4.98 713.96 5.03 744.47 5.00 773.00 C 4.97 801.53 5.06 833.43 5.00 861.00 C 4.94 888.57 2.39 917.04 14.08 939.92 C 25.76 962.81 34.77 972.24 57.31 984.69 C 79.84 997.15 107.48 995.24 135.00 995.00 C 162.52 994.76 194.49 995.11 223.00 995.00 C 251.51 994.89 282.05 995.06 311.00 995.00 C 339.95 994.94 369.86 995.04 399.00 995.00 C 428.14 994.96 457.81 995.05 487.00 995.00 C 516.19 994.95 545.85 995.09 575.00 995.00 C 604.15 994.91 634.02 995.19 663.00 995.00 C 691.98 994.81 722.42 995.42 751.00 995.00 C 779.58 994.58 811.33 995.92 839.00 995.00 C 866.67 994.08 899.18 998.35 923.98 991.98 C 948.77 985.60 960.48 975.92 976.25 956.25 C 992.01 936.57 995.78 913.92 995.00 887.00 C 994.22 860.08 995.35 827.24 995.00 799.00 C 994.65 770.76 995.16 739.83 995.00 711.00 C 994.84 682.17 995.08 652.08 995.00 623.00 C 994.92 593.92 995.04 564.17 995.00 535.00 C 994.96 505.83 995.04 476.14 995.00 447.00 C 994.96 417.86 995.07 387.98 995.00 359.00 C 994.93 330.02 995.14 299.59 995.00 271.00 C 994.87 242.41 995.29 210.71 995.00 183.00 C 994.71 155.29 995.65 120.75 995.00 95.00 C 994.35 69.25 983.84 51.06 968.25 33.75 C 952.66 16.44 930.52 7.08 909.00 5.00
M 720.00 325.00 
C 720.40 329.09 720.39 333.98 720.00 338.00
C 720.00 352.89 710.37 368.01 720.77 379.23 C 731.17 390.45 734.11 401.44 739.93 415.07 C 745.75 428.71 746.84 447.15 746.01 462.01 C 745.18 476.86 741.78 493.64 735.69 506.69 C 729.61 519.75 723.26 529.16 714.00 540.00
C 710.93 543.60 707.55 546.97 704.00 550.00
C 694.93 557.75 686.02 563.04 675.77 568.77 C 665.52 574.50 648.67 574.05 644.08 585.08 C 639.48 596.10 634.28 606.56 627.08 616.08 C 619.89 625.60 612.67 631.96 603.25 639.25 C 593.84 646.54 584.28 652.16 572.78 656.78 C 561.27 661.40 546.11 665.00 533.00 665.00
C 527.91 665.49 522.07 665.72 517.00 665.00
C 504.72 664.53 491.17 660.99 479.98 657.02 C 468.79 653.06 460.51 646.51 450.75 640.25 C 441.00 633.98 435.66 621.84 423.00 625.00 C 410.34 628.16 392.42 625.70 380.33 623.67 C 368.23 621.65 357.76 617.01 347.31 611.70 C 336.85 606.38 329.00 600.46 320.25 592.75 C 311.51 585.03 306.69 577.41 300.08 567.92 C 293.47 558.43 289.42 548.04 285.22 536.78 C 281.03 525.52 281.29 509.32 280.00 497.00 C 278.71 484.68 288.86 469.14 284.25 458.75 C 279.63 448.37 270.08 443.08 266.23 431.77 C 262.38 420.46 257.03 409.23 255.07 396.93 C 253.12 384.62 253.67 367.00 255.99 354.99 C 258.32 342.99 261.92 330.88 267.31 320.31 C 272.69 309.73 278.36 301.94 286.00 293.00
C 289.34 289.09 293.00 285.16 297.00 282.00
C 306.07 274.84 314.75 269.30 324.70 263.70 C 334.64 258.09 351.55 258.59 355.98 247.98 C 360.40 237.36 365.72 226.89 372.77 217.77 C 379.82 208.65 385.89 201.59 395.25 194.25 C 404.60 186.91 413.85 182.18 425.07 177.07 C 436.30 171.97 449.74 169.14 462.67 167.67 C 475.60 166.20 492.04 167.77 504.22 170.78 C 516.40 173.78 527.20 178.28 538.08 183.92 C 548.95 189.57 554.74 197.17 564.25 204.75 C 573.75 212.33 592.72 203.37 605.00 206.00 C 617.28 208.63 631.22 210.42 642.23 215.77 C 653.24 221.12 663.13 224.99 672.23 232.77 C 681.33 240.55 688.03 246.47 694.92 256.08 C 701.80 265.70 707.45 274.74 711.92 286.08 C 716.40 297.41 720.00 312.15 720.00 325.00
M 164.00 877.00 
C 160.54 877.33 156.39 877.33 153.00 877.00
C 120.17 877.00 89.54 852.81 86.22 819.78 C 82.90 786.75 81.54 742.82 110.23 722.23 C 138.92 701.64 175.51 700.47 205.08 720.92 C 234.65 741.37 232.67 784.73 230.07 818.07 C 227.47 851.41 197.52 877.00 164.00 877.00
M 740.00 711.00 
C 745.77 714.96 744.79 726.97 748.78 733.22 C 752.76 739.48 753.46 750.06 756.93 757.07 C 760.39 764.09 762.15 772.50 764.98 780.02 C 767.80 787.55 771.17 795.50 773.78 803.22 C 776.38 810.95 778.87 818.52 781.78 826.22 C 784.69 833.93 787.24 842.18 789.98 850.02 C 792.72 857.87 796.52 865.72 798.00 874.00
C 787.33 874.00 776.67 874.00 766.00 874.00
C 762.28 862.34 758.64 850.70 755.00 839.00
C 733.67 839.00 712.33 839.00 691.00 839.00
C 687.61 849.34 686.13 858.69 682.02 869.02 C 677.92 879.36 657.59 871.61 648.00 874.00
C 665.60 820.38 686.33 767.62 704.00 714.00
C 706.32 708.43 714.28 709.30 720.00 710.00 C 725.72 710.70 735.44 707.87 740.00 711.00
M 916.00 711.00 
C 917.21 712.73 916.00 719.79 916.00 722.00 C 916.00 724.21 917.21 731.27 916.00 733.00
C 913.30 736.86 904.12 732.10 900.00 734.00 C 895.88 735.90 885.75 731.37 882.00 734.00
C 877.62 738.38 882.26 749.38 881.00 756.00 C 879.74 762.62 881.60 772.72 881.00 780.00 C 880.40 787.28 881.26 795.37 881.00 803.00 C 880.74 810.63 881.14 819.19 881.00 827.00 C 880.86 834.81 881.10 843.14 881.00 851.00
C 892.67 851.00 904.33 851.00 916.00 851.00
C 916.00 858.67 916.00 866.33 916.00 874.00
C 882.67 874.00 849.33 874.00 816.00 874.00
C 816.00 866.33 816.00 858.67 816.00 851.00
C 827.67 851.00 839.33 851.00 851.00 851.00
C 851.00 812.00 851.00 773.00 851.00 734.00
C 845.77 733.20 837.98 735.07 833.00 734.00 C 828.02 732.93 819.37 736.50 816.00 733.00
C 815.37 726.06 815.37 717.94 816.00 711.00
C 819.60 707.23 829.50 710.94 835.00 710.00 C 840.50 709.06 848.99 710.20 855.00 710.00 C 861.01 709.80 870.07 709.69 876.00 710.00 C 881.93 710.31 890.83 708.88 896.00 710.00 C 901.17 711.12 913.21 707.01 916.00 711.00
M 328.00 751.00 
C 372.72 753.43 377.25 805.82 370.07 841.07 C 362.90 876.32 307.25 892.13 286.00 860.00
C 283.67 877.76 285.66 897.49 285.00 916.00
C 275.00 916.00 265.00 916.00 255.00 916.00
C 255.00 862.00 255.00 808.00 255.00 754.00
C 256.68 751.60 265.93 752.87 269.00 753.00 C 272.07 753.13 282.21 751.45 284.00 754.00
C 286.48 757.55 281.32 765.95 285.00 769.00
C 291.49 757.64 304.22 750.96 317.00 751.00
C 320.65 750.56 324.37 750.41 328.00 751.00
M 456.00 751.00 
C 491.46 753.81 506.17 790.60 501.00 823.00
C 488.62 822.66 477.51 823.46 465.00 823.00 C 452.49 822.54 440.84 823.86 428.00 823.00 C 415.16 822.14 420.12 838.93 425.31 846.70 C 430.49 854.46 441.89 858.02 451.00 857.00 C 460.11 855.98 468.20 850.51 474.25 843.25 C 480.29 835.98 489.63 848.92 497.00 851.00
C 478.27 886.52 413.10 886.80 395.08 850.92 C 377.06 815.03 389.61 752.23 437.00 751.00
C 442.97 749.93 450.10 749.86 456.00 751.00
M 593.00 751.00 
C 614.68 752.18 629.00 771.10 629.00 792.00
C 629.75 799.73 630.90 810.69 630.00 819.00 C 629.10 827.31 631.70 839.38 630.00 847.00 C 628.30 854.62 634.10 868.90 629.00 874.00
C 626.64 876.36 617.38 875.11 614.00 875.00 C 610.62 874.89 600.86 876.65 599.00 874.00
C 595.78 869.40 600.44 861.02 599.00 855.00 C 597.56 848.98 599.79 841.94 599.00 835.00 C 598.21 828.06 599.61 824.31 599.00 816.00 C 598.39 807.69 599.84 806.60 599.00 796.00 C 598.16 785.40 589.92 778.20 580.00 776.00
C 577.19 775.71 573.82 775.74 571.00 776.00
C 560.93 778.09 552.44 785.22 551.00 796.00
C 550.76 802.36 552.43 809.71 552.00 817.00 C 551.57 824.29 551.62 832.56 552.00 840.00 C 552.38 847.44 550.42 854.43 552.00 862.00 C 553.58 869.57 550.28 878.30 542.00 875.00 C 533.72 871.70 525.60 879.82 520.00 874.00
C 519.16 864.69 520.47 856.48 520.00 847.00 C 519.53 837.52 520.44 828.82 520.00 819.00 C 519.56 809.18 520.71 801.48 520.00 791.00 C 519.29 780.52 521.44 774.90 520.00 763.00 C 518.56 751.10 527.51 753.77 538.00 753.00 C 548.49 752.23 552.88 757.15 551.00 768.00
C 555.22 764.20 555.99 758.42 562.23 756.23 C 568.47 754.04 572.99 751.27 580.00 751.00
C 584.29 750.39 588.76 750.31 593.00 751.00 Z"/>
</g>
<g fill="None" fill-opacity="0.0" stroke="#101010" stroke-opacity="1.00" stroke-width="0.3"><path d="
M 297.00 282.00 
C 293.35 285.37 289.48 289.52 286.00 293.00
C 278.36 301.94 272.69 309.73 267.31 320.31 C 261.92 330.88 258.32 342.99 255.99 354.99 C 253.67 367.00 253.12 384.62 255.07 396.93 C 257.03 409.23 262.38 420.46 266.23 431.77 C 270.08 443.08 279.63 448.37 284.25 458.75 C 288.86 469.14 278.71 484.68 280.00 497.00 C 281.29 509.32 281.03 525.52 285.22 536.78 C 289.42 548.04 293.47 558.43 300.08 567.92 C 306.69 577.41 311.51 585.03 320.25 592.75 C 329.00 600.46 336.85 606.38 347.31 611.70 C 357.76 617.01 368.23 621.65 380.33 623.67 C 392.42 625.70 410.34 628.16 423.00 625.00 C 435.66 621.84 441.00 633.98 450.75 640.25 C 460.51 646.51 468.79 653.06 479.98 657.02 C 491.17 660.99 504.72 664.53 517.00 665.00
C 522.32 665.20 527.68 665.00 533.00 665.00
C 546.11 665.00 561.27 661.40 572.78 656.78 C 584.28 652.16 593.84 646.54 603.25 639.25 C 612.67 631.96 619.89 625.60 627.08 616.08 C 634.28 606.56 639.48 596.10 644.08 585.08 C 648.67 574.05 665.52 574.50 675.77 568.77 C 686.02 563.04 694.93 557.75 704.00 550.00
C 707.25 546.75 710.79 543.21 714.00 540.00
C 723.26 529.16 729.61 519.75 735.69 506.69 C 741.78 493.64 745.18 476.86 746.01 462.01 C 746.84 447.15 745.75 428.71 739.93 415.07 C 734.11 401.44 731.17 390.45 720.77 379.23 C 710.37 368.01 720.00 352.89 720.00 338.00
C 720.00 333.67 720.00 329.33 720.00 325.00
C 720.00 312.15 716.40 297.41 711.92 286.08 C 707.45 274.74 701.80 265.70 694.92 256.08 C 688.03 246.47 681.33 240.55 672.23 232.77 C 663.13 224.99 653.24 221.12 642.23 215.77 C 631.22 210.42 617.28 208.63 605.00 206.00 C 592.72 203.37 573.75 212.33 564.25 204.75 C 554.74 197.17 548.95 189.57 538.08 183.92 C 527.20 178.28 516.40 173.78 504.22 170.78 C 492.04 167.77 475.60 166.20 462.67 167.67 C 449.74 169.14 436.30 171.97 425.07 177.07 C 413.85 182.18 404.60 186.91 395.25 194.25 C 385.89 201.59 379.82 208.65 372.77 217.77 C 365.72 226.89 360.40 237.36 355.98 247.98 C 351.55 258.59 334.64 258.09 324.70 263.70 C 314.75 269.30 306.07 274.84 297.00 282.00
M 424.00 292.00 
C 423.42 298.37 424.27 304.57 424.00 311.00 C 423.73 317.43 424.16 324.58 424.00 331.00 C 423.84 337.42 424.16 343.65 424.00 350.00 C 423.84 356.35 424.25 363.81 424.00 370.00 C 423.75 376.19 424.54 383.23 424.00 389.00 C 423.46 394.77 425.12 404.05 424.00 409.00 C 422.88 413.95 426.92 425.71 423.00 428.00
C 420.54 429.44 413.49 421.91 409.92 421.08 C 406.35 420.24 401.70 415.29 397.31 413.70 C 392.91 412.10 389.92 408.42 384.77 406.23 C 379.62 404.04 380.94 395.87 381.00 390.00 C 381.06 384.13 380.98 376.39 381.00 370.00 C 381.03 363.61 380.99 356.71 381.00 350.00 C 381.01 343.29 381.00 335.92 381.00 329.00 C 381.00 322.08 381.01 316.20 381.00 309.00 C 380.99 301.80 381.02 296.84 381.00 289.00 C 380.98 281.16 381.33 280.19 383.32 271.32 C 385.32 262.45 389.95 250.66 394.92 242.92 C 399.90 235.19 398.77 237.12 404.00 231.00
C 406.76 227.77 409.70 224.61 413.00 222.00
C 446.96 195.19 501.07 190.01 533.00 222.00
C 520.45 229.05 507.56 235.84 495.30 243.30 C 483.05 250.77 469.14 257.40 457.30 265.30 C 445.47 273.20 427.17 276.74 424.00 292.00
M 600.00 239.00 
C 653.52 239.00 695.92 295.47 687.00 347.00
C 667.18 340.40 647.85 321.83 628.77 314.23 C 609.69 306.63 587.92 280.80 566.92 288.92 C 545.92 297.05 529.58 312.98 509.30 322.30 C 489.03 331.63 471.51 346.69 451.00 355.00
C 451.22 342.25 450.70 325.34 451.00 313.00 C 451.30 300.66 465.95 299.61 474.23 293.23 C 482.51 286.85 492.93 283.48 501.70 277.69 C 510.46 271.91 518.97 267.56 528.23 262.23 C 537.49 256.90 545.69 251.51 555.70 246.69 C 565.70 241.88 579.34 238.91 591.00 239.00
C 593.82 238.73 597.24 238.73 600.00 239.00
M 319.00 448.00 
C 315.43 444.95 311.88 441.65 309.00 438.00
C 270.67 389.45 285.64 310.56 348.00 290.00
C 346.58 323.89 349.89 363.71 348.00 397.00 C 346.11 430.29 382.59 433.22 403.70 449.30 C 424.81 465.38 452.13 472.29 471.00 490.00
C 460.44 497.30 450.63 498.50 440.30 507.30 C 429.98 516.11 419.28 508.25 409.25 501.75 C 399.23 495.25 388.86 490.37 378.77 484.23 C 368.68 478.09 358.41 472.66 348.30 466.70 C 338.20 460.73 328.03 455.71 319.00 448.00
M 653.00 542.00 
C 653.94 508.54 651.75 467.73 653.00 435.00 C 654.25 402.27 619.03 398.94 597.77 383.23 C 576.51 367.52 550.69 359.08 529.00 344.00
C 539.30 334.88 551.24 331.81 562.69 323.70 C 574.15 315.58 586.33 328.09 597.75 334.25 C 609.16 340.42 621.16 347.77 632.70 354.30 C 644.23 360.84 656.06 367.62 667.69 374.31 C 679.33 380.99 688.20 389.47 696.25 400.75 C 704.31 412.02 710.05 425.02 712.78 439.22 C 715.50 453.42 713.47 474.03 708.07 487.07 C 702.68 500.12 696.74 510.77 686.75 520.75 C 676.76 530.73 666.10 538.06 653.00 542.00
M 549.00 445.00 
C 541.87 448.74 535.22 451.66 528.31 456.31 C 521.39 460.95 514.96 462.63 507.92 467.92 C 500.89 473.22 493.97 470.25 486.92 465.08 C 479.86 459.92 473.53 457.58 465.92 453.08 C 458.32 448.57 450.52 446.36 451.00 436.00 C 451.48 425.64 452.10 414.33 451.00 404.00 C 449.90 393.67 452.18 384.54 461.70 381.70 C 471.22 378.85 474.06 372.46 482.08 370.08 C 490.10 367.70 495.21 357.71 503.07 360.93 C 510.94 364.15 516.09 369.41 523.75 373.25 C 531.40 377.10 536.26 380.24 544.23 384.77 C 552.19 389.30 548.42 402.72 549.00 412.00 C 549.58 421.28 548.56 435.29 549.00 445.00
M 597.00 601.00 
C 593.66 604.91 590.00 608.84 586.00 612.00
C 551.87 638.95 501.11 640.16 467.00 612.00
C 479.56 602.98 493.11 596.67 506.70 588.69 C 520.28 580.72 532.33 573.48 546.25 565.25 C 560.16 557.01 579.31 552.65 577.00 532.00 C 574.69 511.35 578.19 489.92 577.00 469.00 C 575.81 448.08 577.89 426.03 577.00 405.00
C 592.05 410.61 605.11 421.74 620.00 428.00
C 614.11 485.78 636.45 554.12 597.00 601.00
M 548.00 527.00 
C 539.85 535.15 526.16 537.53 516.77 544.77 C 507.39 552.01 494.97 556.13 484.92 562.92 C 474.87 569.71 464.34 574.13 453.77 580.77 C 443.20 587.41 428.74 592.13 416.00 593.00
C 410.53 593.98 404.38 593.77 399.00 593.00
C 378.72 592.23 360.72 583.41 345.00 571.00
C 341.65 568.35 338.72 565.18 336.00 562.00
C 317.98 540.91 309.65 512.90 314.00 485.00
C 329.59 494.81 344.54 500.17 360.08 510.92 C 375.61 521.68 390.43 525.39 406.23 537.77 C 422.03 550.15 439.95 541.80 455.08 531.08 C 470.21 520.37 485.99 514.14 501.23 504.23 C 516.47 494.32 532.49 487.04 548.00 478.00
C 551.52 478.03 549.88 486.97 550.00 492.00 C 550.12 497.03 550.30 504.69 550.00 510.00 C 549.70 515.31 551.76 523.24 548.00 527.00 Z"/>
</g>
<g fill="None" fill-opacity="0.0" stroke="#FDFDFD" stroke-opacity="1.00" stroke-width="0.3"><path d="
M 413.00 222.00 
C 410.04 224.74 406.82 228.18 404.00 231.00
C 398.77 237.12 399.90 235.19 394.92 242.92 C 389.95 250.66 385.32 262.45 383.32 271.32 C 381.33 280.19 380.98 281.16 381.00 289.00 C 381.02 296.84 380.99 301.80 381.00 309.00 C 381.01 316.20 381.00 322.08 381.00 329.00 C 381.00 335.92 381.01 343.29 381.00 350.00 C 380.99 356.71 381.03 363.61 381.00 370.00 C 380.98 376.39 381.06 384.13 381.00 390.00 C 380.94 395.87 379.62 404.04 384.77 406.23 C 389.92 408.42 392.91 412.10 397.31 413.70 C 401.70 415.29 406.35 420.24 409.92 421.08 C 413.49 421.91 420.54 429.44 423.00 428.00
C 424.17 405.59 421.44 382.33 423.00 360.00 C 424.56 337.67 419.60 313.26 424.00 292.00
C 427.17 276.74 445.47 273.20 457.30 265.30 C 469.14 257.40 483.05 250.77 495.30 243.30 C 507.56 235.84 520.45 229.05 533.00 222.00
C 501.07 190.01 446.96 195.19 413.00 222.00 Z"/>
</g>
<g fill="None" fill-opacity="0.0" stroke="#727272" stroke-opacity="1.00" stroke-width="0.3"><path d="
M 404.00 231.00 
C 406.82 228.18 410.04 224.74 413.00 222.00
C 409.70 224.61 406.76 227.77 404.00 231.00 Z"/>
</g>
<g fill="None" fill-opacity="0.0" stroke="#7B7B7B" stroke-opacity="1.00" stroke-width="0.3"><path d="
M 591.00 239.00 
C 594.00 239.00 597.00 239.00 600.00 239.00
C 597.24 238.73 593.82 238.73 591.00 239.00 Z"/>
</g>
<g fill="None" fill-opacity="0.0" stroke="#FCFCFC" stroke-opacity="1.00" stroke-width="0.3"><path d="
M 600.00 239.00 
C 597.00 239.00 594.00 239.00 591.00 239.00
C 579.34 238.91 565.70 241.88 555.70 246.69 C 545.69 251.51 537.49 256.90 528.23 262.23 C 518.97 267.56 510.46 271.91 501.70 277.69 C 492.93 283.48 482.51 286.85 474.23 293.23 C 465.95 299.61 451.30 300.66 451.00 313.00 C 450.70 325.34 451.22 342.25 451.00 355.00
C 471.51 346.69 489.03 331.63 509.30 322.30 C 529.58 312.98 545.92 297.05 566.92 288.92 C 587.92 280.80 609.69 306.63 628.77 314.23 C 647.85 321.83 667.18 340.40 687.00 347.00
C 695.92 295.47 653.52 239.00 600.00 239.00 Z"/>
</g>
<g fill="None" fill-opacity="0.0" stroke="#767676" stroke-opacity="1.00" stroke-width="0.3"><path d="
M 286.00 293.00 
C 289.48 289.52 293.35 285.37 297.00 282.00
C 293.00 285.16 289.34 289.09 286.00 293.00 Z"/>
</g>
<g fill="None" fill-opacity="0.0" stroke="#FCFCFC" stroke-opacity="1.00" stroke-width="0.3"><path d="
M 309.00 438.00 
C 312.05 441.30 315.85 444.85 319.00 448.00
C 328.03 455.71 338.20 460.73 348.30 466.70 C 358.41 472.66 368.68 478.09 378.77 484.23 C 388.86 490.37 399.23 495.25 409.25 501.75 C 419.28 508.25 429.98 516.11 440.30 507.30 C 450.63 498.50 460.44 497.30 471.00 490.00
C 452.13 472.29 424.81 465.38 403.70 449.30 C 382.59 433.22 346.11 430.29 348.00 397.00 C 349.89 363.71 346.58 323.89 348.00 290.00
C 285.64 310.56 270.67 389.45 309.00 438.00 Z"/>
</g>
<g fill="None" fill-opacity="0.0" stroke="#777777" stroke-opacity="1.00" stroke-width="0.3"><path d="
M 423.00 428.00 
C 426.92 425.71 422.88 413.95 424.00 409.00 C 425.12 404.05 423.46 394.77 424.00 389.00 C 424.54 383.23 423.75 376.19 424.00 370.00 C 424.25 363.81 423.84 356.35 424.00 350.00 C 424.16 343.65 423.84 337.42 424.00 331.00 C 424.16 324.58 423.73 317.43 424.00 311.00 C 424.27 304.57 423.42 298.37 424.00 292.00
C 419.60 313.26 424.56 337.67 423.00 360.00 C 421.44 382.33 424.17 405.59 423.00 428.00 Z"/>
</g>
<g fill="None" fill-opacity="0.0" stroke="#FCFCFC" stroke-opacity="1.00" stroke-width="0.3"><path d="
M 653.00 542.00 
C 666.10 538.06 676.76 530.73 686.75 520.75 C 696.74 510.77 702.68 500.12 708.07 487.07 C 713.47 474.03 715.50 453.42 712.78 439.22 C 710.05 425.02 704.31 412.02 696.25 400.75 C 688.20 389.47 679.33 380.99 667.69 374.31 C 656.06 367.62 644.23 360.84 632.70 354.30 C 621.16 347.77 609.16 340.42 597.75 334.25 C 586.33 328.09 574.15 315.58 562.69 323.70 C 551.24 331.81 539.30 334.88 529.00 344.00
C 550.69 359.08 576.51 367.52 597.77 383.23 C 619.03 398.94 654.25 402.27 653.00 435.00 C 651.75 467.73 653.94 508.54 653.00 542.00 Z"/>
</g>
<g fill="None" fill-opacity="0.0" stroke="#868686" stroke-opacity="1.00" stroke-width="0.3"><path d="
M 720.00 338.00 
C 720.39 333.98 720.40 329.09 720.00 325.00
C 720.00 329.33 720.00 333.67 720.00 338.00 Z"/>
</g>
<g fill="None" fill-opacity="0.0" stroke="#FCFCFC" stroke-opacity="1.00" stroke-width="0.3"><path d="
M 549.00 445.00 
C 548.56 435.29 549.58 421.28 549.00 412.00 C 548.42 402.72 552.19 389.30 544.23 384.77 C 536.26 380.24 531.40 377.10 523.75 373.25 C 516.09 369.41 510.94 364.15 503.07 360.93 C 495.21 357.71 490.10 367.70 482.08 370.08 C 474.06 372.46 471.22 378.85 461.70 381.70 C 452.18 384.54 449.90 393.67 451.00 404.00 C 452.10 414.33 451.48 425.64 451.00 436.00 C 450.52 446.36 458.32 448.57 465.92 453.08 C 473.53 457.58 479.86 459.92 486.92 465.08 C 493.97 470.25 500.89 473.22 507.92 467.92 C 514.96 462.63 521.39 460.95 528.31 456.31 C 535.22 451.66 541.87 448.74 549.00 445.00 Z"/>
</g>
<g fill="None" fill-opacity="0.0" stroke="#FBFBFB" stroke-opacity="1.00" stroke-width="0.3"><path d="
M 586.00 612.00 
C 589.65 608.63 593.52 604.48 597.00 601.00
C 636.45 554.12 614.11 485.78 620.00 428.00
C 605.11 421.74 592.05 410.61 577.00 405.00
C 577.89 426.03 575.81 448.08 577.00 469.00 C 578.19 489.92 574.69 511.35 577.00 532.00 C 579.31 552.65 560.16 557.01 546.25 565.25 C 532.33 573.48 520.28 580.72 506.70 588.69 C 493.11 596.67 479.56 602.98 467.00 612.00
C 501.11 640.16 551.87 638.95 586.00 612.00 Z"/>
</g>
<g fill="None" fill-opacity="0.0" stroke="#7A7A7A" stroke-opacity="1.00" stroke-width="0.3"><path d="
M 319.00 448.00 
C 315.85 444.85 312.05 441.30 309.00 438.00
C 311.88 441.65 315.43 444.95 319.00 448.00 Z"/>
</g>
<g fill="None" fill-opacity="0.0" stroke="#7A7A7A" stroke-opacity="1.00" stroke-width="0.3"><path d="
M 548.00 478.00 
C 551.21 479.91 548.43 489.98 549.00 494.00 C 549.57 498.02 549.23 506.57 549.00 511.00 C 548.77 515.43 550.64 523.30 548.00 527.00
C 551.76 523.24 549.70 515.31 550.00 510.00 C 550.30 504.69 550.12 497.03 550.00 492.00 C 549.88 486.97 551.52 478.03 548.00 478.00 Z"/>
</g>
<g fill="None" fill-opacity="0.0" stroke="#FCFCFC" stroke-opacity="1.00" stroke-width="0.3"><path d="
M 336.00 562.00 
C 338.86 564.86 342.09 568.31 345.00 571.00
C 360.72 583.41 378.72 592.23 399.00 593.00
C 404.56 593.21 410.45 593.38 416.00 593.00
C 428.74 592.13 443.20 587.41 453.77 580.77 C 464.34 574.13 474.87 569.71 484.92 562.92 C 494.97 556.13 507.39 552.01 516.77 544.77 C 526.16 537.53 539.85 535.15 548.00 527.00
C 550.64 523.30 548.77 515.43 549.00 511.00 C 549.23 506.57 549.57 498.02 549.00 494.00 C 548.43 489.98 551.21 479.91 548.00 478.00
C 532.49 487.04 516.47 494.32 501.23 504.23 C 485.99 514.14 470.21 520.37 455.08 531.08 C 439.95 541.80 422.03 550.15 406.23 537.77 C 390.43 525.39 375.61 521.68 360.08 510.92 C 344.54 500.17 329.59 494.81 314.00 485.00
C 309.65 512.90 317.98 540.91 336.00 562.00 Z"/>
</g>
<g fill="None" fill-opacity="0.0" stroke="#777777" stroke-opacity="1.00" stroke-width="0.3"><path d="
M 704.00 550.00 
C 707.55 546.97 710.93 543.60 714.00 540.00
C 710.79 543.21 707.25 546.75 704.00 550.00 Z"/>
</g>
<g fill="None" fill-opacity="0.0" stroke="#7D7D7D" stroke-opacity="1.00" stroke-width="0.3"><path d="
M 345.00 571.00 
C 342.09 568.31 338.86 564.86 336.00 562.00
C 338.72 565.18 341.65 568.35 345.00 571.00 Z"/>
</g>
<g fill="None" fill-opacity="0.0" stroke="#888888" stroke-opacity="1.00" stroke-width="0.3"><path d="
M 416.00 593.00 
C 410.45 593.38 404.56 593.21 399.00 593.00
C 404.38 593.77 410.53 593.98 416.00 593.00 Z"/>
</g>
<g fill="None" fill-opacity="0.0" stroke="#888888" stroke-opacity="1.00" stroke-width="0.3"><path d="
M 586.00 612.00 
C 590.00 608.84 593.66 604.91 597.00 601.00
C 593.52 604.48 589.65 608.63 586.00 612.00 Z"/>
</g>
<g fill="None" fill-opacity="0.0" stroke="#858585" stroke-opacity="1.00" stroke-width="0.3"><path d="
M 533.00 665.00 
C 527.68 665.00 522.32 665.20 517.00 665.00
C 522.07 665.72 527.91 665.49 533.00 665.00 Z"/>
</g>
<g fill="None" fill-opacity="0.0" stroke="#111111" stroke-opacity="1.00" stroke-width="0.3"><path d="
M 153.00 877.00 
C 156.67 877.00 160.33 877.00 164.00 877.00
C 197.52 877.00 227.47 851.41 230.07 818.07 C 232.67 784.73 234.65 741.37 205.08 720.92 C 175.51 700.47 138.92 701.64 110.23 722.23 C 81.54 742.82 82.90 786.75 86.22 819.78 C 89.54 852.81 120.17 877.00 153.00 877.00
M 164.00 732.00 
C 181.93 733.22 197.98 748.03 199.00 767.00 C 200.02 785.98 203.09 813.04 195.22 831.22 C 187.35 849.41 166.72 855.80 147.98 852.02 C 129.23 848.25 117.00 831.10 117.00 812.00
C 115.81 799.74 115.82 785.18 117.00 773.00
C 117.00 752.77 130.83 733.44 152.00 732.00
C 156.05 731.27 160.01 731.29 164.00 732.00 Z"/>
</g>
<g fill="None" fill-opacity="0.0" stroke="#828282" stroke-opacity="1.00" stroke-width="0.3"><path d="
M 704.00 714.00 
C 706.49 709.63 714.94 710.12 720.00 711.00 C 725.06 711.88 735.27 708.79 740.00 711.00
C 735.44 707.87 725.72 710.70 720.00 710.00 C 714.28 709.30 706.32 708.43 704.00 714.00 Z"/>
</g>
<g fill="None" fill-opacity="0.0" stroke="#818181" stroke-opacity="1.00" stroke-width="0.3"><path d="
M 816.00 711.00 
C 816.00 710.96 817.00 711.00 817.00 711.00
C 850.00 711.00 883.00 711.00 916.00 711.00
C 913.21 707.01 901.17 711.12 896.00 710.00 C 890.83 708.88 881.93 710.31 876.00 710.00 C 870.07 709.69 861.01 709.80 855.00 710.00 C 848.99 710.20 840.50 709.06 835.00 710.00 C 829.50 710.94 819.60 707.23 816.00 711.00 Z"/>
</g>
<g fill="None" fill-opacity="0.0" stroke="#111111" stroke-opacity="1.00" stroke-width="0.3"><path d="
M 704.00 714.00 
C 686.33 767.62 665.60 820.38 648.00 874.00
C 657.59 871.61 677.92 879.36 682.02 869.02 C 686.13 858.69 687.61 849.34 691.00 839.00
C 712.33 839.00 733.67 839.00 755.00 839.00
C 758.64 850.70 762.28 862.34 766.00 874.00
C 776.67 874.00 787.33 874.00 798.00 874.00
C 796.52 865.72 792.72 857.87 789.98 850.02 C 787.24 842.18 784.69 833.93 781.78 826.22 C 778.87 818.52 776.38 810.95 773.78 803.22 C 771.17 795.50 767.80 787.55 764.98 780.02 C 762.15 772.50 760.39 764.09 756.93 757.07 C 753.46 750.06 752.76 739.48 748.78 733.22 C 744.79 726.97 745.77 714.96 740.00 711.00
C 735.27 708.79 725.06 711.88 720.00 711.00 C 714.94 710.12 706.49 709.63 704.00 714.00
M 747.00 816.00 
C 731.00 816.00 715.00 816.00 699.00 816.00
C 706.14 790.53 714.55 764.78 723.00 740.00
C 731.64 764.75 739.57 790.56 747.00 816.00 Z"/>
</g>
<g fill="None" fill-opacity="0.0" stroke="#4C4C4C" stroke-opacity="1.00" stroke-width="0.3"><path d="
M 816.00 733.00 
C 816.00 733.04 817.00 733.00 817.00 733.00
C 817.63 726.06 817.62 717.94 817.00 711.00
C 817.00 711.00 816.00 710.96 816.00 711.00
C 815.37 717.94 815.37 726.06 816.00 733.00 Z"/>
</g>
<g fill="None" fill-opacity="0.0" stroke="#111111" stroke-opacity="1.00" stroke-width="0.3"><path d="
M 817.00 733.00 
C 821.64 733.00 829.70 732.22 834.00 733.00 C 838.30 733.78 848.63 730.61 851.00 734.00
C 851.00 773.00 851.00 812.00 851.00 851.00
C 839.33 851.00 827.67 851.00 816.00 851.00
C 816.00 858.67 816.00 866.33 816.00 874.00
C 849.33 874.00 882.67 874.00 916.00 874.00
C 916.00 866.33 916.00 858.67 916.00 851.00
C 904.33 851.00 892.67 851.00 881.00 851.00
C 881.10 843.14 880.86 834.81 881.00 827.00 C 881.14 819.19 880.74 810.63 881.00 803.00 C 881.26 795.37 880.40 787.28 881.00 780.00 C 881.60 772.72 879.74 762.62 881.00 756.00 C 882.26 749.38 877.62 738.38 882.00 734.00
C 885.38 730.62 893.05 733.95 898.00 733.00 C 902.95 732.05 910.79 733.71 916.00 733.00
C 917.21 731.27 916.00 724.21 916.00 722.00 C 916.00 719.79 917.21 712.73 916.00 711.00
C 883.00 711.00 850.00 711.00 817.00 711.00
C 817.62 717.94 817.63 726.06 817.00 733.00 Z"/>
</g>
<g fill="None" fill-opacity="0.0" stroke="#636363" stroke-opacity="1.00" stroke-width="0.3"><path d="
M 152.00 732.00 
C 155.87 731.74 160.13 731.74 164.00 732.00
C 160.01 731.29 156.05 731.27 152.00 732.00 Z"/>
</g>
<g fill="None" fill-opacity="0.0" stroke="#FDFDFD" stroke-opacity="1.00" stroke-width="0.3"><path d="
M 117.00 773.00 
C 117.00 786.00 117.00 799.00 117.00 812.00
C 117.00 831.10 129.23 848.25 147.98 852.02 C 166.72 855.80 187.35 849.41 195.22 831.22 C 203.09 813.04 200.02 785.98 199.00 767.00 C 197.98 748.03 181.93 733.22 164.00 732.00
C 160.13 731.74 155.87 731.74 152.00 732.00
C 130.83 733.44 117.00 752.77 117.00 773.00 Z"/>
</g>
<g fill="None" fill-opacity="0.0" stroke="#707070" stroke-opacity="1.00" stroke-width="0.3"><path d="
M 851.00 734.00 
C 848.63 730.61 838.30 733.78 834.00 733.00 C 829.70 732.22 821.64 733.00 817.00 733.00
C 817.00 733.00 816.00 733.04 816.00 733.00
C 819.37 736.50 828.02 732.93 833.00 734.00 C 837.98 735.07 845.77 733.20 851.00 734.00 Z"/>
</g>
<g fill="None" fill-opacity="0.0" stroke="#707070" stroke-opacity="1.00" stroke-width="0.3"><path d="
M 882.00 734.00 
C 885.75 731.37 895.88 735.90 900.00 734.00 C 904.12 732.10 913.30 736.86 916.00 733.00
C 910.79 733.71 902.95 732.05 898.00 733.00 C 893.05 733.95 885.38 730.62 882.00 734.00 Z"/>
</g>
<g fill="None" fill-opacity="0.0" stroke="#F8F8F8" stroke-opacity="1.00" stroke-width="0.3"><path d="
M 747.00 816.00 
C 739.57 790.56 731.64 764.75 723.00 740.00
C 714.55 764.78 706.14 790.53 699.00 816.00
C 715.00 816.00 731.00 816.00 747.00 816.00 Z"/>
</g>
<g fill="None" fill-opacity="0.0" stroke="#979797" stroke-opacity="1.00" stroke-width="0.3"><path d="
M 317.00 751.00 
C 320.63 750.93 324.37 750.80 328.00 751.00
C 324.37 750.41 320.65 750.56 317.00 751.00 Z"/>
</g>
<g fill="None" fill-opacity="0.0" stroke="#929292" stroke-opacity="1.00" stroke-width="0.3"><path d="
M 437.00 751.00 
C 443.10 750.58 449.90 750.52 456.00 751.00
C 450.10 749.86 442.97 749.93 437.00 751.00 Z"/>
</g>
<g fill="None" fill-opacity="0.0" stroke="#939393" stroke-opacity="1.00" stroke-width="0.3"><path d="
M 580.00 751.00 
C 584.27 750.84 588.73 750.77 593.00 751.00
C 588.76 750.31 584.29 750.39 580.00 751.00 Z"/>
</g>
<g fill="None" fill-opacity="0.0" stroke="#111111" stroke-opacity="1.00" stroke-width="0.3"><path d="
M 284.00 754.00 
C 274.33 754.00 264.67 754.00 255.00 754.00
C 255.00 808.00 255.00 862.00 255.00 916.00
C 265.00 916.00 275.00 916.00 285.00 916.00
C 285.66 897.49 283.67 877.76 286.00 860.00
C 307.25 892.13 362.90 876.32 370.07 841.07 C 377.25 805.82 372.72 753.43 328.00 751.00
C 324.37 750.80 320.63 750.93 317.00 751.00
C 304.22 750.96 291.49 757.64 285.00 769.00
C 281.32 765.95 286.48 757.55 284.00 754.00
M 321.00 774.00 
C 343.25 777.61 341.67 802.59 342.00 821.00 C 342.33 839.41 328.61 859.03 306.93 853.07 C 285.25 847.11 284.74 827.27 285.00 807.00 C 285.26 786.73 298.67 770.37 321.00 774.00 Z"/>
</g>
<g fill="None" fill-opacity="0.0" stroke="#111111" stroke-opacity="1.00" stroke-width="0.3"><path d="
M 456.00 751.00 
C 449.90 750.52 443.10 750.58 437.00 751.00
C 389.61 752.23 377.06 815.03 395.08 850.92 C 413.10 886.80 478.27 886.52 497.00 851.00
C 489.63 848.92 480.29 835.98 474.25 843.25 C 468.20 850.51 460.11 855.98 451.00 857.00 C 441.89 858.02 430.49 854.46 425.31 846.70 C 420.12 838.93 415.16 822.14 428.00 823.00 C 440.84 823.86 452.49 822.54 465.00 823.00 C 477.51 823.46 488.62 822.66 501.00 823.00
C 506.17 790.60 491.46 753.81 456.00 751.00
M 471.00 804.00 
C 456.52 804.83 443.63 802.89 429.00 804.00 C 414.37 805.11 420.16 785.74 427.75 777.75 C 435.35 769.77 448.29 767.88 458.23 773.77 C 468.17 779.66 472.88 791.92 471.00 804.00 Z"/>
</g>
<g fill="None" fill-opacity="0.0" stroke="#101010" stroke-opacity="1.00" stroke-width="0.3"><path d="
M 551.00 768.00 
C 550.36 768.57 550.21 770.07 549.00 770.00
C 549.00 764.67 549.00 759.33 549.00 754.00
C 539.67 754.00 530.33 754.00 521.00 754.00
C 521.00 793.67 521.00 833.33 521.00 873.00
C 530.92 872.09 541.06 873.68 551.00 873.00
C 554.00 868.71 549.59 859.42 551.00 854.00 C 552.41 848.58 550.25 840.95 551.00 835.00 C 551.75 829.05 550.40 822.23 551.00 816.00 C 551.60 809.77 550.16 802.28 551.00 796.00
C 552.44 785.22 560.93 778.09 571.00 776.00
C 574.26 775.32 576.78 775.29 580.00 776.00
C 589.92 778.20 598.16 785.40 599.00 796.00 C 599.84 806.60 598.39 807.69 599.00 816.00 C 599.61 824.31 598.21 828.06 599.00 835.00 C 599.79 841.94 597.56 848.98 599.00 855.00 C 600.44 861.02 595.78 869.40 599.00 874.00
C 609.00 874.00 619.00 874.00 629.00 874.00
C 629.00 846.67 629.00 819.33 629.00 792.00
C 629.00 771.10 614.68 752.18 593.00 751.00
C 588.73 750.77 584.27 750.84 580.00 751.00
C 572.99 751.27 568.47 754.04 562.23 756.23 C 555.99 758.42 555.22 764.20 551.00 768.00 Z"/>
</g>
<g fill="None" fill-opacity="0.0" stroke="#7F7F7F" stroke-opacity="1.00" stroke-width="0.3"><path d="
M 255.00 754.00 
C 264.67 754.00 274.33 754.00 284.00 754.00
C 282.21 751.45 272.07 753.13 269.00 753.00 C 265.93 752.87 256.68 751.60 255.00 754.00 Z"/>
</g>
<g fill="None" fill-opacity="0.0" stroke="#8B8B8B" stroke-opacity="1.00" stroke-width="0.3"><path d="
M 520.00 874.00 
C 520.00 874.04 521.00 874.00 521.00 874.00
C 521.25 873.75 521.00 873.00 521.00 873.00
C 521.00 833.33 521.00 793.67 521.00 754.00
C 530.33 754.00 539.67 754.00 549.00 754.00
C 549.00 759.33 549.00 764.67 549.00 770.00
C 550.21 770.07 550.36 768.57 551.00 768.00
C 552.88 757.15 548.49 752.23 538.00 753.00 C 527.51 753.77 518.56 751.10 520.00 763.00 C 521.44 774.90 519.29 780.52 520.00 791.00 C 520.71 801.48 519.56 809.18 520.00 819.00 C 520.44 828.82 519.53 837.52 520.00 847.00 C 520.47 856.48 519.16 864.69 520.00 874.00 Z"/>
</g>
<g fill="None" fill-opacity="0.0" stroke="#F7F7F7" stroke-opacity="1.00" stroke-width="0.3"><path d="
M 471.00 804.00 
C 472.88 791.92 468.17 779.66 458.23 773.77 C 448.29 767.88 435.35 769.77 427.75 777.75 C 420.16 785.74 414.37 805.11 429.00 804.00 C 443.63 802.89 456.52 804.83 471.00 804.00 Z"/>
</g>
<g fill="None" fill-opacity="0.0" stroke="#878787" stroke-opacity="1.00" stroke-width="0.3"><path d="
M 117.00 812.00 
C 117.00 799.00 117.00 786.00 117.00 773.00
C 115.82 785.18 115.81 799.74 117.00 812.00 Z"/>
</g>
<g fill="None" fill-opacity="0.0" stroke="#FBFBFB" stroke-opacity="1.00" stroke-width="0.3"><path d="
M 321.00 774.00 
C 298.67 770.37 285.26 786.73 285.00 807.00 C 284.74 827.27 285.25 847.11 306.93 853.07 C 328.61 859.03 342.33 839.41 342.00 821.00 C 341.67 802.59 343.25 777.61 321.00 774.00 Z"/>
</g>
<g fill="None" fill-opacity="0.0" stroke="#797979" stroke-opacity="1.00" stroke-width="0.3"><path d="
M 571.00 776.00 
C 573.82 775.74 577.19 775.71 580.00 776.00
C 576.78 775.29 574.26 775.32 571.00 776.00 Z"/>
</g>
<g fill="None" fill-opacity="0.0" stroke="#939393" stroke-opacity="1.00" stroke-width="0.3"><path d="
M 629.00 874.00 
C 634.10 868.90 628.30 854.62 630.00 847.00 C 631.70 839.38 629.10 827.31 630.00 819.00 C 630.90 810.69 629.75 799.73 629.00 792.00
C 629.00 819.33 629.00 846.67 629.00 874.00 Z"/>
</g>
<g fill="None" fill-opacity="0.0" stroke="#CDCDCD" stroke-opacity="1.00" stroke-width="0.3"><path d="
M 551.00 873.00 
C 548.86 876.06 541.02 873.46 537.00 874.00 C 532.98 874.54 525.35 874.00 521.00 874.00
C 521.00 874.00 520.00 874.04 520.00 874.00
C 525.60 879.82 533.72 871.70 542.00 875.00 C 550.28 878.30 553.58 869.57 552.00 862.00 C 550.42 854.43 552.38 847.44 552.00 840.00 C 551.62 832.56 551.57 824.29 552.00 817.00 C 552.43 809.71 550.76 802.36 551.00 796.00
C 550.16 802.28 551.60 809.77 551.00 816.00 C 550.40 822.23 551.75 829.05 551.00 835.00 C 550.25 840.95 552.41 848.58 551.00 854.00 C 549.59 859.42 554.00 868.71 551.00 873.00 Z"/>
</g>
<g fill="None" fill-opacity="0.0" stroke="#343434" stroke-opacity="1.00" stroke-width="0.3"><path d="
M 521.00 874.00 
C 525.35 874.00 532.98 874.54 537.00 874.00 C 541.02 873.46 548.86 876.06 551.00 873.00
C 541.06 873.68 530.92 872.09 521.00 873.00
C 521.00 873.00 521.25 873.75 521.00 874.00 Z"/>
</g>
<g fill="None" fill-opacity="0.0" stroke="#C7C7C7" stroke-opacity="1.00" stroke-width="0.3"><path d="
M 629.00 874.00 
C 619.00 874.00 609.00 874.00 599.00 874.00
C 600.86 876.65 610.62 874.89 614.00 875.00 C 617.38 875.11 626.64 876.36 629.00 874.00 Z"/>
</g>
<g fill="None" fill-opacity="0.0" stroke="#8A8A8A" stroke-opacity="1.00" stroke-width="0.3"><path d="
M 164.00 877.00 
C 160.33 877.00 156.67 877.00 153.00 877.00
C 156.39 877.33 160.54 877.33 164.00 877.00 Z"/>
</g>
<g fill="None" fill-opacity="0.0" stroke="#000000" stroke-opacity="0.03" stroke-width="0.3"><path d="
M 0.00 1000.00 
L 67.00 1000.00
C 36.85 989.08 9.91 962.77 0.00 932.00
L 0.00 1000.00 Z"/>
</g>
<g fill="None" fill-opacity="0.0" stroke="#000000" stroke-opacity="0.03" stroke-width="0.3"><path d="
M 932.00 1000.00 
L 1000.00 1000.00
L 1000.00 932.00
C 989.98 962.83 962.90 989.96 932.00 1000.00 Z"/>
</g>
<g fill="#000000" fill-opacity="0.02" stroke="None">
<path d="
M 0.00 67.00 
C 13.06 32.15 40.78 8.42 67.00 0.00
L 0.00 0.00
L 0.00 67.00 Z"/>
</g>
<g fill="#000000" fill-opacity="1.00" stroke="None">
<path d="
M 0.00 67.00 
L 0.00 932.00
C 9.91 962.77 36.85 989.08 67.00 1000.00
L 932.00 1000.00
C 962.90 989.96 989.98 962.83 1000.00 932.00
L 1000.00 67.00
C 986.56 31.79 958.73 7.42 932.00 0.00
L 67.00 0.00
C 40.78 8.42 13.06 32.15 0.00 67.00
M 909.00 5.00 
C 930.52 7.08 952.66 16.44 968.25 33.75 C 983.84 51.06 994.35 69.25 995.00 95.00 C 995.65 120.75 994.71 155.29 995.00 183.00 C 995.29 210.71 994.87 242.41 995.00 271.00 C 995.14 299.59 994.93 330.02 995.00 359.00 C 995.07 387.98 994.96 417.86 995.00 447.00 C 995.04 476.14 994.96 505.83 995.00 535.00 C 995.04 564.17 994.92 593.92 995.00 623.00 C 995.08 652.08 994.84 682.17 995.00 711.00 C 995.16 739.83 994.65 770.76 995.00 799.00 C 995.35 827.24 994.22 860.08 995.00 887.00 C 995.78 913.92 992.01 936.57 976.25 956.25 C 960.48 975.92 948.77 985.60 923.98 991.98 C 899.18 998.35 866.67 994.08 839.00 995.00 C 811.33 995.92 779.58 994.58 751.00 995.00 C 722.42 995.42 691.98 994.81 663.00 995.00 C 634.02 995.19 604.15 994.91 575.00 995.00 C 545.85 995.09 516.19 994.95 487.00 995.00 C 457.81 995.05 428.14 994.96 399.00 995.00 C 369.86 995.04 339.95 994.94 311.00 995.00 C 282.05 995.06 251.51 994.89 223.00 995.00 C 194.49 995.11 162.52 994.76 135.00 995.00 C 107.48 995.24 79.84 997.15 57.31 984.69 C 34.77 972.24 25.76 962.81 14.08 939.92 C 2.39 917.04 4.94 888.57 5.00 861.00 C 5.06 833.43 4.97 801.53 5.00 773.00 C 5.03 744.47 4.98 713.96 5.00 685.00 C 5.02 656.04 4.98 626.14 5.00 597.00 C 5.02 567.86 4.96 538.19 5.00 509.00 C 5.04 479.81 4.92 450.15 5.00 421.00 C 5.08 391.85 4.83 361.98 5.00 333.00 C 5.17 304.02 4.63 273.57 5.00 245.00 C 5.37 216.43 4.19 184.65 5.00 157.00 C 5.81 129.35 1.54 97.45 8.98 72.98 C 16.41 48.50 25.79 37.26 46.08 22.08 C 66.37 6.91 89.90 4.14 117.00 5.00 C 144.10 5.86 176.67 4.61 205.00 5.00 C 233.33 5.39 264.12 4.81 293.00 5.00 C 321.88 5.19 351.87 4.90 381.00 5.00 C 410.13 5.10 439.76 4.91 469.00 5.00 C 498.24 5.09 527.72 4.87 557.00 5.00 C 586.28 5.13 615.71 4.73 645.00 5.00 C 674.29 5.27 703.73 4.42 733.00 5.00 C 762.27 5.58 791.80 3.73 821.00 5.00 C 850.20 6.27 879.94 2.19 909.00 5.00 Z"/>
</g>
<g fill="#000000" fill-opacity="0.02" stroke="None">
<path d="
M 1000.00 67.00 
L 1000.00 0.00
L 932.00 0.00
C 958.73 7.42 986.56 31.79 1000.00 67.00 Z"/>
</g>
<g fill="#FEFEFE" fill-opacity="1.00" stroke="None">
<path d="
M 909.00 5.00 
C 879.94 2.19 850.20 6.27 821.00 5.00 C 791.80 3.73 762.27 5.58 733.00 5.00 C 703.73 4.42 674.29 5.27 645.00 5.00 C 615.71 4.73 586.28 5.13 557.00 5.00 C 527.72 4.87 498.24 5.09 469.00 5.00 C 439.76 4.91 410.13 5.10 381.00 5.00 C 351.87 4.90 321.88 5.19 293.00 5.00 C 264.12 4.81 233.33 5.39 205.00 5.00 C 176.67 4.61 144.10 5.86 117.00 5.00 C 89.90 4.14 66.37 6.91 46.08 22.08 C 25.79 37.26 16.41 48.50 8.98 72.98 C 1.54 97.45 5.81 129.35 5.00 157.00 C 4.19 184.65 5.37 216.43 5.00 245.00 C 4.63 273.57 5.17 304.02 5.00 333.00 C 4.83 361.98 5.08 391.85 5.00 421.00 C 4.92 450.15 5.04 479.81 5.00 509.00 C 4.96 538.19 5.02 567.86 5.00 597.00 C 4.98 626.14 5.02 656.04 5.00 685.00 C 4.98 713.96 5.03 744.47 5.00 773.00 C 4.97 801.53 5.06 833.43 5.00 861.00 C 4.94 888.57 2.39 917.04 14.08 939.92 C 25.76 962.81 34.77 972.24 57.31 984.69 C 79.84 997.15 107.48 995.24 135.00 995.00 C 162.52 994.76 194.49 995.11 223.00 995.00 C 251.51 994.89 282.05 995.06 311.00 995.00 C 339.95 994.94 369.86 995.04 399.00 995.00 C 428.14 994.96 457.81 995.05 487.00 995.00 C 516.19 994.95 545.85 995.09 575.00 995.00 C 604.15 994.91 634.02 995.19 663.00 995.00 C 691.98 994.81 722.42 995.42 751.00 995.00 C 779.58 994.58 811.33 995.92 839.00 995.00 C 866.67 994.08 899.18 998.35 923.98 991.98 C 948.77 985.60 960.48 975.92 976.25 956.25 C 992.01 936.57 995.78 913.92 995.00 887.00 C 994.22 860.08 995.35 827.24 995.00 799.00 C 994.65 770.76 995.16 739.83 995.00 711.00 C 994.84 682.17 995.08 652.08 995.00 623.00 C 994.92 593.92 995.04 564.17 995.00 535.00 C 994.96 505.83 995.04 476.14 995.00 447.00 C 994.96 417.86 995.07 387.98 995.00 359.00 C 994.93 330.02 995.14 299.59 995.00 271.00 C 994.87 242.41 995.29 210.71 995.00 183.00 C 994.71 155.29 995.65 120.75 995.00 95.00 C 994.35 69.25 983.84 51.06 968.25 33.75 C 952.66 16.44 930.52 7.08 909.00 5.00
M 720.00 325.00 
C 720.40 329.09 720.39 333.98 720.00 338.00
C 720.00 352.89 710.37 368.01 720.77 379.23 C 731.17 390.45 734.11 401.44 739.93 415.07 C 745.75 428.71 746.84 447.15 746.01 462.01 C 745.18 476.86 741.78 493.64 735.69 506.69 C 729.61 519.75 723.26 529.16 714.00 540.00
C 710.93 543.60 707.55 546.97 704.00 550.00
C 694.93 557.75 686.02 563.04 675.77 568.77 C 665.52 574.50 648.67 574.05 644.08 585.08 C 639.48 596.10 634.28 606.56 627.08 616.08 C 619.89 625.60 612.67 631.96 603.25 639.25 C 593.84 646.54 584.28 652.16 572.78 656.78 C 561.27 661.40 546.11 665.00 533.00 665.00
C 527.91 665.49 522.07 665.72 517.00 665.00
C 504.72 664.53 491.17 660.99 479.98 657.02 C 468.79 653.06 460.51 646.51 450.75 640.25 C 441.00 633.98 435.66 621.84 423.00 625.00 C 410.34 628.16 392.42 625.70 380.33 623.67 C 368.23 621.65 357.76 617.01 347.31 611.70 C 336.85 606.38 329.00 600.46 320.25 592.75 C 311.51 585.03 306.69 577.41 300.08 567.92 C 293.47 558.43 289.42 548.04 285.22 536.78 C 281.03 525.52 281.29 509.32 280.00 497.00 C 278.71 484.68 288.86 469.14 284.25 458.75 C 279.63 448.37 270.08 443.08 266.23 431.77 C 262.38 420.46 257.03 409.23 255.07 396.93 C 253.12 384.62 253.67 367.00 255.99 354.99 C 258.32 342.99 261.92 330.88 267.31 320.31 C 272.69 309.73 278.36 301.94 286.00 293.00
C 289.34 289.09 293.00 285.16 297.00 282.00
C 306.07 274.84 314.75 269.30 324.70 263.70 C 334.64 258.09 351.55 258.59 355.98 247.98 C 360.40 237.36 365.72 226.89 372.77 217.77 C 379.82 208.65 385.89 201.59 395.25 194.25 C 404.60 186.91 413.85 182.18 425.07 177.07 C 436.30 171.97 449.74 169.14 462.67 167.67 C 475.60 166.20 492.04 167.77 504.22 170.78 C 516.40 173.78 527.20 178.28 538.08 183.92 C 548.95 189.57 554.74 197.17 564.25 204.75 C 573.75 212.33 592.72 203.37 605.00 206.00 C 617.28 208.63 631.22 210.42 642.23 215.77 C 653.24 221.12 663.13 224.99 672.23 232.77 C 681.33 240.55 688.03 246.47 694.92 256.08 C 701.80 265.70 707.45 274.74 711.92 286.08 C 716.40 297.41 720.00 312.15 720.00 325.00
M 164.00 877.00 
C 160.54 877.33 156.39 877.33 153.00 877.00
C 120.17 877.00 89.54 852.81 86.22 819.78 C 82.90 786.75 81.54 742.82 110.23 722.23 C 138.92 701.64 175.51 700.47 205.08 720.92 C 234.65 741.37 232.67 784.73 230.07 818.07 C 227.47 851.41 197.52 877.00 164.00 877.00
M 740.00 711.00 
C 745.77 714.96 744.79 726.97 748.78 733.22 C 752.76 739.48 753.46 750.06 756.93 757.07 C 760.39 764.09 762.15 772.50 764.98 780.02 C 767.80 787.55 771.17 795.50 773.78 803.22 C 776.38 810.95 778.87 818.52 781.78 826.22 C 784.69 833.93 787.24 842.18 789.98 850.02 C 792.72 857.87 796.52 865.72 798.00 874.00
C 787.33 874.00 776.67 874.00 766.00 874.00
C 762.28 862.34 758.64 850.70 755.00 839.00
C 733.67 839.00 712.33 839.00 691.00 839.00
C 687.61 849.34 686.13 858.69 682.02 869.02 C 677.92 879.36 657.59 871.61 648.00 874.00
C 665.60 820.38 686.33 767.62 704.00 714.00
C 706.32 708.43 714.28 709.30 720.00 710.00 C 725.72 710.70 735.44 707.87 740.00 711.00
M 916.00 711.00 
C 917.21 712.73 916.00 719.79 916.00 722.00 C 916.00 724.21 917.21 731.27 916.00 733.00
C 913.30 736.86 904.12 732.10 900.00 734.00 C 895.88 735.90 885.75 731.37 882.00 734.00
C 877.62 738.38 882.26 749.38 881.00 756.00 C 879.74 762.62 881.60 772.72 881.00 780.00 C 880.40 787.28 881.26 795.37 881.00 803.00 C 880.74 810.63 881.14 819.19 881.00 827.00 C 880.86 834.81 881.10 843.14 881.00 851.00
C 892.67 851.00 904.33 851.00 916.00 851.00
C 916.00 858.67 916.00 866.33 916.00 874.00
C 882.67 874.00 849.33 874.00 816.00 874.00
C 816.00 866.33 816.00 858.67 816.00 851.00
C 827.67 851.00 839.33 851.00 851.00 851.00
C 851.00 812.00 851.00 773.00 851.00 734.00
C 845.77 733.20 837.98 735.07 833.00 734.00 C 828.02 732.93 819.37 736.50 816.00 733.00
C 815.37 726.06 815.37 717.94 816.00 711.00
C 819.60 707.23 829.50 710.94 835.00 710.00 C 840.50 709.06 848.99 710.20 855.00 710.00 C 861.01 709.80 870.07 709.69 876.00 710.00 C 881.93 710.31 890.83 708.88 896.00 710.00 C 901.17 711.12 913.21 707.01 916.00 711.00
M 328.00 751.00 
C 372.72 753.43 377.25 805.82 370.07 841.07 C 362.90 876.32 307.25 892.13 286.00 860.00
C 283.67 877.76 285.66 897.49 285.00 916.00
C 275.00 916.00 265.00 916.00 255.00 916.00
C 255.00 862.00 255.00 808.00 255.00 754.00
C 256.68 751.60 265.93 752.87 269.00 753.00 C 272.07 753.13 282.21 751.45 284.00 754.00
C 286.48 757.55 281.32 765.95 285.00 769.00
C 291.49 757.64 304.22 750.96 317.00 751.00
C 320.65 750.56 324.37 750.41 328.00 751.00
M 456.00 751.00 
C 491.46 753.81 506.17 790.60 501.00 823.00
C 488.62 822.66 477.51 823.46 465.00 823.00 C 452.49 822.54 440.84 823.86 428.00 823.00 C 415.16 822.14 420.12 838.93 425.31 846.70 C 430.49 854.46 441.89 858.02 451.00 857.00 C 460.11 855.98 468.20 850.51 474.25 843.25 C 480.29 835.98 489.63 848.92 497.00 851.00
C 478.27 886.52 413.10 886.80 395.08 850.92 C 377.06 815.03 389.61 752.23 437.00 751.00
C 442.97 749.93 450.10 749.86 456.00 751.00
M 593.00 751.00 
C 614.68 752.18 629.00 771.10 629.00 792.00
C 629.75 799.73 630.90 810.69 630.00 819.00 C 629.10 827.31 631.70 839.38 630.00 847.00 C 628.30 854.62 634.10 868.90 629.00 874.00
C 626.64 876.36 617.38 875.11 614.00 875.00 C 610.62 874.89 600.86 876.65 599.00 874.00
C 595.78 869.40 600.44 861.02 599.00 855.00 C 597.56 848.98 599.79 841.94 599.00 835.00 C 598.21 828.06 599.61 824.31 599.00 816.00 C 598.39 807.69 599.84 806.60 599.00 796.00 C 598.16 785.40 589.92 778.20 580.00 776.00
C 577.19 775.71 573.82 775.74 571.00 776.00
C 560.93 778.09 552.44 785.22 551.00 796.00
C 550.76 802.36 552.43 809.71 552.00 817.00 C 551.57 824.29 551.62 832.56 552.00 840.00 C 552.38 847.44 550.42 854.43 552.00 862.00 C 553.58 869.57 550.28 878.30 542.00 875.00 C 533.72 871.70 525.60 879.82 520.00 874.00
C 519.16 864.69 520.47 856.48 520.00 847.00 C 519.53 837.52 520.44 828.82 520.00 819.00 C 519.56 809.18 520.71 801.48 520.00 791.00 C 519.29 780.52 521.44 774.90 520.00 763.00 C 518.56 751.10 527.51 753.77 538.00 753.00 C 548.49 752.23 552.88 757.15 551.00 768.00
C 555.22 764.20 555.99 758.42 562.23 756.23 C 568.47 754.04 572.99 751.27 580.00 751.00
C 584.29 750.39 588.76 750.31 593.00 751.00 Z"/>
</g>
<g fill="#101010" fill-opacity="1.00" stroke="None">
<path d="
M 297.00 282.00 
C 293.35 285.37 289.48 289.52 286.00 293.00
C 278.36 301.94 272.69 309.73 267.31 320.31 C 261.92 330.88 258.32 342.99 255.99 354.99 C 253.67 367.00 253.12 384.62 255.07 396.93 C 257.03 409.23 262.38 420.46 266.23 431.77 C 270.08 443.08 279.63 448.37 284.25 458.75 C 288.86 469.14 278.71 484.68 280.00 497.00 C 281.29 509.32 281.03 525.52 285.22 536.78 C 289.42 548.04 293.47 558.43 300.08 567.92 C 306.69 577.41 311.51 585.03 320.25 592.75 C 329.00 600.46 336.85 606.38 347.31 611.70 C 357.76 617.01 368.23 621.65 380.33 623.67 C 392.42 625.70 410.34 628.16 423.00 625.00 C 435.66 621.84 441.00 633.98 450.75 640.25 C 460.51 646.51 468.79 653.06 479.98 657.02 C 491.17 660.99 504.72 664.53 517.00 665.00
C 522.32 665.20 527.68 665.00 533.00 665.00
C 546.11 665.00 561.27 661.40 572.78 656.78 C 584.28 652.16 593.84 646.54 603.25 639.25 C 612.67 631.96 619.89 625.60 627.08 616.08 C 634.28 606.56 639.48 596.10 644.08 585.08 C 648.67 574.05 665.52 574.50 675.77 568.77 C 686.02 563.04 694.93 557.75 704.00 550.00
C 707.25 546.75 710.79 543.21 714.00 540.00
C 723.26 529.16 729.61 519.75 735.69 506.69 C 741.78 493.64 745.18 476.86 746.01 462.01 C 746.84 447.15 745.75 428.71 739.93 415.07 C 734.11 401.44 731.17 390.45 720.77 379.23 C 710.37 368.01 720.00 352.89 720.00 338.00
C 720.00 333.67 720.00 329.33 720.00 325.00
C 720.00 312.15 716.40 297.41 711.92 286.08 C 707.45 274.74 701.80 265.70 694.92 256.08 C 688.03 246.47 681.33 240.55 672.23 232.77 C 663.13 224.99 653.24 221.12 642.23 215.77 C 631.22 210.42 617.28 208.63 605.00 206.00 C 592.72 203.37 573.75 212.33 564.25 204.75 C 554.74 197.17 548.95 189.57 538.08 183.92 C 527.20 178.28 516.40 173.78 504.22 170.78 C 492.04 167.77 475.60 166.20 462.67 167.67 C 449.74 169.14 436.30 171.97 425.07 177.07 C 413.85 182.18 404.60 186.91 395.25 194.25 C 385.89 201.59 379.82 208.65 372.77 217.77 C 365.72 226.89 360.40 237.36 355.98 247.98 C 351.55 258.59 334.64 258.09 324.70 263.70 C 314.75 269.30 306.07 274.84 297.00 282.00
M 424.00 292.00 
C 423.42 298.37 424.27 304.57 424.00 311.00 C 423.73 317.43 424.16 324.58 424.00 331.00 C 423.84 337.42 424.16 343.65 424.00 350.00 C 423.84 356.35 424.25 363.81 424.00 370.00 C 423.75 376.19 424.54 383.23 424.00 389.00 C 423.46 394.77 425.12 404.05 424.00 409.00 C 422.88 413.95 426.92 425.71 423.00 428.00
C 420.54 429.44 413.49 421.91 409.92 421.08 C 406.35 420.24 401.70 415.29 397.31 413.70 C 392.91 412.10 389.92 408.42 384.77 406.23 C 379.62 404.04 380.94 395.87 381.00 390.00 C 381.06 384.13 380.98 376.39 381.00 370.00 C 381.03 363.61 380.99 356.71 381.00 350.00 C 381.01 343.29 381.00 335.92 381.00 329.00 C 381.00 322.08 381.01 316.20 381.00 309.00 C 380.99 301.80 381.02 296.84 381.00 289.00 C 380.98 281.16 381.33 280.19 383.32 271.32 C 385.32 262.45 389.95 250.66 394.92 242.92 C 399.90 235.19 398.77 237.12 404.00 231.00
C 406.76 227.77 409.70 224.61 413.00 222.00
C 446.96 195.19 501.07 190.01 533.00 222.00
C 520.45 229.05 507.56 235.84 495.30 243.30 C 483.05 250.77 469.14 257.40 457.30 265.30 C 445.47 273.20 427.17 276.74 424.00 292.00
M 600.00 239.00 
C 653.52 239.00 695.92 295.47 687.00 347.00
C 667.18 340.40 647.85 321.83 628.77 314.23 C 609.69 306.63 587.92 280.80 566.92 288.92 C 545.92 297.05 529.58 312.98 509.30 322.30 C 489.03 331.63 471.51 346.69 451.00 355.00
C 451.22 342.25 450.70 325.34 451.00 313.00 C 451.30 300.66 465.95 299.61 474.23 293.23 C 482.51 286.85 492.93 283.48 501.70 277.69 C 510.46 271.91 518.97 267.56 528.23 262.23 C 537.49 256.90 545.69 251.51 555.70 246.69 C 565.70 241.88 579.34 238.91 591.00 239.00
C 593.82 238.73 597.24 238.73 600.00 239.00
M 319.00 448.00 
C 315.43 444.95 311.88 441.65 309.00 438.00
C 270.67 389.45 285.64 310.56 348.00 290.00
C 346.58 323.89 349.89 363.71 348.00 397.00 C 346.11 430.29 382.59 433.22 403.70 449.30 C 424.81 465.38 452.13 472.29 471.00 490.00
C 460.44 497.30 450.63 498.50 440.30 507.30 C 429.98 516.11 419.28 508.25 409.25 501.75 C 399.23 495.25 388.86 490.37 378.77 484.23 C 368.68 478.09 358.41 472.66 348.30 466.70 C 338.20 460.73 328.03 455.71 319.00 448.00
M 653.00 542.00 
C 653.94 508.54 651.75 467.73 653.00 435.00 C 654.25 402.27 619.03 398.94 597.77 383.23 C 576.51 367.52 550.69 359.08 529.00 344.00
C 539.30 334.88 551.24 331.81 562.69 323.70 C 574.15 315.58 586.33 328.09 597.75 334.25 C 609.16 340.42 621.16 347.77 632.70 354.30 C 644.23 360.84 656.06 367.62 667.69 374.31 C 679.33 380.99 688.20 389.47 696.25 400.75 C 704.31 412.02 710.05 425.02 712.78 439.22 C 715.50 453.42 713.47 474.03 708.07 487.07 C 702.68 500.12 696.74 510.77 686.75 520.75 C 676.76 530.73 666.10 538.06 653.00 542.00
M 549.00 445.00 
C 541.87 448.74 535.22 451.66 528.31 456.31 C 521.39 460.95 514.96 462.63 507.92 467.92 C 500.89 473.22 493.97 470.25 486.92 465.08 C 479.86 459.92 473.53 457.58 465.92 453.08 C 458.32 448.57 450.52 446.36 451.00 436.00 C 451.48 425.64 452.10 414.33 451.00 404.00 C 449.90 393.67 452.18 384.54 461.70 381.70 C 471.22 378.85 474.06 372.46 482.08 370.08 C 490.10 367.70 495.21 357.71 503.07 360.93 C 510.94 364.15 516.09 369.41 523.75 373.25 C 531.40 377.10 536.26 380.24 544.23 384.77 C 552.19 389.30 548.42 402.72 549.00 412.00 C 549.58 421.28 548.56 435.29 549.00 445.00
M 597.00 601.00 
C 593.66 604.91 590.00 608.84 586.00 612.00
C 551.87 638.95 501.11 640.16 467.00 612.00
C 479.56 602.98 493.11 596.67 506.70 588.69 C 520.28 580.72 532.33 573.48 546.25 565.25 C 560.16 557.01 579.31 552.65 577.00 532.00 C 574.69 511.35 578.19 489.92 577.00 469.00 C 575.81 448.08 577.89 426.03 577.00 405.00
C 592.05 410.61 605.11 421.74 620.00 428.00
C 614.11 485.78 636.45 554.12 597.00 601.00
M 548.00 527.00 
C 539.85 535.15 526.16 537.53 516.77 544.77 C 507.39 552.01 494.97 556.13 484.92 562.92 C 474.87 569.71 464.34 574.13 453.77 580.77 C 443.20 587.41 428.74 592.13 416.00 593.00
C 410.53 593.98 404.38 593.77 399.00 593.00
C 378.72 592.23 360.72 583.41 345.00 571.00
C 341.65 568.35 338.72 565.18 336.00 562.00
C 317.98 540.91 309.65 512.90 314.00 485.00
C 329.59 494.81 344.54 500.17 360.08 510.92 C 375.61 521.68 390.43 525.39 406.23 537.77 C 422.03 550.15 439.95 541.80 455.08 531.08 C 470.21 520.37 485.99 514.14 501.23 504.23 C 516.47 494.32 532.49 487.04 548.00 478.00
C 551.52 478.03 549.88 486.97 550.00 492.00 C 550.12 497.03 550.30 504.69 550.00 510.00 C 549.70 515.31 551.76 523.24 548.00 527.00 Z"/>
</g>
<g fill="#FDFDFD" fill-opacity="1.00" stroke="None">
<path d="
M 413.00 222.00 
C 410.04 224.74 406.82 228.18 404.00 231.00
C 398.77 237.12 399.90 235.19 394.92 242.92 C 389.95 250.66 385.32 262.45 383.32 271.32 C 381.33 280.19 380.98 281.16 381.00 289.00 C 381.02 296.84 380.99 301.80 381.00 309.00 C 381.01 316.20 381.00 322.08 381.00 329.00 C 381.00 335.92 381.01 343.29 381.00 350.00 C 380.99 356.71 381.03 363.61 381.00 370.00 C 380.98 376.39 381.06 384.13 381.00 390.00 C 380.94 395.87 379.62 404.04 384.77 406.23 C 389.92 408.42 392.91 412.10 397.31 413.70 C 401.70 415.29 406.35 420.24 409.92 421.08 C 413.49 421.91 420.54 429.44 423.00 428.00
C 424.17 405.59 421.44 382.33 423.00 360.00 C 424.56 337.67 419.60 313.26 424.00 292.00
C 427.17 276.74 445.47 273.20 457.30 265.30 C 469.14 257.40 483.05 250.77 495.30 243.30 C 507.56 235.84 520.45 229.05 533.00 222.00
C 501.07 190.01 446.96 195.19 413.00 222.00 Z"/>
</g>
<g fill="#727272" fill-opacity="1.00" stroke="None">
<path d="
M 404.00 231.00 
C 406.82 228.18 410.04 224.74 413.00 222.00
C 409.70 224.61 406.76 227.77 404.00 231.00 Z"/>
</g>
<g fill="#7B7B7B" fill-opacity="1.00" stroke="None">
<path d="
M 591.00 239.00 
C 594.00 239.00 597.00 239.00 600.00 239.00
C 597.24 238.73 593.82 238.73 591.00 239.00 Z"/>
</g>
<g fill="#FCFCFC" fill-opacity="1.00" stroke="None">
<path d="
M 600.00 239.00 
C 597.00 239.00 594.00 239.00 591.00 239.00
C 579.34 238.91 565.70 241.88 555.70 246.69 C 545.69 251.51 537.49 256.90 528.23 262.23 C 518.97 267.56 510.46 271.91 501.70 277.69 C 492.93 283.48 482.51 286.85 474.23 293.23 C 465.95 299.61 451.30 300.66 451.00 313.00 C 450.70 325.34 451.22 342.25 451.00 355.00
C 471.51 346.69 489.03 331.63 509.30 322.30 C 529.58 312.98 545.92 297.05 566.92 288.92 C 587.92 280.80 609.69 306.63 628.77 314.23 C 647.85 321.83 667.18 340.40 687.00 347.00
C 695.92 295.47 653.52 239.00 600.00 239.00 Z"/>
</g>
<g fill="#767676" fill-opacity="1.00" stroke="None">
<path d="
M 286.00 293.00 
C 289.48 289.52 293.35 285.37 297.00 282.00
C 293.00 285.16 289.34 289.09 286.00 293.00 Z"/>
</g>
<g fill="#FCFCFC" fill-opacity="1.00" stroke="None">
<path d="
M 309.00 438.00 
C 312.05 441.30 315.85 444.85 319.00 448.00
C 328.03 455.71 338.20 460.73 348.30 466.70 C 358.41 472.66 368.68 478.09 378.77 484.23 C 388.86 490.37 399.23 495.25 409.25 501.75 C 419.28 508.25 429.98 516.11 440.30 507.30 C 450.63 498.50 460.44 497.30 471.00 490.00
C 452.13 472.29 424.81 465.38 403.70 449.30 C 382.59 433.22 346.11 430.29 348.00 397.00 C 349.89 363.71 346.58 323.89 348.00 290.00
C 285.64 310.56 270.67 389.45 309.00 438.00 Z"/>
</g>
<g fill="#777777" fill-opacity="1.00" stroke="None">
<path d="
M 423.00 428.00 
C 426.92 425.71 422.88 413.95 424.00 409.00 C 425.12 404.05 423.46 394.77 424.00 389.00 C 424.54 383.23 423.75 376.19 424.00 370.00 C 424.25 363.81 423.84 356.35 424.00 350.00 C 424.16 343.65 423.84 337.42 424.00 331.00 C 424.16 324.58 423.73 317.43 424.00 311.00 C 424.27 304.57 423.42 298.37 424.00 292.00
C 419.60 313.26 424.56 337.67 423.00 360.00 C 421.44 382.33 424.17 405.59 423.00 428.00 Z"/>
</g>
<g fill="#FCFCFC" fill-opacity="1.00" stroke="None">
<path d="
M 653.00 542.00 
C 666.10 538.06 676.76 530.73 686.75 520.75 C 696.74 510.77 702.68 500.12 708.07 487.07 C 713.47 474.03 715.50 453.42 712.78 439.22 C 710.05 425.02 704.31 412.02 696.25 400.75 C 688.20 389.47 679.33 380.99 667.69 374.31 C 656.06 367.62 644.23 360.84 632.70 354.30 C 621.16 347.77 609.16 340.42 597.75 334.25 C 586.33 328.09 574.15 315.58 562.69 323.70 C 551.24 331.81 539.30 334.88 529.00 344.00
C 550.69 359.08 576.51 367.52 597.77 383.23 C 619.03 398.94 654.25 402.27 653.00 435.00 C 651.75 467.73 653.94 508.54 653.00 542.00 Z"/>
</g>
<g fill="#868686" fill-opacity="1.00" stroke="None">
<path d="
M 720.00 338.00 
C 720.39 333.98 720.40 329.09 720.00 325.00
C 720.00 329.33 720.00 333.67 720.00 338.00 Z"/>
</g>
<g fill="#FCFCFC" fill-opacity="1.00" stroke="None">
<path d="
M 549.00 445.00 
C 548.56 435.29 549.58 421.28 549.00 412.00 C 548.42 402.72 552.19 389.30 544.23 384.77 C 536.26 380.24 531.40 377.10 523.75 373.25 C 516.09 369.41 510.94 364.15 503.07 360.93 C 495.21 357.71 490.10 367.70 482.08 370.08 C 474.06 372.46 471.22 378.85 461.70 381.70 C 452.18 384.54 449.90 393.67 451.00 404.00 C 452.10 414.33 451.48 425.64 451.00 436.00 C 450.52 446.36 458.32 448.57 465.92 453.08 C 473.53 457.58 479.86 459.92 486.92 465.08 C 493.97 470.25 500.89 473.22 507.92 467.92 C 514.96 462.63 521.39 460.95 528.31 456.31 C 535.22 451.66 541.87 448.74 549.00 445.00 Z"/>
</g>
<g fill="#FBFBFB" fill-opacity="1.00" stroke="None">
<path d="
M 586.00 612.00 
C 589.65 608.63 593.52 604.48 597.00 601.00
C 636.45 554.12 614.11 485.78 620.00 428.00
C 605.11 421.74 592.05 410.61 577.00 405.00
C 577.89 426.03 575.81 448.08 577.00 469.00 C 578.19 489.92 574.69 511.35 577.00 532.00 C 579.31 552.65 560.16 557.01 546.25 565.25 C 532.33 573.48 520.28 580.72 506.70 588.69 C 493.11 596.67 479.56 602.98 467.00 612.00
C 501.11 640.16 551.87 638.95 586.00 612.00 Z"/>
</g>
<g fill="#7A7A7A" fill-opacity="1.00" stroke="None">
<path d="
M 319.00 448.00 
C 315.85 444.85 312.05 441.30 309.00 438.00
C 311.88 441.65 315.43 444.95 319.00 448.00 Z"/>
</g>
<g fill="#7A7A7A" fill-opacity="1.00" stroke="None">
<path d="
M 548.00 478.00 
C 551.21 479.91 548.43 489.98 549.00 494.00 C 549.57 498.02 549.23 506.57 549.00 511.00 C 548.77 515.43 550.64 523.30 548.00 527.00
C 551.76 523.24 549.70 515.31 550.00 510.00 C 550.30 504.69 550.12 497.03 550.00 492.00 C 549.88 486.97 551.52 478.03 548.00 478.00 Z"/>
</g>
<g fill="#FCFCFC" fill-opacity="1.00" stroke="None">
<path d="
M 336.00 562.00 
C 338.86 564.86 342.09 568.31 345.00 571.00
C 360.72 583.41 378.72 592.23 399.00 593.00
C 404.56 593.21 410.45 593.38 416.00 593.00
C 428.74 592.13 443.20 587.41 453.77 580.77 C 464.34 574.13 474.87 569.71 484.92 562.92 C 494.97 556.13 507.39 552.01 516.77 544.77 C 526.16 537.53 539.85 535.15 548.00 527.00
C 550.64 523.30 548.77 515.43 549.00 511.00 C 549.23 506.57 549.57 498.02 549.00 494.00 C 548.43 489.98 551.21 479.91 548.00 478.00
C 532.49 487.04 516.47 494.32 501.23 504.23 C 485.99 514.14 470.21 520.37 455.08 531.08 C 439.95 541.80 422.03 550.15 406.23 537.77 C 390.43 525.39 375.61 521.68 360.08 510.92 C 344.54 500.17 329.59 494.81 314.00 485.00
C 309.65 512.90 317.98 540.91 336.00 562.00 Z"/>
</g>
<g fill="#777777" fill-opacity="1.00" stroke="None">
<path d="
M 704.00 550.00 
C 707.55 546.97 710.93 543.60 714.00 540.00
C 710.79 543.21 707.25 546.75 704.00 550.00 Z"/>
</g>
<g fill="#7D7D7D" fill-opacity="1.00" stroke="None">
<path d="
M 345.00 571.00 
C 342.09 568.31 338.86 564.86 336.00 562.00
C 338.72 565.18 341.65 568.35 345.00 571.00 Z"/>
</g>
<g fill="#888888" fill-opacity="1.00" stroke="None">
<path d="
M 416.00 593.00 
C 410.45 593.38 404.56 593.21 399.00 593.00
C 404.38 593.77 410.53 593.98 416.00 593.00 Z"/>
</g>
<g fill="#888888" fill-opacity="1.00" stroke="None">
<path d="
M 586.00 612.00 
C 590.00 608.84 593.66 604.91 597.00 601.00
C 593.52 604.48 589.65 608.63 586.00 612.00 Z"/>
</g>
<g fill="#858585" fill-opacity="1.00" stroke="None">
<path d="
M 533.00 665.00 
C 527.68 665.00 522.32 665.20 517.00 665.00
C 522.07 665.72 527.91 665.49 533.00 665.00 Z"/>
</g>
<g fill="#111111" fill-opacity="1.00" stroke="None">
<path d="
M 153.00 877.00 
C 156.67 877.00 160.33 877.00 164.00 877.00
C 197.52 877.00 227.47 851.41 230.07 818.07 C 232.67 784.73 234.65 741.37 205.08 720.92 C 175.51 700.47 138.92 701.64 110.23 722.23 C 81.54 742.82 82.90 786.75 86.22 819.78 C 89.54 852.81 120.17 877.00 153.00 877.00
M 164.00 732.00 
C 181.93 733.22 197.98 748.03 199.00 767.00 C 200.02 785.98 203.09 813.04 195.22 831.22 C 187.35 849.41 166.72 855.80 147.98 852.02 C 129.23 848.25 117.00 831.10 117.00 812.00
C 115.81 799.74 115.82 785.18 117.00 773.00
C 117.00 752.77 130.83 733.44 152.00 732.00
C 156.05 731.27 160.01 731.29 164.00 732.00 Z"/>
</g>
<g fill="#828282" fill-opacity="1.00" stroke="None">
<path d="
M 704.00 714.00 
C 706.49 709.63 714.94 710.12 720.00 711.00 C 725.06 711.88 735.27 708.79 740.00 711.00
C 735.44 707.87 725.72 710.70 720.00 710.00 C 714.28 709.30 706.32 708.43 704.00 714.00 Z"/>
</g>
<g fill="#818181" fill-opacity="1.00" stroke="None">
<path d="
M 816.00 711.00 
C 816.00 710.96 817.00 711.00 817.00 711.00
C 850.00 711.00 883.00 711.00 916.00 711.00
C 913.21 707.01 901.17 711.12 896.00 710.00 C 890.83 708.88 881.93 710.31 876.00 710.00 C 870.07 709.69 861.01 709.80 855.00 710.00 C 848.99 710.20 840.50 709.06 835.00 710.00 C 829.50 710.94 819.60 707.23 816.00 711.00 Z"/>
</g>
<g fill="#111111" fill-opacity="1.00" stroke="None">
<path d="
M 704.00 714.00 
C 686.33 767.62 665.60 820.38 648.00 874.00
C 657.59 871.61 677.92 879.36 682.02 869.02 C 686.13 858.69 687.61 849.34 691.00 839.00
C 712.33 839.00 733.67 839.00 755.00 839.00
C 758.64 850.70 762.28 862.34 766.00 874.00
C 776.67 874.00 787.33 874.00 798.00 874.00
C 796.52 865.72 792.72 857.87 789.98 850.02 C 787.24 842.18 784.69 833.93 781.78 826.22 C 778.87 818.52 776.38 810.95 773.78 803.22 C 771.17 795.50 767.80 787.55 764.98 780.02 C 762.15 772.50 760.39 764.09 756.93 757.07 C 753.46 750.06 752.76 739.48 748.78 733.22 C 744.79 726.97 745.77 714.96 740.00 711.00
C 735.27 708.79 725.06 711.88 720.00 711.00 C 714.94 710.12 706.49 709.63 704.00 714.00
M 747.00 816.00 
C 731.00 816.00 715.00 816.00 699.00 816.00
C 706.14 790.53 714.55 764.78 723.00 740.00
C 731.64 764.75 739.57 790.56 747.00 816.00 Z"/>
</g>
<g fill="#4C4C4C" fill-opacity="1.00" stroke="None">
<path d="
M 816.00 733.00 
C 816.00 733.04 817.00 733.00 817.00 733.00
C 817.63 726.06 817.62 717.94 817.00 711.00
C 817.00 711.00 816.00 710.96 816.00 711.00
C 815.37 717.94 815.37 726.06 816.00 733.00 Z"/>
</g>
<g fill="#111111" fill-opacity="1.00" stroke="None">
<path d="
M 817.00 733.00 
C 821.64 733.00 829.70 732.22 834.00 733.00 C 838.30 733.78 848.63 730.61 851.00 734.00
C 851.00 773.00 851.00 812.00 851.00 851.00
C 839.33 851.00 827.67 851.00 816.00 851.00
C 816.00 858.67 816.00 866.33 816.00 874.00
C 849.33 874.00 882.67 874.00 916.00 874.00
C 916.00 866.33 916.00 858.67 916.00 851.00
C 904.33 851.00 892.67 851.00 881.00 851.00
C 881.10 843.14 880.86 834.81 881.00 827.00 C 881.14 819.19 880.74 810.63 881.00 803.00 C 881.26 795.37 880.40 787.28 881.00 780.00 C 881.60 772.72 879.74 762.62 881.00 756.00 C 882.26 749.38 877.62 738.38 882.00 734.00
C 885.38 730.62 893.05 733.95 898.00 733.00 C 902.95 732.05 910.79 733.71 916.00 733.00
C 917.21 731.27 916.00 724.21 916.00 722.00 C 916.00 719.79 917.21 712.73 916.00 711.00
C 883.00 711.00 850.00 711.00 817.00 711.00
C 817.62 717.94 817.63 726.06 817.00 733.00 Z"/>
</g>
<g fill="#636363" fill-opacity="1.00" stroke="None">
<path d="
M 152.00 732.00 
C 155.87 731.74 160.13 731.74 164.00 732.00
C 160.01 731.29 156.05 731.27 152.00 732.00 Z"/>
</g>
<g fill="#FDFDFD" fill-opacity="1.00" stroke="None">
<path d="
M 117.00 773.00 
C 117.00 786.00 117.00 799.00 117.00 812.00
C 117.00 831.10 129.23 848.25 147.98 852.02 C 166.72 855.80 187.35 849.41 195.22 831.22 C 203.09 813.04 200.02 785.98 199.00 767.00 C 197.98 748.03 181.93 733.22 164.00 732.00
C 160.13 731.74 155.87 731.74 152.00 732.00
C 130.83 733.44 117.00 752.77 117.00 773.00 Z"/>
</g>
<g fill="#707070" fill-opacity="1.00" stroke="None">
<path d="
M 851.00 734.00 
C 848.63 730.61 838.30 733.78 834.00 733.00 C 829.70 732.22 821.64 733.00 817.00 733.00
C 817.00 733.00 816.00 733.04 816.00 733.00
C 819.37 736.50 828.02 732.93 833.00 734.00 C 837.98 735.07 845.77 733.20 851.00 734.00 Z"/>
</g>
<g fill="#707070" fill-opacity="1.00" stroke="None">
<path d="
M 882.00 734.00 
C 885.75 731.37 895.88 735.90 900.00 734.00 C 904.12 732.10 913.30 736.86 916.00 733.00
C 910.79 733.71 902.95 732.05 898.00 733.00 C 893.05 733.95 885.38 730.62 882.00 734.00 Z"/>
</g>
<g fill="#F8F8F8" fill-opacity="1.00" stroke="None">
<path d="
M 747.00 816.00 
C 739.57 790.56 731.64 764.75 723.00 740.00
C 714.55 764.78 706.14 790.53 699.00 816.00
C 715.00 816.00 731.00 816.00 747.00 816.00 Z"/>
</g>
<g fill="#979797" fill-opacity="1.00" stroke="None">
<path d="
M 317.00 751.00 
C 320.63 750.93 324.37 750.80 328.00 751.00
C 324.37 750.41 320.65 750.56 317.00 751.00 Z"/>
</g>
<g fill="#929292" fill-opacity="1.00" stroke="None">
<path d="
M 437.00 751.00 
C 443.10 750.58 449.90 750.52 456.00 751.00
C 450.10 749.86 442.97 749.93 437.00 751.00 Z"/>
</g>
<g fill="#939393" fill-opacity="1.00" stroke="None">
<path d="
M 580.00 751.00 
C 584.27 750.84 588.73 750.77 593.00 751.00
C 588.76 750.31 584.29 750.39 580.00 751.00 Z"/>
</g>
<g fill="#111111" fill-opacity="1.00" stroke="None">
<path d="
M 284.00 754.00 
C 274.33 754.00 264.67 754.00 255.00 754.00
C 255.00 808.00 255.00 862.00 255.00 916.00
C 265.00 916.00 275.00 916.00 285.00 916.00
C 285.66 897.49 283.67 877.76 286.00 860.00
C 307.25 892.13 362.90 876.32 370.07 841.07 C 377.25 805.82 372.72 753.43 328.00 751.00
C 324.37 750.80 320.63 750.93 317.00 751.00
C 304.22 750.96 291.49 757.64 285.00 769.00
C 281.32 765.95 286.48 757.55 284.00 754.00
M 321.00 774.00 
C 343.25 777.61 341.67 802.59 342.00 821.00 C 342.33 839.41 328.61 859.03 306.93 853.07 C 285.25 847.11 284.74 827.27 285.00 807.00 C 285.26 786.73 298.67 770.37 321.00 774.00 Z"/>
</g>
<g fill="#111111" fill-opacity="1.00" stroke="None">
<path d="
M 456.00 751.00 
C 449.90 750.52 443.10 750.58 437.00 751.00
C 389.61 752.23 377.06 815.03 395.08 850.92 C 413.10 886.80 478.27 886.52 497.00 851.00
C 489.63 848.92 480.29 835.98 474.25 843.25 C 468.20 850.51 460.11 855.98 451.00 857.00 C 441.89 858.02 430.49 854.46 425.31 846.70 C 420.12 838.93 415.16 822.14 428.00 823.00 C 440.84 823.86 452.49 822.54 465.00 823.00 C 477.51 823.46 488.62 822.66 501.00 823.00
C 506.17 790.60 491.46 753.81 456.00 751.00
M 471.00 804.00 
C 456.52 804.83 443.63 802.89 429.00 804.00 C 414.37 805.11 420.16 785.74 427.75 777.75 C 435.35 769.77 448.29 767.88 458.23 773.77 C 468.17 779.66 472.88 791.92 471.00 804.00 Z"/>
</g>
<g fill="#101010" fill-opacity="1.00" stroke="None">
<path d="
M 551.00 768.00 
C 550.36 768.57 550.21 770.07 549.00 770.00
C 549.00 764.67 549.00 759.33 549.00 754.00
C 539.67 754.00 530.33 754.00 521.00 754.00
C 521.00 793.67 521.00 833.33 521.00 873.00
C 530.92 872.09 541.06 873.68 551.00 873.00
C 554.00 868.71 549.59 859.42 551.00 854.00 C 552.41 848.58 550.25 840.95 551.00 835.00 C 551.75 829.05 550.40 822.23 551.00 816.00 C 551.60 809.77 550.16 802.28 551.00 796.00
C 552.44 785.22 560.93 778.09 571.00 776.00
C 574.26 775.32 576.78 775.29 580.00 776.00
C 589.92 778.20 598.16 785.40 599.00 796.00 C 599.84 806.60 598.39 807.69 599.00 816.00 C 599.61 824.31 598.21 828.06 599.00 835.00 C 599.79 841.94 597.56 848.98 599.00 855.00 C 600.44 861.02 595.78 869.40 599.00 874.00
C 609.00 874.00 619.00 874.00 629.00 874.00
C 629.00 846.67 629.00 819.33 629.00 792.00
C 629.00 771.10 614.68 752.18 593.00 751.00
C 588.73 750.77 584.27 750.84 580.00 751.00
C 572.99 751.27 568.47 754.04 562.23 756.23 C 555.99 758.42 555.22 764.20 551.00 768.00 Z"/>
</g>
<g fill="#7F7F7F" fill-opacity="1.00" stroke="None">
<path d="
M 255.00 754.00 
C 264.67 754.00 274.33 754.00 284.00 754.00
C 282.21 751.45 272.07 753.13 269.00 753.00 C 265.93 752.87 256.68 751.60 255.00 754.00 Z"/>
</g>
<g fill="#8B8B8B" fill-opacity="1.00" stroke="None">
<path d="
M 520.00 874.00 
C 520.00 874.04 521.00 874.00 521.00 874.00
C 521.25 873.75 521.00 873.00 521.00 873.00
C 521.00 833.33 521.00 793.67 521.00 754.00
C 530.33 754.00 539.67 754.00 549.00 754.00
C 549.00 759.33 549.00 764.67 549.00 770.00
C 550.21 770.07 550.36 768.57 551.00 768.00
C 552.88 757.15 548.49 752.23 538.00 753.00 C 527.51 753.77 518.56 751.10 520.00 763.00 C 521.44 774.90 519.29 780.52 520.00 791.00 C 520.71 801.48 519.56 809.18 520.00 819.00 C 520.44 828.82 519.53 837.52 520.00 847.00 C 520.47 856.48 519.16 864.69 520.00 874.00 Z"/>
</g>
<g fill="#F7F7F7" fill-opacity="1.00" stroke="None">
<path d="
M 471.00 804.00 
C 472.88 791.92 468.17 779.66 458.23 773.77 C 448.29 767.88 435.35 769.77 427.75 777.75 C 420.16 785.74 414.37 805.11 429.00 804.00 C 443.63 802.89 456.52 804.83 471.00 804.00 Z"/>
</g>
<g fill="#878787" fill-opacity="1.00" stroke="None">
<path d="
M 117.00 812.00 
C 117.00 799.00 117.00 786.00 117.00 773.00
C 115.82 785.18 115.81 799.74 117.00 812.00 Z"/>
</g>
<g fill="#FBFBFB" fill-opacity="1.00" stroke="None">
<path d="
M 321.00 774.00 
C 298.67 770.37 285.26 786.73 285.00 807.00 C 284.74 827.27 285.25 847.11 306.93 853.07 C 328.61 859.03 342.33 839.41 342.00 821.00 C 341.67 802.59 343.25 777.61 321.00 774.00 Z"/>
</g>
<g fill="#797979" fill-opacity="1.00" stroke="None">
<path d="
M 571.00 776.00 
C 573.82 775.74 577.19 775.71 580.00 776.00
C 576.78 775.29 574.26 775.32 571.00 776.00 Z"/>
</g>
<g fill="#939393" fill-opacity="1.00" stroke="None">
<path d="
M 629.00 874.00 
C 634.10 868.90 628.30 854.62 630.00 847.00 C 631.70 839.38 629.10 827.31 630.00 819.00 C 630.90 810.69 629.75 799.73 629.00 792.00
C 629.00 819.33 629.00 846.67 629.00 874.00 Z"/>
</g>
<g fill="#CDCDCD" fill-opacity="1.00" stroke="None">
<path d="
M 551.00 873.00 
C 548.86 876.06 541.02 873.46 537.00 874.00 C 532.98 874.54 525.35 874.00 521.00 874.00
C 521.00 874.00 520.00 874.04 520.00 874.00
C 525.60 879.82 533.72 871.70 542.00 875.00 C 550.28 878.30 553.58 869.57 552.00 862.00 C 550.42 854.43 552.38 847.44 552.00 840.00 C 551.62 832.56 551.57 824.29 552.00 817.00 C 552.43 809.71 550.76 802.36 551.00 796.00
C 550.16 802.28 551.60 809.77 551.00 816.00 C 550.40 822.23 551.75 829.05 551.00 835.00 C 550.25 840.95 552.41 848.58 551.00 854.00 C 549.59 859.42 554.00 868.71 551.00 873.00 Z"/>
</g>
<g fill="#343434" fill-opacity="1.00" stroke="None">
<path d="
M 521.00 874.00 
C 525.35 874.00 532.98 874.54 537.00 874.00 C 541.02 873.46 548.86 876.06 551.00 873.00
C 541.06 873.68 530.92 872.09 521.00 873.00
C 521.00 873.00 521.25 873.75 521.00 874.00 Z"/>
</g>
<g fill="#C7C7C7" fill-opacity="1.00" stroke="None">
<path d="
M 629.00 874.00 
C 619.00 874.00 609.00 874.00 599.00 874.00
C 600.86 876.65 610.62 874.89 614.00 875.00 C 617.38 875.11 626.64 876.36 629.00 874.00 Z"/>
</g>
<g fill="#8A8A8A" fill-opacity="1.00" stroke="None">
<path d="
M 164.00 877.00 
C 160.33 877.00 156.67 877.00 153.00 877.00
C 156.39 877.33 160.54 877.33 164.00 877.00 Z"/>
</g>
<g fill="#000000" fill-opacity="0.03" stroke="None">
<path d="
M 0.00 1000.00 
L 67.00 1000.00
C 36.85 989.08 9.91 962.77 0.00 932.00
L 0.00 1000.00 Z"/>
</g>
<g fill="#000000" fill-opacity="0.03" stroke="None">
<path d="
M 932.00 1000.00 
L 1000.00 1000.00
L 1000.00 932.00
C 989.98 962.83 962.90 989.96 932.00 1000.00 Z"/>
</g>
</svg>