<?xml version="1.0" encoding="UTF-8"?>
<svg version="1.1" xmlns="http://www.w3.org/2000/svg" width="1200" height="1200">
<path d="M0 0 C396 0 792 0 1200 0 C1200 396 1200 792 1200 1200 C804 1200 408 1200 0 1200 C0 804 0 408 0 0 Z " fill="#636363" transform="translate(0,0)"/>
<path d="M0 0 C396 0 792 0 1200 0 C1200 396 1200 792 1200 1200 C804 1200 408 1200 0 1200 C0 804 0 408 0 0 Z M86 86 C86 425.24 86 764.48 86 1114 C425.24 1114 764.48 1114 1114 1114 C1114 774.76 1114 435.52 1114 86 C774.76 86 435.52 86 86 86 Z " fill="#E4D8BE" transform="translate(0,0)"/>
<path d="M0 0 C1.96749395 -0.00597261 1.96749395 -0.00597261 3.97473526 -0.01206589 C5.42265201 -0.00636238 6.87056804 -0.00047163 8.31848335 0.00558662 C9.85848753 0.00471143 11.39849142 0.00295697 12.93849373 0.00039864 C17.17600338 -0.00408788 21.41341198 0.00394036 25.6509088 0.0139502 C30.28853397 0.02267867 34.92615442 0.01976129 39.56378555 0.01831436 C48.56772933 0.01725066 57.57163324 0.02648902 66.57556678 0.03931702 C76.9895609 0.05371014 87.40353104 0.05530614 97.81753731 0.05688667 C125.31550913 0.06738977 152.81347206 0.09531197 180.31143379 0.12109566 C241.73268379 0.16234566 303.15393379 0.20359566 366.43643379 0.24609566 C366.43643379 170.19609566 366.43643379 340.14609566 366.43643379 515.24609566 C305.09768379 515.32859566 243.75893379 515.41109566 180.56143379 515.49609566 C151.48815987 515.55071968 151.48815987 515.55071968 121.82754707 515.60644722 C98.19595528 515.62451363 98.19595528 515.62451363 87.14001656 515.62787056 C79.40290668 515.63160364 71.66591208 515.64628872 63.92883492 515.6683979 C55.00603587 515.69385768 46.08334755 515.7054398 37.1605119 515.69987546 C32.5959781 515.69746552 28.03169179 515.7012893 23.46720338 515.72295618 C19.33720089 515.74244141 15.20762058 515.74337667 11.07759857 515.72970009 C9.58699386 515.72800778 8.09636252 515.73304741 6.60580993 515.74562597 C-4.40558869 515.83306505 -13.71919721 514.71232085 -22.02840996 506.95312691 C-28.36641697 499.90552114 -29.71659174 493.66844006 -29.69778728 484.33424282 C-29.70013952 483.53962231 -29.70249175 482.74500179 -29.70491526 481.92630187 C-29.71159296 479.25320775 -29.7111474 476.58016238 -29.71073723 473.90706062 C-29.7140366 471.97534015 -29.71776233 470.04362037 -29.72187871 468.11190146 C-29.73189819 462.79516519 -29.73561541 457.47844021 -29.73826802 452.16169584 C-29.74217114 446.43079103 -29.75174938 440.69989515 -29.76048088 434.96899605 C-29.78024361 421.12590079 -29.79031063 407.2828048 -29.79920867 393.43969896 C-29.80359132 386.92237664 -29.80895814 380.40505514 -29.81419754 373.88773346 C-29.83120856 352.2263374 -29.84572844 330.56494227 -29.85294628 308.90354061 C-29.85342104 307.50291591 -29.85389693 306.10229121 -29.85437394 304.70166652 C-29.85461032 304.00708853 -29.8548467 303.31251055 -29.85509023 302.59688474 C-29.85629142 299.07785543 -29.85750688 295.55882613 -29.85873222 292.03979683 C-29.85897237 291.34143763 -29.85921252 290.64307843 -29.85945995 289.92355683 C-29.86735343 267.27949616 -29.89078713 244.63548787 -29.92328817 221.99145008 C-29.95759198 198.04765941 -29.97729674 174.10390071 -29.98059052 150.1600849 C-29.98275693 137.10917588 -29.99152501 124.05834386 -30.0170517 111.00745773 C-30.03873685 99.89491663 -30.04681979 88.78247122 -30.03708491 77.66991136 C-30.03253411 71.99984186 -30.03447207 66.3299699 -30.05384636 60.65992737 C-30.07143446 55.46782076 -30.07051553 50.27605646 -30.05494907 45.08394643 C-30.05256641 43.20707563 -30.05693053 41.33018139 -30.06877772 39.45334647 C-30.13338148 28.54168441 -29.72927871 20.03466418 -23.87606621 10.49609566 C-17.01096505 3.81653777 -9.6778487 -0.00649956 0 0 Z " fill="#E15113" transform="translate(233.56356620788574,197.75390434265137)"/>
<path d="M0 0 C65.34 0 130.68 0 198 0 C198 169.95 198 339.9 198 515 C132.66 515 67.32 515 0 515 C0 345.05 0 175.1 0 0 Z " fill="#5DD03E" transform="translate(600,198)"/>
<path d="M0 0 C182.13924637 0 182.13924637 0 190.4474774 8.09252948 C198.80523423 18.36109162 198.85397655 28.6338164 198.74171448 41.18754578 C198.74648503 43.12602751 198.75388206 45.06450425 198.76366371 47.00296718 C198.78282948 52.30606325 198.7647592 57.60846787 198.74037087 62.91151822 C198.72058063 68.63957097 198.73549804 74.36754889 198.74601746 80.09561157 C198.76112066 91.30665207 198.74424802 102.5174265 198.71646655 113.72843393 C198.68527561 126.78573369 198.68552614 139.84297631 198.68698429 152.90030632 C198.68853061 176.90024629 198.65844524 200.90004954 198.61347697 224.89994226 C198.57259328 246.80058388 198.55389385 268.70112719 198.5559082 290.60180664 C198.55602944 292.00853352 198.55615052 293.41526041 198.55627144 294.82198729 C198.55636302 295.86518668 198.55636302 295.86518668 198.55645645 296.92946081 C198.55675884 300.43048846 198.55703059 303.9315161 198.55726719 307.43254375 C198.5573424 308.46863826 198.5573424 308.46863826 198.55741913 309.52566397 C198.55875013 331.76839693 198.53738971 354.01110924 198.51417865 376.25382846 C198.50513138 385.35532874 198.5019402 394.45682053 198.50058174 403.55832481 C198.49853505 414.64767955 198.4851367 425.73695638 198.45758332 436.82627805 C198.44373614 442.48407305 198.43459036 448.14176844 198.43836594 453.79958153 C198.44165469 458.97899609 198.43107393 464.15819044 198.40942036 469.33755908 C198.40398782 471.21082614 198.40358228 473.08411595 198.40872223 474.95738383 C198.44104737 488.20564161 198.01388896 497.77153335 188.41015625 507.828125 C141.72130759 549.90105832 62.84886879 515 0 515 C0 345.05 0 175.1 0 0 Z " fill="#1392DE" transform="translate(798,198)"/>
<path d="M0 0 C65.34 0 130.68 0 198 0 C198 169.29 198 338.58 198 513 C132.66 513 67.32 513 0 513 C0 343.71 0 174.42 0 0 Z " fill="#FED400" transform="translate(402,199)"/>
<path d="M0 0 C1.31129883 -0.01007584 2.62259766 -0.02015167 3.97363281 -0.03053284 C7.56065371 -0.05696337 11.14745972 -0.06406344 14.7345686 -0.0659802 C16.97966666 -0.06811726 19.22471064 -0.07453075 21.46979523 -0.08247185 C29.31388294 -0.11020526 37.15781801 -0.12248026 45.00195312 -0.12011719 C52.29461992 -0.11831672 59.58661963 -0.14994067 66.87911773 -0.19734818 C73.15538316 -0.23668387 79.43143159 -0.25266428 85.70781922 -0.25075096 C89.44965484 -0.249989 93.19089758 -0.25837343 96.93260956 -0.29028511 C101.11178025 -0.32495606 105.2894743 -0.31102305 109.46875 -0.29296875 C110.69507141 -0.30982727 111.92139282 -0.32668579 113.18487549 -0.34405518 C121.18382139 -0.25648392 126.74295136 1.31223523 132.99316406 6.43579102 C138.10674104 12.00560239 141.23009178 17.30870173 141.26731873 25.01896667 C141.27729385 26.13047089 141.28726898 27.2419751 141.29754639 28.38716125 C141.29821106 29.59712265 141.29887573 30.80708405 141.29956055 32.05371094 C141.30788406 33.33560303 141.31620758 34.61749512 141.32478333 35.93823242 C141.3466899 39.44883522 141.35552246 42.95935092 141.36060977 46.47001433 C141.36425907 48.66701961 141.37050222 50.86400228 141.37761116 53.06099892 C141.40209608 60.73647686 141.41515467 68.41188735 141.41870117 76.08740234 C141.42233173 83.22374711 141.45219471 90.35966055 141.49410576 97.49587363 C141.52889396 103.63622215 141.54425111 109.77642838 141.54494721 115.91687471 C141.54573738 119.57818339 141.55435457 123.23905281 141.58294487 126.90025902 C141.61417358 130.99077716 141.60502541 135.08028001 141.5925293 139.17089844 C141.61478073 140.9706588 141.61478073 140.9706588 141.63748169 142.80677795 C141.56516149 151.14422707 140.01464472 158.05784989 134.23769283 164.34686565 C126.66719316 171.48215273 119.10439497 171.87427152 109.11645508 171.82397461 C107.18835999 171.83186005 107.18835999 171.83186005 105.22131348 171.83990479 C101.71088507 171.85352873 98.20072252 171.84829994 94.69028974 171.83876753 C91.00648641 171.83114365 87.32270503 171.83822424 83.63890076 171.84292603 C77.45282936 171.84837635 71.26686558 171.84121174 65.08081055 171.8269043 C57.94334802 171.81058633 50.80614273 171.81586288 43.66868645 171.83238351 C37.52662291 171.8460277 31.38463652 171.84790354 25.24256271 171.84006751 C21.58036744 171.83540612 17.9182928 171.83472347 14.25610542 171.84467697 C10.17033964 171.85500691 6.08501234 171.84066156 1.99926758 171.82397461 C0.79537888 171.8300473 -0.40850983 171.83612 -1.64888 171.84237671 C-9.82019746 171.78065593 -17.23597166 170.98656489 -23.56888866 165.18087578 C-30.30963488 157.0003439 -31.88743625 148.4072784 -31.76733398 138.11499023 C-31.77624161 136.84182953 -31.78514923 135.56866882 -31.79432678 134.25692749 C-31.81717426 130.80214503 -31.80283176 127.34848378 -31.7798574 123.89373922 C-31.76077093 120.25760675 -31.77212587 116.62154139 -31.77876282 112.98538208 C-31.78507885 106.8845259 -31.7669586 100.78411274 -31.73413086 94.68334961 C-31.69661142 87.6530051 -31.69843696 80.62349799 -31.72117203 73.59310901 C-31.74219299 66.79707714 -31.73480856 60.00135169 -31.71485329 53.20532608 C-31.70691453 50.32751717 -31.70880119 47.44997081 -31.71887779 44.57217026 C-31.73148558 40.54691006 -31.70254669 36.5229485 -31.66967773 32.49780273 C-31.67822784 31.31831055 -31.68677795 30.13881836 -31.69558716 28.92358398 C-31.57972679 20.67193902 -29.9960464 13.70967966 -24.22231579 7.52392387 C-22.54183496 5.97290874 -20.92901321 4.67727775 -19.00683594 3.43579102 C-18.24506042 2.92391739 -17.48328491 2.41204376 -16.69842529 1.88465881 C-11.17503879 -0.28314916 -5.88380673 -0.00648028 0 0 Z " fill="#E4D8BE" transform="translate(234.0068359375,824.564208984375)"/>
<path d="M0 0 C1.31129883 -0.01007584 2.62259766 -0.02015167 3.97363281 -0.03053284 C7.56065371 -0.05696337 11.14745972 -0.06406344 14.7345686 -0.0659802 C16.97966666 -0.06811726 19.22471064 -0.07453075 21.46979523 -0.08247185 C29.31388294 -0.11020526 37.15781801 -0.12248026 45.00195312 -0.12011719 C52.29461992 -0.11831672 59.58661963 -0.14994067 66.87911773 -0.19734818 C73.15538316 -0.23668387 79.43143159 -0.25266428 85.70781922 -0.25075096 C89.44965484 -0.249989 93.19089758 -0.25837343 96.93260956 -0.29028511 C101.11178025 -0.32495606 105.2894743 -0.31102305 109.46875 -0.29296875 C110.69507141 -0.30982727 111.92139282 -0.32668579 113.18487549 -0.34405518 C121.18382139 -0.25648392 126.74295136 1.31223523 132.99316406 6.43579102 C138.07914193 11.97554088 141.23727079 17.27471003 141.25386047 24.94976807 C141.26094528 26.04588913 141.26803009 27.14201019 141.27532959 28.27134705 C141.27285217 29.46417801 141.27037476 30.65700897 141.26782227 31.88598633 C141.2729332 33.14997757 141.27804413 34.41396881 141.28330994 35.71626282 C141.29668134 39.17723397 141.29728042 42.63809578 141.29474664 46.09908772 C141.2936751 48.99390657 141.29856525 51.88870346 141.30335206 54.7835176 C141.31444202 61.6183091 141.31488833 68.45304565 141.30883789 75.2878418 C141.30280543 82.32298635 141.31509164 89.35793053 141.33640796 96.3930409 C141.35406672 102.44504987 141.36001838 108.49699534 141.35677022 114.54902911 C141.35496312 118.15820179 141.3575353 121.76723171 141.37148476 125.37638092 C141.3864804 129.40705704 141.37705577 133.43733015 141.36547852 137.46801758 C141.37312225 138.65275162 141.38076599 139.83748566 141.38864136 141.05812073 C141.33039783 150.25344785 140.17395965 158.00270252 133.74316406 164.93188477 C128.57018648 169.37741238 122.42653461 171.55531818 115.67500305 171.57623291 C114.571772 171.58194305 113.46854095 171.5876532 112.33187866 171.59353638 C110.51546371 171.59521317 110.51546371 171.59521317 108.66235352 171.59692383 C106.74976494 171.60437119 106.74976494 171.60437119 104.79853821 171.61196899 C101.29829085 171.62508704 97.79806268 171.63153719 94.29779458 171.63597965 C92.10919897 171.63891233 89.92060859 171.64301758 87.73201561 171.64748383 C80.87947531 171.66115937 74.02694696 171.67082482 67.17439395 171.67468572 C59.27382782 171.67916185 51.37343509 171.69668873 43.47292167 171.72568631 C37.36068124 171.74733835 31.24848945 171.75739193 25.1362111 171.75872684 C21.48846308 171.75977267 17.84087806 171.76563262 14.19317055 171.78354645 C10.11899007 171.80316484 6.04516985 171.79872417 1.97094727 171.79223633 C0.77012512 171.80145111 -0.43069702 171.81066589 -1.66790771 171.82015991 C-9.8390438 171.7794322 -17.2357053 170.98680907 -23.56888866 165.18087578 C-30.30963488 157.0003439 -31.88743625 148.4072784 -31.76733398 138.11499023 C-31.77624161 136.84182953 -31.78514923 135.56866882 -31.79432678 134.25692749 C-31.81717426 130.80214503 -31.80283176 127.34848378 -31.7798574 123.89373922 C-31.76077093 120.25760675 -31.77212587 116.62154139 -31.77876282 112.98538208 C-31.78507885 106.8845259 -31.7669586 100.78411274 -31.73413086 94.68334961 C-31.69661142 87.6530051 -31.69843696 80.62349799 -31.72117203 73.59310901 C-31.74219299 66.79707714 -31.73480856 60.00135169 -31.71485329 53.20532608 C-31.70691453 50.32751717 -31.70880119 47.44997081 -31.71887779 44.57217026 C-31.73148558 40.54691006 -31.70254669 36.5229485 -31.66967773 32.49780273 C-31.67822784 31.31831055 -31.68677795 30.13881836 -31.69558716 28.92358398 C-31.57972679 20.67193902 -29.9960464 13.70967966 -24.22231579 7.52392387 C-22.54183496 5.97290874 -20.92901321 4.67727775 -19.00683594 3.43579102 C-18.24506042 2.92391739 -17.48328491 2.41204376 -16.69842529 1.88465881 C-11.17503879 -0.28314916 -5.88380673 -0.00648028 0 0 Z " fill="#E4D8BE" transform="translate(545.0068359375,824.564208984375)"/>
<path d="M0 0 C1.31129883 -0.01007584 2.62259766 -0.02015167 3.97363281 -0.03053284 C7.56065371 -0.05696337 11.14745972 -0.06406344 14.7345686 -0.0659802 C16.97966666 -0.06811726 19.22471064 -0.07453075 21.46979523 -0.08247185 C29.31388294 -0.11020526 37.15781801 -0.12248026 45.00195312 -0.12011719 C52.29461992 -0.11831672 59.58661963 -0.14994067 66.87911773 -0.19734818 C73.15538316 -0.23668387 79.43143159 -0.25266428 85.70781922 -0.25075096 C89.44965484 -0.249989 93.19089758 -0.25837343 96.93260956 -0.29028511 C101.11178025 -0.32495606 105.2894743 -0.31102305 109.46875 -0.29296875 C110.69507141 -0.30982727 111.92139282 -0.32668579 113.18487549 -0.34405518 C121.19716456 -0.25633784 126.72015083 1.33082865 132.99316406 6.43579102 C140.86537316 14.77251745 141.29433488 22.91938177 141.31542969 33.97363281 C141.3303244 35.84819908 141.3303244 35.84819908 141.34552002 37.76063538 C141.36964676 41.17420337 141.38462959 44.58752782 141.39354134 48.0011518 C141.39942657 50.13955514 141.40764054 52.2779376 141.41654968 54.41633034 C141.44386266 61.12363376 141.46321356 67.83088881 141.47095346 74.53824395 C141.47990423 82.24992179 141.51496504 89.96088875 141.57295465 97.67235059 C141.61635607 103.65396053 141.63637089 109.63537171 141.6390357 115.61713725 C141.64112006 119.18020966 141.65267895 122.74261225 141.68867493 126.3055172 C141.72812878 130.28776726 141.71899349 134.26855169 141.70605469 138.25097656 C141.72448425 139.41243195 141.74291382 140.57388733 141.76190186 141.77053833 C141.67154728 150.6955852 139.41749824 159.04026112 132.91001129 165.50538158 C127.63350819 169.78695529 122.12201322 171.68189151 115.3142395 171.69648743 C114.20688446 171.70357224 113.09952942 171.71065704 111.95861816 171.71795654 C110.75846069 171.71547913 109.55830322 171.71300171 108.32177734 171.71044922 C106.40853165 171.71811562 106.40853165 171.71811562 104.45663452 171.72593689 C100.96893126 171.73929098 97.4813366 171.73990952 93.99361277 171.73737359 C91.0762816 171.7363013 88.15897218 171.74119389 85.24164569 171.74597901 C78.35557918 171.75706206 71.46956721 171.75751857 64.58349609 171.75146484 C57.49321188 171.74542715 50.40312621 171.75773351 43.31287587 171.77903491 C37.21330446 171.79668231 31.11379607 171.80264728 25.01420009 171.79939717 C21.37657003 171.79758895 17.73908158 171.80017401 14.10147476 171.81411171 C10.0419665 171.82908478 5.9828592 171.81969259 1.92333984 171.80810547 C0.72723083 171.81574921 -0.46887817 171.82339294 -1.70123291 171.83126831 C-10.08317121 171.77844368 -17.10601073 170.88472269 -23.62402344 165.02563477 C-28.74894753 159.13341978 -31.11547437 152.76012437 -31.16073608 145.04879761 C-31.16933655 143.95549637 -31.17793701 142.86219513 -31.1867981 141.73576355 C-31.19105804 140.54090836 -31.19531799 139.34605316 -31.19970703 138.11499023 C-31.20788452 136.85275131 -31.21606201 135.59051239 -31.2244873 134.2900238 C-31.25064928 130.1068636 -31.26601156 125.9236937 -31.28027344 121.74047852 C-31.28563597 120.29692708 -31.29101349 118.8533757 -31.29640579 117.40982437 C-31.31802816 111.40140842 -31.3367617 105.39299508 -31.34802818 99.38455009 C-31.36424754 90.79307142 -31.39738311 82.20204636 -31.45442903 73.61073864 C-31.49322863 67.55959643 -31.5126728 61.50857502 -31.51794875 55.45731175 C-31.52158927 51.84850001 -31.53346996 48.24017272 -31.56605148 44.63149643 C-31.60194365 40.59837993 -31.59773601 36.5662286 -31.59033203 32.53295898 C-31.60673737 31.35024918 -31.6231427 30.16753937 -31.64004517 28.94898987 C-31.5780026 20.66852258 -30.01627264 13.73029485 -24.22200584 7.5240612 C-22.54169953 5.97277666 -20.92905833 4.67730689 -19.00683594 3.43579102 C-18.24506042 2.92391739 -17.48328491 2.41204376 -16.69842529 1.88465881 C-11.17503879 -0.28314916 -5.88380673 -0.00648028 0 0 Z " fill="#E4D8BE" transform="translate(856.0068359375,824.564208984375)"/>
<path d="M0 0 C0.33 0 0.66 0 1 0 C1.21914063 0.81082031 1.43828125 1.62164063 1.6640625 2.45703125 C6.25137042 18.47531379 13.53458677 30.35449064 28 39 C34.15565658 42.24072171 40.1916282 44.5869417 47 46 C47 46.33 47 46.66 47 47 C31.49 47 15.98 47 0 47 C0 31.49 0 15.98 0 0 Z " fill="#000000" transform="translate(0,1153)"/>
<path d="M0 0 C15.51 0 31.02 0 47 0 C47 0.33 47 0.66 47 1 C46.18917969 1.21914063 45.37835938 1.43828125 44.54296875 1.6640625 C29.10491063 6.08520604 16.97153876 13.02659342 8.5703125 27.0546875 C5.18412234 33.40589988 2.21794611 39.87371958 1 47 C0.67 47 0.34 47 0 47 C0 31.49 0 15.98 0 0 Z " fill="#000000" transform="translate(0,0)"/>
<path d="M0 0 C0.33 0 0.66 0 1 0 C1 14.52 1 29.04 1 44 C-14.51 44 -30.02 44 -46 44 C-46 43.67 -46 43.34 -46 43 C-44.76636719 42.65388672 -44.76636719 42.65388672 -43.5078125 42.30078125 C-27.53614856 37.63469467 -15.26403286 30.6948372 -6.50390625 15.9609375 C-3.88758699 10.80984659 -1.88227012 5.45598113 0 0 Z " fill="#000000" transform="translate(1199,1156)"/>
<path d="M0 0 C15.18 0 30.36 0 46 0 C46 14.52 46 29.04 46 44 C44.47792295 40.95584589 43.10001544 37.93103567 41.75 34.8125 C35.07945787 20.18787118 25.43755235 10.87879 11 4 C7.37004444 2.73353943 3.77158992 1.73892374 0 1 C0 0.67 0 0.34 0 0 Z " fill="#000000" transform="translate(1154,0)"/>
</svg>
